<?xml version="1.0" encoding="utf-8"?>
<!-- Generator: Adobe Illustrator 18.0.0, SVG Export Plug-In . SVG Version: 6.00 Build 0)  -->
<!DOCTYPE svg PUBLIC "-//W3C//DTD SVG 1.1//EN" "https://www.w3.org/Graphics/SVG/1.1/DTD/svg11.dtd">
<svg version="1.1" id="Layer_1" xmlns="https://www.w3.org/2000/svg" xmlns:xlink="https://www.w3.org/1999/xlink" x="0px" y="0px"
	 viewBox="0 0 400 400" enable-background="new 0 0 400 400" xml:space="preserve">
<g id="BhHpHQ.tif">
	<g>
		<path d="M0,352.1c133.6,0,266.3,0,399.8,0c0,3,0.5,5.8-0.1,8.6c-0.8,3.2-7.1,5.3-14.5,5.3c-81,0-162,0-243,0
			c-41.5,0-82.9,0-124.4,0c-12.5,0-17.7-2.2-17.7-7.8C0,356.3,0,354.4,0,352.1z"/>
		<path d="M230.7,217.1c-21.3-18.1-42.1-35.7-63.3-53.7C122.2,198.8,77.2,234,31.6,269.7c-4.7-6.5-9.1-12.8-14-19.6
			c50.1-39.3,100-78.4,150.4-117.8c20.3,17.2,40.6,34.5,61.2,52c41.1-42.2,82-84.2,123.3-126.6c-9.9-4.1-19.3-8-28.7-12
			c0-0.4-0.1-0.8-0.1-1.1c21.9-3.5,43.8-7,66.8-10.7c-4.2,22.7-8.3,44.6-12.4,66.5c-0.3,0.1-0.6,0.1-0.9,0.2
			c-2.5-8.2-5-16.4-7.9-25.8C322.8,122.5,276.9,169.7,230.7,217.1z"/>
		<path d="M368.9,336.4c-13.5,0-26.9,0-41.2,0c0-2.2,0-4.4,0-6.5c0.1-36.9,0.2-73.8,0.2-110.7c0-22.5-0.3-45-0.1-67.5
			c0-3,1.6-6.6,3.6-8.8c12.1-13,24.6-25.6,37.5-38.8C368.9,181.7,368.9,258.9,368.9,336.4z"/>
		<path d="M308.9,167.9c0,55.6,0,111.8,0,168.5c-13.9,0-27.4,0-41.7,0c0-3.6,0-6.9,0-10.3c0-38.4-0.1-76.8-0.1-115.3
			c0-1.4,0.5-3.1,1.4-4C281.9,193.8,295.4,180.8,308.9,167.9z"/>
		<path d="M168.5,192.2c4,3.2,7.1,6,10.6,8.2c8.1,5.1,9.7,12.3,9.6,21.4c-0.5,36.9-0.3,73.8-0.4,110.8c0,1.1-0.1,2.2-0.2,3.7
			c-13.7,0-27.2,0-41.2,0c-0.2-1.4-0.4-2.8-0.4-4.3c-0.1-39.2-0.1-78.4-0.3-117.6c0-3.3,0.7-5.5,3.5-7.5
			C156.2,202.2,162.3,197.1,168.5,192.2z"/>
		<path d="M207.2,224.8c8.4,7,16,13.4,24.4,20.5c5.5-5.7,10.9-11.4,16.8-17.6c0,36.7,0,72.5,0,108.7c-13.8,0-27.4,0-41.2,0
			C207.2,299.4,207.2,262.6,207.2,224.8z"/>
		<path d="M127.6,336.4c-14,0-27.4,0-41.3,0c0-9.5,0-18.7,0-27.9c0-15.7,0.1-31.4-0.1-47.1c0-3.3,0.9-5.5,3.6-7.6
			c11.6-8.8,22.9-17.9,34.4-26.8c0.9-0.7,1.9-1.2,3.4-2.1C127.6,262.3,127.6,299.2,127.6,336.4z"/>
		<path d="M66.9,336.4c-13.6,0-26.9,0-40.9,0c0-10.4-0.1-20.6,0.1-30.7c0-1.1,1-2.4,1.9-3.2c12.7-10.1,25.5-20.1,39-30.7
			C66.9,293.8,66.9,314.9,66.9,336.4z"/>
	</g>
</g>
</svg>
