<?xml version="1.0" encoding="utf-8"?>
<!-- Generator: Adobe Illustrator 18.0.0, SVG Export Plug-In . SVG Version: 6.00 Build 0)  -->
<!DOCTYPE svg PUBLIC "-//W3C//DTD SVG 1.1//EN" "https://www.w3.org/Graphics/SVG/1.1/DTD/svg11.dtd">
<svg version="1.1" id="Layer_1" xmlns="https://www.w3.org/2000/svg" xmlns:xlink="https://www.w3.org/1999/xlink" x="0px" y="0px"
	 viewBox="0 0 400 400" enable-background="new 0 0 400 400" xml:space="preserve">
<g id="YUDWY3.tif">
	<g>
		<path d="M107.4,40.6c30,0,60-0.1,90,0.1c5.9,0,9-1,11.4-7.4c9.6-24.9,36.8-37.9,62.5-30.9c24.4,6.7,41.8,32.4,38.1,56.4
			c-4.3,28.1-26.3,47.7-53.6,46.6c-22.5-0.9-38.6-12.4-47.2-33.2c-2.3-5.5-4.9-6.8-10.3-6.8C138.6,65.7,78.8,65.6,19,65.6
			c-2.1,0-4.3,0.1-6.4-0.1C5,64.8,0,59.6,0.2,52.7c0.2-6.9,5.4-12,13.2-12.1c15.7-0.2,31.3-0.1,47-0.1C76,40.5,91.7,40.5,107.4,40.6
			C107.4,40.5,107.4,40.5,107.4,40.6z M257.3,80.5c15.6-0.1,27.5-12.2,27.4-27.9c-0.1-15.5-12.4-27.4-28.1-27.2
			c-15.1,0.2-27.2,12.4-27.1,27.5C229.5,68.5,241.7,80.6,257.3,80.5z"/>
		<path d="M90.9,335.5c25,0,49.9-0.1,74.9,0.1c5.5,0.1,8.1-1.4,10.3-6.9c9.8-25.4,36.7-38.5,62.9-31.2c25.2,7,41.1,32.1,37.4,59.1
			c-3.4,25-27.3,44.6-53.6,43.9c-20.5-0.5-39.6-13.8-47-33.6c-2-5.3-4.6-6.5-9.8-6.4c-49.9,0.2-99.8,0.2-149.8-0.1
			c-4.5,0-10.3-2-13.2-5.2c-2.4-2.5-3.2-9.5-1.3-12.1c2.6-3.7,8.3-7.1,12.7-7.2C39.9,335.1,65.4,335.5,90.9,335.5z M224.1,375.5
			c15.4,0.1,28.1-12.2,28.3-27.3c0.1-14.8-12.2-27.4-27.1-27.6c-15.9-0.2-28.1,11.3-28.4,26.8C196.6,362.9,208.7,375.3,224.1,375.5z
			"/>
		<path d="M58.8,212.7c-15.2,0-30.3,0.1-45.4-0.1c-9.7-0.1-15.5-8.1-12.4-16.6c2.1-5.7,6.6-7.9,12.5-7.9c13,0,26-0.3,39,0.1
			c5.2,0.2,7.2-1.7,9-6.4c8.7-22.7,31-36.4,53.8-33.6c25.4,3.1,43.5,20.6,47,45.5c3.5,25.2-12.3,49.5-37,56.9
			c-24.6,7.3-51.3-4.5-62.1-27.5C61.6,220.2,60.5,216.9,58.8,212.7z M138,200.9c0.1-15.3-12.2-28-27.6-28.2
			c-15-0.2-28.1,12.8-28,27.8c0.1,14.8,12.5,27.4,27.3,27.8C124.7,228.8,137.9,216,138,200.9z"/>
		<path d="M293.3,188.2c30.5,0,61,0,91.6,0c10.3,0,16,5.5,14.8,14.1c-1,6.9-5.5,10.4-14.4,10.4c-40.6,0.1-81.2,0-121.8,0
			c-21.2,0-42.5,0.4-63.7-0.3c-4.2-0.1-9.6-3.5-11.8-7c-1.8-2.8-1-9.6,1.3-12c3-3.1,8.7-4.8,13.3-4.9
			C232.8,188,263.1,188.2,293.3,188.2z"/>
		<path d="M350.7,360.5c-11.7,0-23.3,0.1-35,0c-8.6-0.1-14.5-5.2-14.5-12.4c-0.1-7.3,5.6-12.5,14.3-12.6c23.3-0.1,46.6-0.1,69.9,0
			c8.9,0,14.4,4.9,14.5,12.3c0.1,7.4-5.4,12.5-14.2,12.6C374,360.7,362.4,360.5,350.7,360.5z"/>
		<path d="M366.6,40.6c6.6,0,13.2-0.1,19.8,0c7.8,0.2,13.1,5,13.4,11.7c0.3,7-4.5,12.8-12.1,13.1c-14,0.5-28.1,0.5-42.1,0
			c-7.6-0.3-12.2-6.3-11.8-13.3c0.4-6.5,5.5-11.3,12.8-11.5C353.4,40.4,360,40.5,366.6,40.6C366.6,40.5,366.6,40.6,366.6,40.6z"/>
	</g>
</g>
</svg>
