<?xml version="1.0" encoding="utf-8"?>
<!-- Generator: Adobe Illustrator 18.0.0, SVG Export Plug-In . SVG Version: 6.00 Build 0)  -->
<!DOCTYPE svg PUBLIC "-//W3C//DTD SVG 1.1//EN" "https://www.w3.org/Graphics/SVG/1.1/DTD/svg11.dtd">
<svg version="1.1" id="Layer_1" xmlns="https://www.w3.org/2000/svg" xmlns:xlink="https://www.w3.org/1999/xlink" x="0px" y="0px"
	 viewBox="0 0 400 400" enable-background="new 0 0 400 400" xml:space="preserve">
<g id="_x31_rRt0I.tif">
	<g>
		<path d="M33,236.3c0-45.4,0-90.9-0.1-136.3c0-7,2.5-12.8,7.4-17.6c25.3-25.3,50.6-50.6,75.9-75.9c4.3-4.3,9.4-6.4,15.4-6.4
			C189.5,0,247.4,0,305.3,0c13.2,0,23.4,10.3,23.5,23.5c0.1,56.8,0,113.5,0.1,170.3c0,3.7-1.2,4.9-4.8,4.8c-9.6-0.3-8.4,0.8-8.4-8.3
			c0-52.8,0-105.7,0-158.5c0-1.5,0-3.1,0-4.6c-0.2-9.9-4.2-13.9-14.2-14c-24.2-0.1-48.4,0-72.6,0c-30.2,0-60.4,0.1-90.6-0.1
			c-3.8,0-5.1,0.9-5,4.9c0.2,19.3,0.1,38.6,0.1,57.9c0,13.9-10.3,24.4-24.3,24.5c-19.3,0.1-38.6,0.1-57.9,0c-3.7,0-5.1,0.8-5.1,4.8
			c0.1,87.9,0.1,175.8,0.1,263.8c0,4.4,0.4,8.7,3.2,12.3c3.2,4,7.5,5.5,12.6,5.5c31.3,0,62.6,0,93.9,0c1.9,0,4.9-1.1,5.6,1.4
			c1,3.4,1.1,7.3-0.1,10.7c-0.6,1.7-3,1-4.6,1c-17.5,0-34.9,0-52.4,0c-14.7,0-29.4-0.6-44,0.1c-14.4,0.7-27.5-13.1-27.4-27.4
			c0.4-41.4,0.2-82.8,0.2-124.1C33,244.4,33,240.4,33,236.3z"/>
		<path d="M215.2,288c0-34.9,0-69.9,0-104.8c0-6,0-6,6.1-6c5.2,0,10.3,0,15.5,0c5.3,0,5.4,0.2,5.4,5.4c0,32.6,0,65.1,0,97.7
			c0,37.6,0,75.2,0,112.8c0,5.8,0,5.8-5.8,5.8c-4.6,0-9.2,0.1-13.8,0c-7.4-0.1-7.4-0.1-7.4-7.7c0-16.2,0-32.4,0-48.6
			C215.1,324.3,215.1,306.2,215.2,288C215.1,288,215.1,288,215.2,288z"/>
		<path d="M367.2,305.1c0,29.3,0,58.7,0,88c0,5.6-0.1,5.7-5.6,5.7c-5.7,0-11.5-0.2-17.2,0.1c-4.2,0.2-5.2-1.5-5.2-5.4
			c0.1-25.6,0-51.1,0-76.7c0-33,0-66,0-98.9c0-7.3,0-7.3,7.1-7.2c4.9,0,9.8,0,14.7,0c6.1,0,6.2,0,6.2,6.4
			C367.2,246.4,367.2,275.7,367.2,305.1z"/>
		<path d="M284.1,320.7c0,24.2,0,48.3,0,72.5c0,5.5-0.1,5.6-5.6,5.6c-5.7,0-11.5-0.2-17.2,0.1c-3.8,0.2-5.1-1.1-5.1-5
			c0.1-20.1,0-40.2,0-60.4c0-27.9,0-55.9,0-83.8c0-7.1,0-7.1,7.2-7.1c5.2,0,10.3,0.2,15.5-0.1c4-0.2,5.4,1.2,5.3,5.3
			C284.1,272.1,284.1,296.4,284.1,320.7z"/>
		<path d="M326.1,343.4c0,16.8-0.1,33.5,0.1,50.3c0,4.1-1.4,5.4-5.3,5.2c-6-0.3-12-0.3-18,0c-4.2,0.2-5.6-1.2-5.6-5.5
			c0.2-23.2,0.1-46.4,0.1-69.6c0-10.2,0-20.4,0-30.6c0-5.1,0.3-5.4,5.5-5.4c6.1,0,12.3,0.2,18.4,0c3.6-0.1,4.9,1.2,4.9,4.8
			C326,309.6,326.1,326.5,326.1,343.4z"/>
		<path d="M180.9,151c34.9,0,69.9,0.1,104.8-0.1c4.4,0,5.9,1.4,5.3,5.5c-0.1,0.8-0.1,1.7,0,2.5c0.5,4-1.2,5.3-5.2,5.3
			c-60.5-0.1-121-0.1-181.5-0.1c-9.5,0-19-0.1-28.5,0.1c-3.7,0.1-5.3-0.9-5.1-4.9c0.3-9.4-0.8-8.3,8.4-8.3
			C113,151,146.9,151,180.9,151C180.9,151,180.9,151,180.9,151z"/>
		<path d="M174.1,365.1c0-9.4,0.1-18.7-0.1-28.1c-0.1-3.7,1.3-4.9,4.9-4.8c6.3,0.2,12.6,0.2,18.9,0c3-0.1,4.3,1.1,4.3,4.2
			c-0.1,19.4-0.1,38.8,0,58.2c0,3.1-1.3,4.2-4.3,4.1c-6.4-0.1-12.9-0.1-19.3,0c-3.2,0.1-4.5-1.1-4.4-4.4
			C174.2,384.7,174.1,374.9,174.1,365.1z"/>
		<path d="M224.5,88.6c-20.4,0-40.8-0.1-61.2,0.1c-4.3,0-5.9-1.3-5.3-5.5c0.1-0.8,0.1-1.7,0-2.5c-0.5-4,1.1-5.3,5.1-5.3
			c40.8,0.1,81.6,0.1,122.4,0.1c5.6,0,5.6,0,5.6,5.6c0,0.8-0.1,1.7,0,2.5c0.5,3.8-1,5.1-4.9,5.1C265.6,88.5,245,88.6,224.5,88.6
			C224.5,88.6,224.5,88.6,224.5,88.6z"/>
		<path d="M224.5,126.4c-20.3,0-40.5,0-60.8,0c-5.7,0-5.7,0-5.7-5.4c0-8.6-0.7-7.7,7.6-7.7c39.8,0,79.7,0,119.5,0
			c1.9,0,4.9-1.1,5.5,1.4c0.9,3.4,1.1,7.3-0.2,10.7c-0.7,1.6-3,0.9-4.7,0.9C265.3,126.4,244.9,126.4,224.5,126.4z"/>
		<path d="M136.6,201.9c-20.3,0-40.5-0.1-60.8,0.1c-4.1,0-5.3-1.2-5.2-5.3c0.3-8.9-0.7-7.9,7.9-7.9c39.8,0,79.7,0,119.5-0.1
			c3.9,0,5.1,1.3,5,5.1c-0.3,9.2,0.8,8.1-8.1,8.1C175.5,201.9,156.1,201.9,136.6,201.9z"/>
		<path d="M136.4,239.6c-20.1,0-40.2-0.1-60.4,0.1c-4.3,0-5.9-1.4-5.4-5.5c0-0.3,0-0.6,0-0.8c0-6.9,0-6.9,6.8-6.9
			c39.5,0,79.1,0,118.6,0c2.1,0,5.3-1,6.2,1.1c1.3,3.3,1.2,7.2,0.1,10.7c-0.6,2.1-3.2,1.3-4.9,1.3
			C177.2,239.6,156.8,239.6,136.4,239.6C136.4,239.6,136.4,239.6,136.4,239.6z"/>
		<path d="M137,264.2c20.3,0,40.5,0.1,60.8-0.1c4,0,5.4,1.2,5.2,5.3c-0.4,8.9,0.7,7.9-7.9,7.9c-39.3,0.1-78.5,0-117.8,0
			c-2.1,0-5.2,1.1-6.1-1.3c-1.2-3.4-1.1-7.2,0-10.7c0.6-1.8,3-1.1,4.6-1.1C96.2,264.2,116.6,264.2,137,264.2
			C137,264.2,137,264.2,137,264.2z"/>
		<path d="M136.5,319.3c-20.1,0-40.2-0.1-60.4,0.1c-4.2,0-5.7-1.1-5.5-5.4c0.4-8.6-0.6-7.8,7.6-7.8c39.8,0,79.7,0,119.5-0.1
			c4,0,5.4,1.2,5.2,5.2c-0.3,8.9,0.7,8-7.8,8C175.6,319.3,156.1,319.3,136.5,319.3z"/>
	</g>
</g>
</svg>
