<?xml version="1.0" encoding="utf-8"?>
<!-- Generator: Adobe Illustrator 18.0.0, SVG Export Plug-In . SVG Version: 6.00 Build 0)  -->
<!DOCTYPE svg PUBLIC "-//W3C//DTD SVG 1.1//EN" "https://www.w3.org/Graphics/SVG/1.1/DTD/svg11.dtd">
<svg version="1.1" id="Layer_1" xmlns="https://www.w3.org/2000/svg" xmlns:xlink="https://www.w3.org/1999/xlink" x="0px" y="0px"
	 viewBox="0 0 400 400" enable-background="new 0 0 400 400" xml:space="preserve" class="svg-test">
<g id="Ap7aqR.tif">
	<g>
		<path d="M0,218.5c1.6-7.7,3.4-15.4,6.9-22.5c8.9-18.3,22.7-31,41.6-38.4c9.9-3.9,20.2-4.9,30.7-4.9c14.3-0.1,28.5,0,42.8,0
			c0.9,0,1.7,0,2.6,0c6.3,0.1,6.1,0.2,6.8,6.4c1.8,15.5,8,29,18.4,40.6c0.3,0.3,0.6,0.6,0.9,0.9c2.6,2.7,2.6,3.1-1,4.3
			c-12.1,4.2-23,10.6-32.2,19.5c-17,16.3-26.3,36.3-27.8,59.9c-0.4,6.6-0.4,13.2-0.4,19.8c0,2.6-0.8,3.6-3.5,3.4
			c-16.9-1.5-33.6-3.8-50.1-7.5c-10.9-2.4-21.6-5.6-32.4-8.6c-1-0.3-2.1-0.4-3.1-0.6C0,266.6,0,242.6,0,218.5z"/>
		<path d="M400,289.4c-17.3,8.4-35.7,13.2-54.6,15.8c-8.4,1.2-16.9,1.8-25.4,2.7c-2.6,0.3-3.7-0.7-3.7-3.4c0-6.7,0.1-13.4-0.1-20.1
			c-0.6-19.2-7.4-36.1-19.2-51c-10.8-13.6-24.6-23-41-28.8c-3.3-1.2-3.3-1.3-0.8-3.9c11.7-12.6,18.7-27.3,19.6-44.6
			c0.1-2.6,1.1-3.6,3.7-3.6c15.6,0.1,31.3-0.3,46.9,0.1c26.1,0.7,46.9,11.7,62,33.1c6.3,9,10,19.2,12.1,30c0.2,0.9,0.4,1.9,0.6,2.8
			C400,242.2,400,265.8,400,289.4z"/>
		<path d="M303.1,314.8c0,10.4-0.1,20.9,0.1,31.3c0,2.8-1,4.2-3.4,5.3c-16.1,7.4-33.1,11.5-50.5,14.2c-20.4,3.1-40.9,3.9-61.4,2.3
			c-19-1.5-37.8-4.4-56.3-9.1c-8.5-2.1-16.8-4.6-25.2-7c-3.3-0.9-4-2.9-4-5.8c0-11.5,0-23,0-34.5c0-9.8-0.4-19.6,0.6-29.4
			c1.5-15.9,7.3-30.1,17.7-42.3c12-14.1,27.2-22.5,45.4-25.7c4.4-0.8,8.9-1,13.4-1c15.8,0,31.5,0,47.3,0
			c23.5-0.1,43.2,8.8,58.6,26.5c11.2,12.8,17.3,28,17.8,45.1C303.3,294.8,303.1,304.8,303.1,314.8
			C303.1,314.8,303.1,314.8,303.1,314.8z"/>
		<path d="M203,91.9c32.6,0,59.2,26.5,59,59.2c-0.2,32.6-25.9,58.9-59,58.9c-32.7,0-58.9-25.7-59-58.9
			C143.8,117.7,170.6,92,203,91.9z"/>
		<path d="M101.6,31.2c26.1,0.1,50.2,19.5,56.2,46.6c0.9,4.2,1,8.4,1.2,12.7c0.1,2-0.6,3.8-2.3,5.3c-12.8,10.9-21.2,24.6-24.3,41.2
			c-0.4,2.2-1.6,3.5-3.4,4.6c-21,12.4-49.8,9.4-68.1-7.1c-26.2-23.7-26.4-64.3-0.4-88C71.6,36.4,85,31.5,101.6,31.2z"/>
		<path d="M358.7,87.4c1.5,30.8-19.7,56.5-49.9,61.2c-10.7,1.7-20.7,0.1-30.7-3.5c-2.4-0.9-3.6-2.3-4-4.8
			c-3.1-20.7-13.6-36.8-30.7-48.8c-1.7-1.2-2.3-2.6-2.2-4.6c1.2-19.8,10.2-35.1,26.6-46c31.5-21,74.8-6.4,87.6,29.3
			c1,2.8,2.1,5.6,2.4,8.6C358.3,81.8,359,84.7,358.7,87.4z"/>
	</g>
</g>
</svg>
