<?xml version="1.0" encoding="utf-8"?>
<!-- Generator: Adobe Illustrator 18.0.0, SVG Export Plug-In . SVG Version: 6.00 Build 0)  -->
<!DOCTYPE svg PUBLIC "-//W3C//DTD SVG 1.1//EN" "http://www.w3.org/Graphics/SVG/1.1/DTD/svg11.dtd">
<svg version="1.1" id="Layer_1" xmlns="http://www.w3.org/2000/svg" xmlns:xlink="http://www.w3.org/1999/xlink" x="0px" y="0px"
	 viewBox="0 0 400 400" enable-background="new 0 0 400 400" xml:space="preserve">
<g>
	<path d="M212.6,88.1c0,2.6,0,5.1,0,7.8c34.3,3.1,64.3,16.2,89.8,39c1.4-1.7,2.7-3.1,3.8-4.7c0.5-0.7,0.7-1.9,0.5-2.8
		c-0.7-2.9,0.1-5.1,2.2-7.1c2.9-2.7,5.6-5.6,8.5-8.4c3.1-3.1,6.8-3.4,10-0.5c3.7,3.4,7.3,6.9,10.7,10.6c3.1,3.3,2.8,7-0.4,10.2
		c-2.9,2.9-5.6,6-8.7,8.6c-1.5,1.3-4,2.3-5.8,2c-2.4-0.4-3.6,0.3-5.1,1.8c-0.9,1-2.2,1.6-3.4,2.5c31.6,37.8,43.9,81,34.8,129.6
		c-6.9,37.1-25.8,67.4-55.4,90.7c-58.9,46.3-142,42.3-196.1-6.8c-19.9-18.1-34.2-39.8-42.6-65.4c-8.4-25.7-9.8-51.7-4.4-78.2
		c5.3-26.4,17.1-49.5,34.5-69.7c-1.7-1.3-3.1-2.7-4.7-3.8c-0.8-0.5-2-0.8-3-0.6c-2.6,0.4-4.7,0-6.6-1.9c-3-3.1-6.1-6-9.1-9.1
		c-2.7-2.8-3.2-6.1-0.7-9c3.7-4.2,7.7-8.2,11.9-11.9c3-2.6,6.1-2.2,9,0.6c3.4,3.3,6.8,6.5,9.9,10c0.9,1,1.6,3.1,1.3,4.3
		c-0.9,2.7-0.1,4.6,1.8,6.4c0.8,0.7,1.2,1.9,1.9,3c25.7-22.9,55.5-36.3,90-39.3c0.1-0.8,0.2-1.4,0.2-2c0-1.9,0-3.7,0-5
		c-6.7-2.8-13.3-4.9-19.3-8.1c-10.4-5.6-18.2-13.8-21.6-25.3c-4.6-15.6-0.2-29.2,11.7-39.7C176.9-0.7,198.7-3.6,222,4
		c11.4,3.7,20.9,10.4,27.3,20.8c9.7,15.7,7,34.9-6.4,47.8c-7.6,7.3-16.5,12-26.6,14.6C215.1,87.5,213.9,87.8,212.6,88.1z
		 M212.8,79.1c7.6-1.5,14.5-4.7,20.4-9.6c14.9-12.3,15.3-31,0.9-43.9c-17.4-15.8-50.9-15.8-68.3,0c-7.2,6.5-11.6,14.5-10.4,24.4
		c1.8,14.2,17.2,28,31.8,28.9c0.5-2.1,0.3-3.6-2.1-4.8c-3.4-1.6-4.9-4.6-4.9-8.5c0.1-6.6,0-13.2,0-19.8c0-5.4,3.8-9.7,9.2-9.9
		c6.9-0.3,13.8-0.2,20.7,0c5.7,0.2,9.4,4.4,9.4,10c0,6.6,0,13.2,0,19.8c0,3.8-1.6,6.8-5,8.4C212.3,75.3,212.1,76.8,212.8,79.1z
		 M199.9,373.4c68.8,0.1,126.3-55.4,125.8-126.8c-0.5-68.5-55.7-124.6-125.8-124.8c-69.4-0.2-125.7,56.3-125.7,125.8
		C74.2,317.2,130.4,373.4,199.9,373.4z"/>
	<path d="M199.9,370.3c-67.7,0-120.4-54.3-122.5-118.2c-2.3-70.4,53.6-127,122.5-127c67.7,0,123,54.5,122.7,123.3
		C322.4,314.8,268,370.5,199.9,370.3z M83.1,247.6C83,312.7,136,365.2,201,364.6c64.3-0.6,116.5-52.2,115.9-117.8
		c-0.6-65-52.8-116.2-117.6-116C134.9,131,82.5,184,83.1,247.6z"/>
	<path d="M257.3,173.2c-13.4,27.2-26.8,54.4-40.3,81.5c-2.9,5.9-7.6,9.9-14.4,10.8c-7.3,1-14.7-2.5-18.3-8.9
		c-3.7-6.6-3.1-15.3,2.1-20.7c7.6-7.8,15.4-15.3,23.5-22.6c15.3-13.8,30.7-27.3,46.1-40.9C256.5,172.7,256.9,173,257.3,173.2z
		 M199.9,237.1c-5.8,0-10.6,4.8-10.6,10.5c0,6.1,5,11,11,10.9c5.9-0.1,10.4-4.9,10.3-11.1C210.5,241.5,205.9,237.1,199.9,237.1z"/>
	<path d="M133.3,321.9c0,4.3-3.2,7.5-7.4,7.6c-4.4,0.1-7.8-3.3-7.7-7.7c0.1-4.2,3.4-7.4,7.6-7.4
		C130.1,314.4,133.3,317.6,133.3,321.9z"/>
	<path d="M274.4,165.8c4,0.1,7.5,3.7,7.5,7.7c0,4.1-3.8,7.7-8,7.6c-4.1-0.2-7.4-3.7-7.3-7.8C266.8,169.1,270.3,165.7,274.4,165.8z"
		/>
	<path d="M133.3,173.3c0.1,4.4-3.4,7.9-7.6,7.8c-4.1,0-7.4-3.5-7.5-7.7c0-4.1,3.4-7.6,7.5-7.7C129.7,165.8,133.2,169.2,133.3,173.3z
		"/>
	<path d="M102.5,248.1c-0.2,4.1-3.8,7.4-7.9,7.2c-4.2-0.3-7.3-3.7-7.2-7.9c0.1-4.4,3.6-7.5,8.1-7.3
		C99.6,240.3,102.7,243.9,102.5,248.1z"/>
	<path d="M200.2,345.1c4.3,0.2,7.4,3.5,7.3,7.8c-0.2,4.5-3.5,7.6-7.9,7.4c-4.1-0.2-7.4-3.8-7.2-7.9
		C192.5,348.2,196.1,345,200.2,345.1z"/>
	<path d="M207.5,143c-0.1,4.2-3.5,7.4-7.7,7.3c-4.2-0.1-7.5-3.5-7.5-7.7c0.1-4.1,3.6-7.5,7.6-7.6C204.1,135,207.6,138.6,207.5,143z"
		/>
	<path d="M305,240.2c4.2,0,7.7,3.5,7.6,7.5c0,4-3.6,7.6-7.5,7.7c-4.3,0-7.7-3.4-7.6-7.7C297.5,243.3,300.7,240.1,305,240.2z"/>
	<path d="M281.6,322.2c0,4.1-2.8,7-7.1,7.1c-4.4,0.2-8-3.3-8-7.4c0.1-4,3.5-7.2,7.8-7.3C278.7,314.5,281.6,317.5,281.6,322.2z"/>
</g>
</svg>
