<?xml version="1.0" encoding="utf-8"?>
<!-- Generator: Adobe Illustrator 18.0.0, SVG Export Plug-In . SVG Version: 6.00 Build 0)  -->
<!DOCTYPE svg PUBLIC "-//W3C//DTD SVG 1.1//EN" "http://www.w3.org/Graphics/SVG/1.1/DTD/svg11.dtd">
<svg version="1.1" id="Layer_1" xmlns="http://www.w3.org/2000/svg" xmlns:xlink="http://www.w3.org/1999/xlink" x="0px" y="0px"
	 viewBox="100 100 200 200" enable-background="new 100 100 200 200" xml:space="preserve">
<g>
	<g>
		<path fill="#FFC708" d="M209,166.2c-4.7,0-7.7,1.4-7.7,2.2c0,0.9,3,2.2,7.7,2.2c4.7,0,7.7-1.3,7.7-2.2
			C216.6,167.5,213.7,166.2,209,166.2z"/>
		<path fill="#FFC708" d="M191.1,184.1c-4.7,0-7.7,1.4-7.7,2.2s3,2.2,7.7,2.2c4.7,0,7.7-1.4,7.7-2.2
			C198.8,185.4,195.8,184.1,191.1,184.1z"/>
		<path fill="#FFC708" d="M173.3,201.1c-4.7,0-7.7,1.4-7.7,2.2c0,0.9,3,2.2,7.7,2.2c4.7,0,7.7-1.4,7.7-2.2
			C181,202.4,177.9,201.1,173.3,201.1z"/>
		<path fill="#FFC708" d="M200,148.6c-28.4,0-51.4,23-51.4,51.4s23,51.4,51.4,51.4c28.4,0,51.4-23,51.4-51.4
			C251.4,171.6,228.4,148.6,200,148.6z M181.5,224.7c0,1.5-3.7,2.8-8.3,2.8c-4.6,0-8.3-1.3-8.3-2.8v-3.4c0,1.5,3.7,2.8,8.3,2.8
			c4.6,0,8.3-1.3,8.3-2.8V224.7z M181.5,218.7c0,1.5-3.7,2.8-8.3,2.8c-4.6,0-8.3-1.3-8.3-2.8v-3.4c0,1.5,3.7,2.8,8.3,2.8
			c4.6,0,8.3-1.3,8.3-2.8V218.7z M181.5,212.7c0,1.5-3.7,2.8-8.3,2.8c-4.6,0-8.3-1.3-8.3-2.8v-3.4c0,1.5,3.7,2.8,8.3,2.8
			c4.6,0,8.3-1.3,8.3-2.8V212.7z M181.5,206.7c0,1.5-3.7,2.8-8.3,2.8c-4.6,0-8.3-1.3-8.3-2.8v-3.4c0-1.5,3.7-2.8,8.3-2.8
			c4.6,0,8.3,1.3,8.3,2.8V206.7z M199.4,218.5c0,1.5-3.7,2.8-8.3,2.8c-4.6,0-8.3-1.3-8.3-2.8v-3.4c0,1.5,3.7,2.8,8.3,2.8
			c4.6,0,8.3-1.3,8.3-2.8V218.5z M199.4,212.8c0,1.5-3.7,2.8-8.3,2.8c-4.6,0-8.3-1.3-8.3-2.8v-3.4c0,1.5,3.7,2.8,8.3,2.8
			c4.6,0,8.3-1.3,8.3-2.8V212.8z M199.4,206.9c0,1.5-3.7,2.8-8.3,2.8c-4.6,0-8.3-1.3-8.3-2.8v-3.4c0,1.5,3.7,2.8,8.3,2.8
			c4.6,0,8.3-1.3,8.3-2.8V206.9z M199.4,201.2c0,1.5-3.7,2.8-8.3,2.8c-4.6,0-8.3-1.3-8.3-2.8v-3.4c0,1.5,3.7,2.8,8.3,2.8
			c4.6,0,8.3-1.3,8.3-2.8V201.2z M199.4,195.4c0,1.5-3.7,2.8-8.3,2.8c-4.6,0-8.3-1.3-8.3-2.8V192c0,1.5,3.7,2.8,8.3,2.8
			c4.6,0,8.3-1.3,8.3-2.8V195.4z M199.4,189.6c0,1.5-3.7,2.8-8.3,2.8c-4.6,0-8.3-1.3-8.3-2.8v-3.4v0.1c0.2-1.5,3.8-2.7,8.2-2.7
			c4.5,0,8.2,1.2,8.2,2.7v-0.1v3.4H199.4z M217.2,212.4c0,1.5-3.7,2.8-8.3,2.8c-4.6,0-8.3-1.3-8.3-2.8v-3.4c0,1.5,3.7,2.8,8.3,2.8
			c4.6,0,8.3-1.3,8.3-2.8V212.4z M217.2,206.5c0,1.5-3.7,2.8-8.3,2.8c-4.6,0-8.3-1.3-8.3-2.8v-3.4c0,1.5,3.7,2.8,8.3,2.8
			c4.6,0,8.3-1.3,8.3-2.8V206.5z M217.2,200.8c0,1.5-3.7,2.8-8.3,2.8c-4.6,0-8.3-1.3-8.3-2.8v-3.4c0,1.5,3.7,2.8,8.3,2.8
			c4.6,0,8.3-1.3,8.3-2.8V200.8z M217.2,195c0,1.5-3.7,2.8-8.3,2.8c-4.5,0-8.2-1.3-8.2-2.8v-3.4c0,1.5,3.7,2.8,8.3,2.8
			c4.6,0,8.3-1.3,8.3-2.8L217.2,195L217.2,195z M217.2,189.2c0,1.5-3.7,2.8-8.3,2.8c-4.6,0-8.3-1.3-8.3-2.8v-3.4
			c0,1.5,3.7,2.8,8.3,2.8c4.6,0,8.3-1.3,8.3-2.8V189.2z M217.2,183.4c0,1.5-3.7,2.8-8.3,2.8c-4.5,0-8.2-1.3-8.2-2.8V180
			c0,1.5,3.7,2.8,8.3,2.8c4.6,0,8.3-1.3,8.3-2.8L217.2,183.4L217.2,183.4z M217.2,177.6c0,1.5-3.7,2.8-8.3,2.8
			c-4.6,0-8.3-1.3-8.3-2.8v-3.4c0,1.5,3.7,2.8,8.3,2.8c4.6,0,8.3-1.3,8.3-2.8V177.6z M217.2,171.8c0,1.5-3.7,2.8-8.3,2.8
			c-4.5,0-8.2-1.3-8.2-2.8v-3.4c0,0.3,0.2,0.6,0.4,0.8c-0.2-0.2-0.4-0.6-0.4-0.8c0-1.5,3.7-2.8,8.3-2.8c4.6,0,8.3,1.3,8.3,2.8
			L217.2,171.8L217.2,171.8z M235,206.1c0,1.5-3.7,2.8-8.3,2.8c-4.6,0-8.3-1.3-8.3-2.8v-3.4c0,1.5,3.7,2.8,8.3,2.8
			c4.6,0,8.3-1.3,8.3-2.8V206.1z M235,200.4c0,1.5-3.7,2.8-8.3,2.8c-4.6,0-8.3-1.3-8.3-2.8v-3.4c0,1.5,3.7,2.8,8.3,2.8
			c4.6,0,8.3-1.3,8.3-2.8V200.4z M235,194.6c0,1.5-3.7,2.8-8.3,2.8c-4.6,0-8.3-1.3-8.3-2.8v-3.4c0,1.5,3.7,2.8,8.3,2.8
			c4.6,0,8.3-1.3,8.3-2.8V194.6z M235,188.8c0,1.5-3.7,2.8-8.3,2.8c-4.6,0-8.3-1.3-8.3-2.8v-3.4c0,1.5,3.7,2.8,8.3,2.8
			c4.6,0,8.3-1.3,8.3-2.8V188.8z M235,183c0,1.5-3.7,2.8-8.3,2.8c-4.6,0-8.3-1.3-8.3-2.8v-3.4c0,1.5,3.7,2.8,8.3,2.8
			c4.6,0,8.3-1.3,8.3-2.8V183z M235,177.2c0,1.5-3.7,2.8-8.3,2.8c-4.6,0-8.3-1.3-8.3-2.8v-3.4v0.1c0.2-1.5,3.8-2.7,8.2-2.7
			c4.5,0,8.2,1.2,8.2,2.7v-0.1v3.4H235z"/>
		<path fill="#FFC708" d="M226.8,171.7c-4.7,0-7.7,1.4-7.7,2.2c0,0.9,3,2.2,7.7,2.2c4.7,0,7.7-1.3,7.7-2.2
			C234.5,173.1,231.5,171.7,226.8,171.7z"/>
	</g>
</g>
</svg>
