<?xml version="1.0" encoding="utf-8"?>
<!-- Generator: Adobe Illustrator 18.0.0, SVG Export Plug-In . SVG Version: 6.00 Build 0)  -->
<!DOCTYPE svg PUBLIC "-//W3C//DTD SVG 1.1//EN" "http://www.w3.org/Graphics/SVG/1.1/DTD/svg11.dtd">
<svg version="1.1" id="Layer_1" xmlns="http://www.w3.org/2000/svg" xmlns:xlink="http://www.w3.org/1999/xlink" x="0px" y="0px"
	 viewBox="0 0 500 152.8" enable-background="new 0 0 500 152.8" xml:space="preserve">
<g>
	<g>
		<path fill="#FFC708" d="M94.4,34c-5.9,0-9.6,1.7-9.6,2.8c0,1.1,3.8,2.8,9.6,2.8c5.9,0,9.6-1.6,9.6-2.8C104,35.6,100.3,34,94.4,34z
			"/>
		<path fill="#FFC708" d="M72.1,56.4c-5.9,0-9.6,1.7-9.6,2.8c0,1.1,3.8,2.8,9.6,2.8c5.9,0,9.6-1.7,9.6-2.8
			C81.7,58,78,56.4,72.1,56.4z"/>
		<path fill="#FFC708" d="M49.8,77.6c-5.9,0-9.6,1.7-9.6,2.8c0,1.1,3.8,2.8,9.6,2.8c5.9,0,9.6-1.7,9.6-2.8
			C59.4,79.2,55.6,77.6,49.8,77.6z"/>
		<path fill="#FFC708" d="M83.2,12C47.7,12,19,40.8,19,76.3c0,35.5,28.8,64.2,64.2,64.2c35.5,0,64.2-28.8,64.2-64.2
			C147.5,40.8,118.7,12,83.2,12z M60.1,107.1c0,1.9-4.6,3.5-10.4,3.5c-5.7,0-10.4-1.6-10.4-3.5v-4.3c0,1.9,4.6,3.5,10.4,3.5
			c5.7,0,10.4-1.6,10.4-3.5V107.1z M60.1,99.6c0,1.9-4.6,3.5-10.4,3.5c-5.7,0-10.4-1.6-10.4-3.5v-4.3c0,1.9,4.6,3.5,10.4,3.5
			c5.7,0,10.4-1.6,10.4-3.5V99.6z M60.1,92.1c0,1.9-4.6,3.5-10.4,3.5c-5.7,0-10.4-1.6-10.4-3.5v-4.3c0,1.9,4.6,3.5,10.4,3.5
			c5.7,0,10.4-1.6,10.4-3.5V92.1z M60.1,84.6c0,1.9-4.6,3.5-10.4,3.5c-5.7,0-10.4-1.6-10.4-3.5v-4.3c0-1.9,4.6-3.5,10.4-3.5
			c5.7,0,10.4,1.6,10.4,3.5V84.6z M82.4,99.4c0,1.9-4.6,3.5-10.4,3.5c-5.7,0-10.4-1.6-10.4-3.5v-4.3c0,1.9,4.6,3.5,10.4,3.5
			c5.7,0,10.4-1.6,10.4-3.5V99.4z M82.4,92.2c0,1.9-4.6,3.5-10.4,3.5c-5.7,0-10.4-1.6-10.4-3.5v-4.3c0,1.9,4.6,3.5,10.4,3.5
			c5.7,0,10.4-1.6,10.4-3.5V92.2z M82.4,84.9c0,1.9-4.6,3.5-10.4,3.5c-5.7,0-10.4-1.6-10.4-3.5v-4.3c0,1.9,4.6,3.5,10.4,3.5
			c5.7,0,10.4-1.6,10.4-3.5V84.9z M82.4,77.7c0,1.9-4.6,3.5-10.4,3.5c-5.7,0-10.4-1.6-10.4-3.5v-4.3c0,1.9,4.6,3.5,10.4,3.5
			c5.7,0,10.4-1.6,10.4-3.5V77.7z M82.4,70.5c0,1.9-4.6,3.5-10.4,3.5c-5.7,0-10.4-1.6-10.4-3.5v-4.3c0,1.9,4.6,3.5,10.4,3.5
			c5.7,0,10.4-1.6,10.4-3.5V70.5z M82.4,63.2c0,1.9-4.6,3.5-10.4,3.5c-5.7,0-10.4-1.6-10.4-3.5V59c0,0,0,0.1,0,0.1
			c0.2-1.9,4.7-3.4,10.3-3.4c5.6,0,10.2,1.5,10.3,3.4c0,0,0-0.1,0-0.1V63.2z M104.7,91.7c0,1.9-4.6,3.5-10.4,3.5
			c-5.7,0-10.4-1.6-10.4-3.5v-4.3c0,1.9,4.6,3.5,10.4,3.5c5.7,0,10.4-1.6,10.4-3.5V91.7z M104.7,84.4c0,1.9-4.6,3.5-10.4,3.5
			c-5.7,0-10.4-1.6-10.4-3.5v-4.3c0,1.9,4.6,3.5,10.4,3.5c5.7,0,10.4-1.6,10.4-3.5V84.4z M104.7,77.2c0,1.9-4.6,3.5-10.4,3.5
			c-5.7,0-10.4-1.6-10.4-3.5v-4.3c0,1.9,4.6,3.5,10.4,3.5c5.7,0,10.4-1.6,10.4-3.5V77.2z M104.7,70c0,1.9-4.6,3.5-10.4,3.5
			C88.7,73.5,84,71.9,84,70v-4.3c0,1.9,4.6,3.5,10.4,3.5c5.7,0,10.4-1.6,10.4-3.5V70z M104.7,62.7c0,1.9-4.6,3.5-10.4,3.5
			c-5.7,0-10.4-1.6-10.4-3.5v-4.3c0,1.9,4.6,3.5,10.4,3.5c5.7,0,10.4-1.6,10.4-3.5V62.7z M104.7,55.5c0,1.9-4.6,3.5-10.4,3.5
			C88.7,59,84,57.4,84,55.5v-4.3c0,1.9,4.6,3.5,10.4,3.5c5.7,0,10.4-1.6,10.4-3.5V55.5z M104.7,48.3c0,1.9-4.6,3.5-10.4,3.5
			c-5.7,0-10.4-1.6-10.4-3.5V44c0,1.9,4.6,3.5,10.4,3.5c5.7,0,10.4-1.6,10.4-3.5V48.3z M104.7,41c0,1.9-4.6,3.5-10.4,3.5
			C88.7,44.5,84,42.9,84,41v-4.3c0,0.4,0.2,0.7,0.5,1c-0.3-0.3-0.5-0.7-0.5-1c0-1.9,4.6-3.5,10.4-3.5c5.7,0,10.4,1.6,10.4,3.5V41z
			 M127,83.9c0,1.9-4.6,3.5-10.4,3.5c-5.7,0-10.4-1.6-10.4-3.5v-4.3c0,1.9,4.6,3.5,10.4,3.5c5.7,0,10.4-1.6,10.4-3.5V83.9z
			 M127,76.7c0,1.9-4.6,3.5-10.4,3.5c-5.7,0-10.4-1.6-10.4-3.5v-4.3c0,1.9,4.6,3.5,10.4,3.5c5.7,0,10.4-1.6,10.4-3.5V76.7z
			 M127,69.5c0,1.9-4.6,3.5-10.4,3.5c-5.7,0-10.4-1.6-10.4-3.5v-4.3c0,1.9,4.6,3.5,10.4,3.5c5.7,0,10.4-1.6,10.4-3.5V69.5z
			 M127,62.2c0,1.9-4.6,3.5-10.4,3.5c-5.7,0-10.4-1.6-10.4-3.5V58c0,1.9,4.6,3.5,10.4,3.5c5.7,0,10.4-1.6,10.4-3.5V62.2z M127,55
			c0,1.9-4.6,3.5-10.4,3.5c-5.7,0-10.4-1.6-10.4-3.5v-4.3c0,1.9,4.6,3.5,10.4,3.5c5.7,0,10.4-1.6,10.4-3.5V55z M127,47.8
			c0,1.9-4.6,3.5-10.4,3.5c-5.7,0-10.4-1.6-10.4-3.5v-4.3c0,0,0,0.1,0,0.1c0.2-1.9,4.7-3.4,10.3-3.4c5.6,0,10.2,1.5,10.3,3.4
			c0,0,0-0.1,0-0.1V47.8z"/>
		<path fill="#FFC708" d="M116.7,40.9c-5.9,0-9.6,1.7-9.6,2.8c0,1.1,3.8,2.8,9.6,2.8c5.9,0,9.6-1.6,9.6-2.8
			C126.3,42.6,122.6,40.9,116.7,40.9z"/>
	</g>
	<g>
		<g>
			<g>
				<path fill="#FFC708" d="M198.7,82.7v6.8c0,8.1-4.1,12.8-11.9,12.8c-7.9,0-11.9-4.7-11.9-12.8V62.9c0-8.2,4.1-12.8,11.9-12.8
					c7.9,0,11.9,4.7,11.9,12.8v5h-7.6v-5.5c0-3.6-1.6-5-4.1-5c-2.5,0-4.1,1.4-4.1,5v27.5c0,3.6,1.6,5,4.1,5c2.5,0,4.1-1.3,4.1-5
					v-7.3H198.7z"/>
				<path fill="#FFC708" d="M208.4,62.9c0-8.2,4.3-12.8,12.2-12.8c7.9,0,12.2,4.7,12.2,12.8v26.5c0,8.1-4.3,12.8-12.2,12.8
					c-7.9,0-12.2-4.7-12.2-12.8V62.9z M216.4,89.9c0,3.6,1.6,5,4.1,5c2.6,0,4.2-1.4,4.2-5V62.4c0-3.6-1.6-5-4.2-5
					c-2.6,0-4.1,1.4-4.1,5V89.9z"/>
				<path fill="#FFC708" d="M243.4,50.7h8v50.9h-8V50.7z"/>
				<path fill="#FFC708" d="M269.8,64.8v36.9h-7.2V50.7h10l8.2,30.5V50.7h7.1v50.9h-8.2L269.8,64.8z"/>
				<path fill="#FFC708" d="M347.5,82.7v6.8c0,8.1-4.1,12.8-11.9,12.8c-7.9,0-11.9-4.7-11.9-12.8V62.9c0-8.2,4.1-12.8,11.9-12.8
					c7.9,0,11.9,4.7,11.9,12.8v5h-7.6v-5.5c0-3.6-1.6-5-4.1-5c-2.5,0-4.1,1.4-4.1,5v27.5c0,3.6,1.6,5,4.1,5c2.5,0,4.1-1.3,4.1-5
					v-7.3H347.5z"/>
				<path fill="#FFC708" d="M374.6,101.7c-0.4-1.3-0.7-2.1-0.7-6.3v-8c0-4.7-1.6-6.5-5.2-6.5h-2.8v20.7h-8V50.7h12.1
					c8.3,0,11.9,3.9,11.9,11.7v4c0,5.2-1.7,8.7-5.2,10.3c4,1.7,5.3,5.5,5.3,10.8v7.9c0,2.5,0.1,4.3,0.9,6.2H374.6z M365.8,58v15.6
					h3.1c3,0,4.8-1.3,4.8-5.4v-5c0-3.6-1.2-5.2-4.1-5.2H365.8z"/>
				<path fill="#FFC708" d="M400,85.8l-2.2,15.8h-7.3l8.1-50.9h11.7l8.2,50.9h-8.1L408,85.8 M408,85.8l-8.1,0 M401,78.9l5.9,0
					 M406.9,78.9L404,59.7L401,78.9"/>
				<path fill="#FFC708" d="M435.6,73.3H446v7.3h-10.3v21h-8V50.7h21.2V58h-13.2V73.3z"/>
				<path fill="#FFC708" d="M455.8,50.7h24.7V58h-8.4v43.7h-8V58h-8.4V50.7z"/>
			</g>
			<g>
				<path fill="#FFC708" d="M306.1,71.9c5.8,0,8.8,1.6,8.8,2.4c0,0.7-3,2.3-8.8,2.3c-5.8,0-8.8-1.6-8.8-2.3
					C297.3,73.6,300.3,71.9,306.1,71.9 M306.1,71c-5.4,0-9.7,1.5-9.7,3.3c0,1.8,4.3,3.3,9.7,3.3c5.4,0,9.7-1.5,9.7-3.3
					C315.8,72.5,311.4,71,306.1,71L306.1,71z"/>
			</g>
			<path fill="#FFC708" d="M315.8,78.1v-4c0,1.8-4.3,3.3-9.7,3.3c-5.4,0-9.7-1.5-9.7-3.3v4c0,1.8,4.3,3.3,9.7,3.3
				C311.4,81.4,315.8,79.9,315.8,78.1z"/>
		</g>
	</g>
</g>
</svg>
