<?xml version="1.0" encoding="utf-8"?>
<!-- Generator: Adobe Illustrator 18.0.0, SVG Export Plug-In . SVG Version: 6.00 Build 0)  -->
<!DOCTYPE svg PUBLIC "-//W3C//DTD SVG 1.1//EN" "http://www.w3.org/Graphics/SVG/1.1/DTD/svg11.dtd">
<svg version="1.1" id="Layer_1" xmlns="http://www.w3.org/2000/svg" xmlns:xlink="http://www.w3.org/1999/xlink" x="0px" y="0px"
	 viewBox="0 0 400 150" enable-background="new 0 0 400 150" xml:space="preserve">
<g>
	<g>
		<g>
			<g>
				<path fill="#D3D3D3" d="M185.5,18.2h-1.6l-6.4-9.8h-0.1c0.1,1.2,0.1,2.2,0.1,3.2v6.7h-1.3V6.5h1.5l6.4,9.8h0.1
					c0-0.1,0-0.6-0.1-1.4s-0.1-1.3,0-1.7V6.5h1.3V18.2z"/>
				<path fill="#D3D3D3" d="M196.1,13.8c0,1.4-0.4,2.6-1.1,3.4s-1.7,1.2-3,1.2c-0.8,0-1.5-0.2-2.1-0.6s-1.1-0.9-1.4-1.6
					s-0.5-1.5-0.5-2.4c0-1.4,0.4-2.6,1.1-3.3c0.7-0.8,1.7-1.2,3-1.2c1.2,0,2.2,0.4,2.9,1.2S196.1,12.4,196.1,13.8z M189.4,13.8
					c0,1.1,0.2,2,0.7,2.6c0.4,0.6,1.1,0.9,2,0.9s1.5-0.3,2-0.9c0.5-0.6,0.7-1.4,0.7-2.6c0-1.1-0.2-2-0.7-2.5c-0.5-0.6-1.1-0.9-2-0.9
					c-0.9,0-1.5,0.3-2,0.9S189.4,12.7,189.4,13.8z"/>
				<path fill="#D3D3D3" d="M200.4,18.2L197,9.4h1.4l1.9,5.2c0.4,1.2,0.7,2,0.8,2.4h0.1c0.1-0.3,0.2-0.9,0.6-1.8
					c0.3-0.9,1-2.8,2.1-5.8h1.4l-3.3,8.8H200.4z"/>
				<path fill="#D3D3D3" d="M210.4,18.4c-1.3,0-2.3-0.4-3.1-1.2c-0.8-0.8-1.1-1.9-1.1-3.3c0-1.4,0.3-2.5,1-3.4
					c0.7-0.8,1.6-1.3,2.8-1.3c1.1,0,2,0.4,2.6,1.1c0.6,0.7,1,1.7,1,2.9v0.8h-6.1c0,1,0.3,1.8,0.8,2.4c0.5,0.5,1.2,0.8,2.1,0.8
					c0.9,0,1.9-0.2,2.8-0.6v1.2c-0.5,0.2-0.9,0.3-1.3,0.4C211.5,18.4,211,18.4,210.4,18.4z M210,10.4c-0.7,0-1.3,0.2-1.7,0.7
					c-0.4,0.5-0.7,1.1-0.7,1.9h4.6c0-0.8-0.2-1.5-0.6-1.9C211.2,10.6,210.7,10.4,210,10.4z"/>
				<path fill="#D3D3D3" d="M227.1,18.2v-5.7c0-0.7-0.2-1.2-0.4-1.6c-0.3-0.4-0.8-0.5-1.4-0.5c-0.8,0-1.4,0.2-1.8,0.7
					c-0.4,0.5-0.6,1.2-0.6,2.2v4.9h-1.3v-5.7c0-0.7-0.1-1.2-0.4-1.6c-0.3-0.4-0.8-0.5-1.4-0.5c-0.8,0-1.4,0.2-1.8,0.8
					c-0.4,0.5-0.6,1.3-0.6,2.5v4.6h-1.3V9.4h1.1l0.2,1.2h0.1c0.3-0.4,0.6-0.8,1.1-1s1-0.4,1.5-0.4c1.4,0,2.3,0.5,2.7,1.5h0.1
					c0.3-0.5,0.6-0.8,1.1-1.1s1.1-0.4,1.7-0.4c1,0,1.7,0.3,2.2,0.8c0.5,0.5,0.7,1.3,0.7,2.5v5.7H227.1z"/>
				<path fill="#D3D3D3" d="M235.3,9.3c1.2,0,2.1,0.4,2.7,1.2c0.6,0.8,1,1.9,1,3.3c0,1.4-0.3,2.6-1,3.4c-0.6,0.8-1.5,1.2-2.7,1.2
					c-0.6,0-1.1-0.1-1.6-0.3c-0.5-0.2-0.9-0.5-1.2-1h-0.1l-0.3,1.1h-1V5.8h1.3v3c0,0.7,0,1.3-0.1,1.8h0.1
					C233.1,9.7,234,9.3,235.3,9.3z M235.1,10.4c-0.9,0-1.6,0.3-2,0.8s-0.6,1.4-0.6,2.6c0,1.2,0.2,2.1,0.6,2.7s1.1,0.8,2,0.8
					c0.8,0,1.4-0.3,1.8-0.9c0.4-0.6,0.6-1.5,0.6-2.6c0-1.1-0.2-2-0.6-2.6C236.5,10.7,235.9,10.4,235.1,10.4z"/>
				<path fill="#D3D3D3" d="M244.9,18.4c-1.3,0-2.3-0.4-3.1-1.2c-0.8-0.8-1.1-1.9-1.1-3.3c0-1.4,0.3-2.5,1-3.4
					c0.7-0.8,1.6-1.3,2.8-1.3c1.1,0,2,0.4,2.6,1.1c0.6,0.7,1,1.7,1,2.9v0.8h-6.1c0,1,0.3,1.8,0.8,2.4c0.5,0.5,1.2,0.8,2.1,0.8
					c0.9,0,1.9-0.2,2.8-0.6v1.2c-0.5,0.2-0.9,0.3-1.3,0.4C246,18.4,245.5,18.4,244.9,18.4z M244.6,10.4c-0.7,0-1.3,0.2-1.7,0.7
					c-0.4,0.5-0.7,1.1-0.7,1.9h4.6c0-0.8-0.2-1.5-0.6-1.9C245.8,10.6,245.3,10.4,244.6,10.4z"/>
				<path fill="#D3D3D3" d="M254.5,9.3c0.4,0,0.7,0,1.1,0.1l-0.2,1.2c-0.4-0.1-0.7-0.1-1-0.1c-0.7,0-1.3,0.3-1.8,0.9
					s-0.8,1.3-0.8,2.2v4.7h-1.3V9.4h1.1l0.2,1.6h0.1c0.3-0.6,0.7-1,1.2-1.3C253.4,9.4,253.9,9.3,254.5,9.3z"/>
			</g>
			<polygon fill="#D3D3D3" points="271.7,7.5 281.6,13.2 271.7,18.9 			"/>
			<polygon fill="#D3D3D3" points="156.1,18.9 146.2,13.2 156.1,7.5 			"/>
		</g>
		<g>
			<path fill="#989898" d="M313.9,127.9h-26.1c-1.1,0-2.1-0.9-2.1-2.1v-0.3c0-1.1,0.9-2.1,2.1-2.1h26.1c1.1,0,2.1,0.9,2.1,2.1v0.3
				C315.9,126.9,315,127.9,313.9,127.9z"/>
			<path fill="#FFCB05" d="M286.4,127.9H125c-1.1,0-2.1-0.9-2.1-2.1v-0.3c0-1.1,0.9-2.1,2.1-2.1h161.3c1.1,0,2.1,0.9,2.1,2.1v0.3
				C288.4,126.9,287.5,127.9,286.4,127.9z"/>
			<g>
				<path fill="#FFFFFF" d="M286.7,131.8c-3.4,0-6.1-2.8-6.1-6.1s2.8-6.1,6.1-6.1s6.1,2.8,6.1,6.1S290.1,131.8,286.7,131.8z"/>
				<path fill="#787878" d="M286.7,121c2.6,0,4.6,2.1,4.6,4.6s-2.1,4.6-4.6,4.6c-2.6,0-4.6-2.1-4.6-4.6S284.1,121,286.7,121
					 M286.7,118c-4.2,0-7.6,3.4-7.6,7.6s3.4,7.6,7.6,7.6s7.6-3.4,7.6-7.6S290.9,118,286.7,118L286.7,118z"/>
			</g>
			<g>
				<path fill="#D3D3D3" d="M6.7,122.7c0,0.7-0.3,1.3-0.8,1.7c-0.5,0.4-1.2,0.6-2.1,0.6c-0.9,0-1.6-0.1-2.2-0.4v-1.2
					c0.4,0.2,0.7,0.3,1.2,0.4s0.8,0.1,1.1,0.1c0.5,0,0.9-0.1,1.1-0.3c0.2-0.2,0.4-0.5,0.4-0.8c0-0.3-0.1-0.5-0.3-0.8
					s-0.7-0.5-1.4-0.7c-0.7-0.3-1.2-0.6-1.5-1c-0.3-0.4-0.4-0.8-0.4-1.4c0-0.7,0.2-1.2,0.7-1.6s1.1-0.6,1.9-0.6
					c0.8,0,1.5,0.2,2.3,0.5l-0.4,1.1c-0.7-0.3-1.3-0.4-1.9-0.4c-0.4,0-0.7,0.1-1,0.3c-0.2,0.2-0.3,0.4-0.3,0.7c0,0.2,0,0.4,0.1,0.5
					c0.1,0.1,0.2,0.3,0.4,0.4c0.2,0.1,0.6,0.3,1.1,0.5c0.6,0.2,1,0.5,1.3,0.7c0.3,0.2,0.5,0.4,0.6,0.7S6.7,122.3,6.7,122.7z"/>
				<path fill="#D3D3D3" d="M7.2,118.8h1.4l1.2,3.4c0.2,0.5,0.3,0.9,0.4,1.4h0c0-0.2,0.1-0.4,0.2-0.7c0.1-0.3,0.5-1.6,1.4-4.1h1.4
					l-2.6,6.8c-0.5,1.3-1.2,1.9-2.3,1.9c-0.3,0-0.6,0-0.8-0.1v-1c0.2,0,0.4,0.1,0.7,0.1c0.6,0,1.1-0.4,1.3-1.1l0.2-0.6L7.2,118.8z"
					/>
				<path fill="#D3D3D3" d="M16.1,125c-0.8,0-1.3-0.3-1.8-0.8c-0.4-0.5-0.6-1.3-0.6-2.3c0-1,0.2-1.8,0.6-2.3c0.4-0.5,1-0.8,1.8-0.8
					c0.8,0,1.4,0.3,1.8,0.9H18c-0.1-0.4-0.1-0.8-0.1-1v-2.2h1.3v8.5h-1l-0.2-0.8H18C17.5,124.7,16.9,125,16.1,125z M16.5,123.9
					c0.5,0,0.9-0.1,1.1-0.4c0.2-0.3,0.4-0.8,0.4-1.4v-0.2c0-0.8-0.1-1.3-0.4-1.6c-0.2-0.3-0.6-0.5-1.2-0.5c-0.5,0-0.8,0.2-1,0.5
					c-0.2,0.4-0.4,0.9-0.4,1.6c0,0.7,0.1,1.2,0.4,1.5C15.7,123.8,16,123.9,16.5,123.9z"/>
				<path fill="#D3D3D3" d="M26.4,124.9h-1.3v-3.7c0-0.5-0.1-0.8-0.3-1c-0.2-0.2-0.5-0.3-0.9-0.3c-0.5,0-0.9,0.2-1.2,0.5
					c-0.2,0.3-0.4,0.9-0.4,1.6v3h-1.3v-6h1l0.2,0.8h0.1c0.2-0.3,0.4-0.5,0.8-0.7s0.7-0.2,1.1-0.2c1.4,0,2.2,0.7,2.2,2.2V124.9z"/>
				<path fill="#D3D3D3" d="M30.8,125c-0.9,0-1.7-0.3-2.2-0.8c-0.5-0.5-0.8-1.3-0.8-2.3c0-1,0.2-1.8,0.7-2.3c0.5-0.6,1.2-0.8,2-0.8
					c0.8,0,1.4,0.2,1.9,0.7c0.5,0.5,0.7,1.1,0.7,2v0.7h-4c0,0.6,0.2,1,0.5,1.3c0.3,0.3,0.7,0.5,1.3,0.5c0.4,0,0.7,0,1-0.1
					c0.3-0.1,0.6-0.2,1-0.3v1c-0.3,0.1-0.6,0.3-0.9,0.3S31.2,125,30.8,125z M30.5,119.7c-0.4,0-0.7,0.1-1,0.4
					c-0.2,0.3-0.4,0.6-0.4,1.1h2.7c0-0.5-0.1-0.9-0.4-1.1S30.9,119.7,30.5,119.7z"/>
				<path fill="#D3D3D3" d="M33.7,118.8H35l1.2,3.4c0.2,0.5,0.3,0.9,0.4,1.4h0c0-0.2,0.1-0.4,0.2-0.7c0.1-0.3,0.5-1.6,1.4-4.1h1.4
					l-2.6,6.8c-0.5,1.3-1.2,1.9-2.3,1.9c-0.3,0-0.6,0-0.8-0.1v-1c0.2,0,0.4,0.1,0.7,0.1c0.6,0,1.1-0.4,1.3-1.1l0.2-0.6L33.7,118.8z"
					/>
				<path fill="#D3D3D3" d="M50.6,120.9c0,1.3-0.3,2.3-1,3c-0.6,0.7-1.6,1.1-2.8,1.1c-1.2,0-2.1-0.4-2.8-1.1s-1-1.7-1-3
					c0-1.3,0.3-2.3,1-3s1.6-1.1,2.8-1.1c1.2,0,2.1,0.4,2.7,1.1S50.6,119.6,50.6,120.9z M44.6,120.9c0,1,0.2,1.7,0.6,2.2
					c0.4,0.5,1,0.8,1.8,0.8c0.8,0,1.4-0.2,1.8-0.8c0.4-0.5,0.6-1.2,0.6-2.2c0-1-0.2-1.7-0.6-2.2c-0.4-0.5-1-0.8-1.7-0.8
					c-0.8,0-1.4,0.3-1.8,0.8C44.8,119.1,44.6,119.9,44.6,120.9z"/>
				<path fill="#D3D3D3" d="M55.3,125c-0.8,0-1.4-0.3-1.8-0.8h-0.1c0.1,0.5,0.1,0.8,0.1,0.9v2.5h-1.3v-8.7h1c0,0.1,0.1,0.4,0.2,0.8
					h0.1c0.4-0.6,1-0.9,1.8-0.9c0.8,0,1.3,0.3,1.8,0.8c0.4,0.5,0.6,1.3,0.6,2.3s-0.2,1.8-0.6,2.3C56.6,124.7,56,125,55.3,125z
					 M55,119.8c-0.5,0-0.9,0.1-1.1,0.4c-0.2,0.3-0.4,0.8-0.4,1.4v0.2c0,0.7,0.1,1.3,0.3,1.6c0.2,0.3,0.6,0.5,1.1,0.5
					c0.4,0,0.8-0.2,1-0.5c0.2-0.4,0.4-0.9,0.4-1.6c0-0.7-0.1-1.2-0.4-1.5C55.8,119.9,55.4,119.8,55,119.8z"/>
				<path fill="#D3D3D3" d="M61.8,125c-0.9,0-1.7-0.3-2.2-0.8c-0.5-0.5-0.8-1.3-0.8-2.3c0-1,0.2-1.8,0.7-2.3c0.5-0.6,1.2-0.8,2-0.8
					c0.8,0,1.4,0.2,1.9,0.7c0.5,0.5,0.7,1.1,0.7,2v0.7h-4c0,0.6,0.2,1,0.5,1.3c0.3,0.3,0.7,0.5,1.3,0.5c0.4,0,0.7,0,1-0.1
					c0.3-0.1,0.6-0.2,1-0.3v1c-0.3,0.1-0.6,0.3-0.9,0.3S62.2,125,61.8,125z M61.6,119.7c-0.4,0-0.7,0.1-1,0.4
					c-0.2,0.3-0.4,0.6-0.4,1.1h2.7c0-0.5-0.1-0.9-0.4-1.1S62,119.7,61.6,119.7z"/>
				<path fill="#D3D3D3" d="M68.6,118.7c0.3,0,0.5,0,0.6,0.1l-0.1,1.2c-0.2,0-0.4-0.1-0.6-0.1c-0.5,0-0.9,0.2-1.2,0.5
					c-0.3,0.3-0.5,0.8-0.5,1.3v3.1h-1.3v-6h1l0.2,1.1h0.1c0.2-0.4,0.5-0.6,0.8-0.9C67.9,118.8,68.3,118.7,68.6,118.7z"/>
				<path fill="#D3D3D3" d="M74.2,124.9l-0.3-0.8h0c-0.3,0.4-0.6,0.6-0.9,0.7s-0.7,0.2-1.1,0.2c-0.6,0-1.1-0.2-1.4-0.5
					c-0.3-0.3-0.5-0.8-0.5-1.4c0-0.6,0.2-1.1,0.7-1.4c0.5-0.3,1.2-0.5,2.1-0.5l1,0v-0.3c0-0.4-0.1-0.7-0.3-0.9s-0.5-0.3-0.8-0.3
					c-0.3,0-0.6,0-0.9,0.1s-0.6,0.2-0.8,0.3l-0.4-0.9c0.3-0.2,0.7-0.3,1.1-0.4c0.4-0.1,0.8-0.1,1.1-0.1c0.8,0,1.3,0.2,1.7,0.5
					s0.6,0.9,0.6,1.6v4.1H74.2z M72.3,124c0.5,0,0.8-0.1,1.1-0.4c0.3-0.3,0.4-0.6,0.4-1.1V122l-0.8,0c-0.6,0-1,0.1-1.3,0.3
					c-0.3,0.2-0.4,0.5-0.4,0.8c0,0.3,0.1,0.5,0.2,0.6C71.7,123.9,71.9,124,72.3,124z"/>
				<path fill="#D3D3D3" d="M86.2,124.9h-1.3v-3.6h-3.7v3.6h-1.3v-8h1.3v3.3h3.7v-3.3h1.3V124.9z"/>
				<path fill="#D3D3D3" d="M93.5,121.8c0,1-0.3,1.8-0.8,2.3c-0.5,0.6-1.2,0.8-2.1,0.8c-0.6,0-1.1-0.1-1.5-0.4s-0.8-0.6-1-1.1
					c-0.2-0.5-0.3-1-0.3-1.7c0-1,0.3-1.7,0.8-2.3s1.2-0.8,2.1-0.8c0.9,0,1.6,0.3,2.1,0.8C93.2,120.1,93.5,120.9,93.5,121.8z
					 M89.1,121.8c0,1.4,0.5,2.1,1.5,2.1c1,0,1.5-0.7,1.5-2.1c0-1.4-0.5-2.1-1.5-2.1c-0.5,0-0.9,0.2-1.2,0.5
					C89.2,120.7,89.1,121.2,89.1,121.8z"/>
				<path fill="#D3D3D3" d="M99.2,124.9l-0.2-0.8h-0.1c-0.2,0.3-0.4,0.5-0.8,0.7c-0.3,0.2-0.7,0.2-1.1,0.2c-0.7,0-1.3-0.2-1.6-0.5
					s-0.5-0.9-0.5-1.6v-3.9h1.3v3.7c0,0.5,0.1,0.8,0.3,1c0.2,0.2,0.5,0.3,0.9,0.3c0.5,0,0.9-0.2,1.2-0.5c0.3-0.3,0.4-0.9,0.4-1.6v-3
					h1.3v6H99.2z"/>
				<path fill="#D3D3D3" d="M106.1,123.1c0,0.6-0.2,1-0.6,1.4c-0.4,0.3-1,0.5-1.8,0.5c-0.8,0-1.4-0.1-1.9-0.4v-1.1
					c0.7,0.3,1.4,0.5,2,0.5c0.8,0,1.2-0.2,1.2-0.7c0-0.2,0-0.3-0.1-0.4c-0.1-0.1-0.2-0.2-0.4-0.3c-0.2-0.1-0.5-0.2-0.8-0.4
					c-0.7-0.3-1.2-0.5-1.4-0.8s-0.4-0.6-0.4-1c0-0.5,0.2-0.9,0.6-1.2c0.4-0.3,1-0.4,1.7-0.4c0.7,0,1.4,0.1,2,0.4l-0.4,1
					c-0.6-0.3-1.2-0.4-1.6-0.4c-0.7,0-1,0.2-1,0.6c0,0.2,0.1,0.3,0.3,0.5c0.2,0.1,0.6,0.3,1.2,0.5c0.5,0.2,0.9,0.4,1.1,0.5
					c0.2,0.2,0.4,0.3,0.5,0.6C106,122.6,106.1,122.8,106.1,123.1z"/>
				<path fill="#D3D3D3" d="M110.1,125c-0.9,0-1.7-0.3-2.2-0.8c-0.5-0.5-0.8-1.3-0.8-2.3c0-1,0.2-1.8,0.7-2.3c0.5-0.6,1.2-0.8,2-0.8
					c0.8,0,1.4,0.2,1.9,0.7c0.5,0.5,0.7,1.1,0.7,2v0.7h-4c0,0.6,0.2,1,0.5,1.3c0.3,0.3,0.7,0.5,1.3,0.5c0.4,0,0.7,0,1-0.1
					c0.3-0.1,0.6-0.2,1-0.3v1c-0.3,0.1-0.6,0.3-0.9,0.3S110.5,125,110.1,125z M109.8,119.7c-0.4,0-0.7,0.1-1,0.4
					c-0.2,0.3-0.4,0.6-0.4,1.1h2.7c0-0.5-0.1-0.9-0.4-1.1S110.2,119.7,109.8,119.7z"/>
				<path fill="#D3D3D3" d="M56.6,131.7c0,1-0.3,1.7-0.8,2.2c-0.5,0.5-1.3,0.8-2.3,0.8h-1.6v-5.9h1.8c0.9,0,1.7,0.3,2.2,0.8
					C56.4,130.1,56.6,130.8,56.6,131.7z M55.6,131.8c0-1.4-0.7-2.1-2-2.1h-0.8v4.3h0.7C54.9,133.9,55.6,133.2,55.6,131.8z"/>
				<path fill="#D3D3D3" d="M61.7,132.5c0,0.7-0.2,1.3-0.6,1.7c-0.4,0.4-0.9,0.6-1.6,0.6c-0.4,0-0.8-0.1-1.1-0.3
					c-0.3-0.2-0.6-0.5-0.7-0.8c-0.2-0.4-0.3-0.8-0.3-1.2c0-0.7,0.2-1.3,0.6-1.7c0.4-0.4,0.9-0.6,1.6-0.6c0.6,0,1.1,0.2,1.5,0.6
					S61.7,131.8,61.7,132.5z M58.5,132.5c0,1,0.4,1.5,1.1,1.5c0.7,0,1.1-0.5,1.1-1.5c0-1-0.4-1.5-1.1-1.5c-0.4,0-0.7,0.1-0.9,0.4
					C58.6,131.6,58.5,132,58.5,132.5z"/>
				<path fill="#D3D3D3" d="M64.6,134.8c-0.7,0-1.2-0.2-1.5-0.6c-0.3-0.4-0.5-1-0.5-1.7c0-0.7,0.2-1.3,0.5-1.7
					c0.4-0.4,0.9-0.6,1.6-0.6c0.5,0,0.9,0.1,1.3,0.3l-0.3,0.8c-0.4-0.2-0.7-0.2-1-0.2c-0.8,0-1.2,0.5-1.2,1.5c0,0.5,0.1,0.9,0.3,1.1
					c0.2,0.2,0.5,0.4,0.8,0.4c0.4,0,0.8-0.1,1.2-0.3v0.8c-0.2,0.1-0.3,0.2-0.5,0.2C65.1,134.8,64.9,134.8,64.6,134.8z"/>
				<path fill="#D3D3D3" d="M70,134.7l-0.1-0.6h0c-0.1,0.2-0.3,0.4-0.6,0.5c-0.2,0.1-0.5,0.2-0.8,0.2c-0.5,0-0.9-0.1-1.2-0.4
					c-0.3-0.3-0.4-0.7-0.4-1.2v-2.9h1v2.7c0,0.3,0.1,0.6,0.2,0.8s0.4,0.3,0.7,0.3c0.4,0,0.7-0.1,0.9-0.4c0.2-0.2,0.3-0.6,0.3-1.2
					v-2.2h0.9v4.4H70z"/>
				<path fill="#D3D3D3" d="M75.8,134.7h-0.9V132c0-0.3-0.1-0.6-0.2-0.8s-0.3-0.3-0.6-0.3c-0.4,0-0.6,0.1-0.8,0.4
					c-0.2,0.2-0.3,0.6-0.3,1.2v2.2h-0.9v-4.4h0.7l0.1,0.6h0c0.1-0.2,0.3-0.4,0.5-0.5c0.2-0.1,0.5-0.2,0.8-0.2c0.7,0,1.1,0.2,1.4,0.7
					h0.1c0.1-0.2,0.3-0.4,0.6-0.5c0.2-0.1,0.5-0.2,0.8-0.2c0.5,0,0.9,0.1,1.2,0.4c0.2,0.3,0.4,0.7,0.4,1.2v2.9h-0.9V132
					c0-0.3-0.1-0.6-0.2-0.8s-0.3-0.3-0.6-0.3c-0.4,0-0.6,0.1-0.8,0.3c-0.2,0.2-0.3,0.6-0.3,1.1V134.7z"/>
				<path fill="#D3D3D3" d="M81.9,134.8c-0.7,0-1.2-0.2-1.6-0.6s-0.6-1-0.6-1.7c0-0.7,0.2-1.3,0.5-1.7c0.4-0.4,0.9-0.6,1.5-0.6
					c0.6,0,1,0.2,1.4,0.5c0.3,0.4,0.5,0.8,0.5,1.5v0.5h-3c0,0.4,0.1,0.8,0.3,1s0.5,0.3,0.9,0.3c0.3,0,0.5,0,0.7-0.1s0.5-0.1,0.7-0.2
					v0.8c-0.2,0.1-0.5,0.2-0.7,0.2C82.4,134.8,82.2,134.8,81.9,134.8z M81.7,130.9c-0.3,0-0.5,0.1-0.7,0.3c-0.2,0.2-0.3,0.5-0.3,0.8
					h2c0-0.4-0.1-0.6-0.3-0.8C82.2,131,82,130.9,81.7,130.9z"/>
				<path fill="#D3D3D3" d="M88.6,134.7h-0.9V132c0-0.3-0.1-0.6-0.2-0.8c-0.1-0.2-0.4-0.3-0.7-0.3c-0.4,0-0.7,0.1-0.9,0.4
					s-0.3,0.6-0.3,1.2v2.2h-0.9v-4.4h0.7l0.1,0.6h0c0.1-0.2,0.3-0.4,0.6-0.5c0.2-0.1,0.5-0.2,0.8-0.2c1.1,0,1.6,0.5,1.6,1.6V134.7z"
					/>
				<path fill="#D3D3D3" d="M91.5,134c0.2,0,0.5,0,0.7-0.1v0.7c-0.1,0-0.2,0.1-0.4,0.1c-0.2,0-0.3,0-0.5,0c-0.9,0-1.3-0.5-1.3-1.4
					V131h-0.6v-0.4l0.6-0.3l0.3-0.9h0.6v1h1.3v0.7h-1.3v2.4c0,0.2,0.1,0.4,0.2,0.5S91.3,134,91.5,134z"/>
				<path fill="#D3D3D3" d="M95.9,134.7l-0.2-0.6h0c-0.2,0.3-0.4,0.5-0.6,0.6c-0.2,0.1-0.5,0.1-0.8,0.1c-0.4,0-0.8-0.1-1-0.4
					s-0.4-0.6-0.4-1c0-0.5,0.2-0.8,0.5-1c0.3-0.2,0.9-0.4,1.6-0.4l0.8,0v-0.2c0-0.3-0.1-0.5-0.2-0.6c-0.1-0.1-0.3-0.2-0.6-0.2
					c-0.2,0-0.4,0-0.7,0.1c-0.2,0.1-0.4,0.1-0.6,0.2l-0.3-0.7c0.2-0.1,0.5-0.2,0.8-0.3c0.3-0.1,0.6-0.1,0.8-0.1c0.6,0,1,0.1,1.3,0.4
					s0.4,0.6,0.4,1.2v3H95.9z M94.5,134.1c0.3,0,0.6-0.1,0.8-0.3s0.3-0.5,0.3-0.8v-0.4l-0.6,0c-0.4,0-0.8,0.1-1,0.2
					c-0.2,0.1-0.3,0.3-0.3,0.6c0,0.2,0.1,0.4,0.2,0.5C94.1,134,94.2,134.1,94.5,134.1z"/>
				<path fill="#D3D3D3" d="M99.5,134c0.2,0,0.5,0,0.7-0.1v0.7c-0.1,0-0.2,0.1-0.4,0.1c-0.2,0-0.3,0-0.5,0c-0.9,0-1.3-0.5-1.3-1.4
					V131h-0.6v-0.4l0.6-0.3l0.3-0.9h0.6v1h1.3v0.7h-1.3v2.4c0,0.2,0.1,0.4,0.2,0.5S99.3,134,99.5,134z"/>
				<path fill="#D3D3D3" d="M101,129.1c0-0.2,0-0.3,0.1-0.4s0.2-0.1,0.4-0.1c0.2,0,0.3,0,0.4,0.1s0.1,0.2,0.1,0.4
					c0,0.2,0,0.3-0.1,0.4c-0.1,0.1-0.2,0.1-0.4,0.1c-0.2,0-0.3,0-0.4-0.1C101.1,129.4,101,129.3,101,129.1z M102,134.7h-0.9v-4.4
					h0.9V134.7z"/>
				<path fill="#D3D3D3" d="M107.3,132.5c0,0.7-0.2,1.3-0.6,1.7c-0.4,0.4-0.9,0.6-1.6,0.6c-0.4,0-0.8-0.1-1.1-0.3
					c-0.3-0.2-0.6-0.5-0.7-0.8c-0.2-0.4-0.3-0.8-0.3-1.2c0-0.7,0.2-1.3,0.6-1.7c0.4-0.4,0.9-0.6,1.6-0.6c0.6,0,1.1,0.2,1.5,0.6
					S107.3,131.8,107.3,132.5z M104.1,132.5c0,1,0.4,1.5,1.1,1.5c0.7,0,1.1-0.5,1.1-1.5c0-1-0.4-1.5-1.1-1.5c-0.4,0-0.7,0.1-0.9,0.4
					C104.2,131.6,104.1,132,104.1,132.5z"/>
				<path fill="#D3D3D3" d="M112.3,134.7h-0.9V132c0-0.3-0.1-0.6-0.2-0.8c-0.1-0.2-0.4-0.3-0.7-0.3c-0.4,0-0.7,0.1-0.9,0.4
					s-0.3,0.6-0.3,1.2v2.2h-0.9v-4.4h0.7l0.1,0.6h0c0.1-0.2,0.3-0.4,0.6-0.5c0.2-0.1,0.5-0.2,0.8-0.2c1.1,0,1.6,0.5,1.6,1.6V134.7z"
					/>
			</g>
			<g>
				<g>
					<path fill="#D3D3D3" d="M330.1,122.8c0,1.2-0.2,2-0.7,2.6c-0.5,0.6-1.2,0.9-2.1,0.9c-0.4,0-0.6,0-0.8-0.1v-0.8
						c0.2,0.1,0.5,0.1,0.7,0.1c0.6,0,1.1-0.2,1.4-0.5c0.3-0.3,0.5-0.9,0.5-1.6h0c-0.2,0.2-0.3,0.4-0.6,0.5c-0.2,0.1-0.5,0.2-0.8,0.2
						c-0.5,0-0.9-0.2-1.2-0.5s-0.4-0.8-0.4-1.3c0-0.6,0.2-1.1,0.5-1.5s0.8-0.5,1.4-0.5c0.4,0,0.8,0.1,1.1,0.3s0.5,0.5,0.7,0.9
						C330,121.8,330.1,122.3,330.1,122.8z M328.1,121c-0.3,0-0.6,0.1-0.8,0.3s-0.3,0.5-0.3,0.9c0,0.3,0.1,0.6,0.2,0.8
						c0.2,0.2,0.4,0.3,0.7,0.3c0.3,0,0.6-0.1,0.8-0.3c0.2-0.2,0.3-0.4,0.3-0.7c0-0.2,0-0.5-0.1-0.7c-0.1-0.2-0.2-0.4-0.4-0.5
						C328.5,121.1,328.3,121,328.1,121z"/>
					<path fill="#D3D3D3" d="M334.8,123.2c0,1-0.2,1.8-0.5,2.3c-0.3,0.5-0.8,0.7-1.5,0.7c-0.7,0-1.1-0.3-1.5-0.8s-0.5-1.3-0.5-2.2
						c0-1,0.2-1.8,0.5-2.3c0.3-0.5,0.8-0.7,1.5-0.7c0.7,0,1.2,0.3,1.5,0.8S334.8,122.3,334.8,123.2z M331.8,123.2
						c0,0.8,0.1,1.4,0.2,1.7c0.2,0.3,0.4,0.5,0.8,0.5s0.6-0.2,0.8-0.5s0.3-0.9,0.3-1.7c0-0.8-0.1-1.4-0.3-1.7
						c-0.2-0.4-0.4-0.5-0.8-0.5s-0.6,0.2-0.8,0.5C331.9,121.9,331.8,122.5,331.8,123.2z"/>
					<path fill="#D3D3D3" d="M338.1,122.1c0,0.6-0.1,1.1-0.3,1.4c-0.2,0.3-0.5,0.5-1,0.5c-0.4,0-0.7-0.2-0.9-0.5
						c-0.2-0.3-0.3-0.8-0.3-1.4c0-1.2,0.4-1.8,1.3-1.8c0.4,0,0.7,0.2,1,0.5C338,121,338.1,121.5,338.1,122.1z M336.3,122.1
						c0,0.4,0,0.7,0.1,0.9c0.1,0.2,0.2,0.3,0.4,0.3c0.4,0,0.5-0.4,0.5-1.2s-0.2-1.2-0.5-1.2c-0.2,0-0.3,0.1-0.4,0.3
						C336.3,121.4,336.3,121.7,336.3,122.1z M340.7,120.3l-3.3,5.9h-0.8l3.3-5.9H340.7z M341.9,124.4c0,0.6-0.1,1.1-0.3,1.4
						s-0.5,0.5-1,0.5c-0.4,0-0.7-0.2-0.9-0.5c-0.2-0.3-0.3-0.8-0.3-1.4c0-1.2,0.4-1.8,1.3-1.8c0.4,0,0.7,0.2,1,0.5
						S341.9,123.8,341.9,124.4z M340.1,124.4c0,0.4,0,0.7,0.1,0.9c0.1,0.2,0.2,0.3,0.4,0.3c0.4,0,0.5-0.4,0.5-1.2
						c0-0.8-0.2-1.2-0.5-1.2c-0.2,0-0.3,0.1-0.4,0.3C340.1,123.7,340.1,124,340.1,124.4z"/>
					<path fill="#D3D3D3" d="M353.2,124.4v-0.8h2.1v0.8H353.2z"/>
					<path fill="#D3D3D3" d="M370.5,124.4c0,0.4-0.1,0.7-0.4,1s-0.7,0.4-1.2,0.5v0.9h-0.5v-0.8c-0.7,0-1.2-0.1-1.6-0.3v-0.8
						c0.2,0.1,0.5,0.2,0.8,0.3c0.3,0.1,0.6,0.1,0.8,0.1v-1.5l-0.3-0.1c-0.4-0.2-0.8-0.4-1-0.6c-0.2-0.2-0.3-0.5-0.3-0.9
						c0-0.4,0.1-0.7,0.4-0.9c0.3-0.2,0.7-0.4,1.2-0.4v-0.7h0.5v0.7c0.5,0,1.1,0.1,1.5,0.3l-0.3,0.7c-0.4-0.2-0.8-0.3-1.3-0.3v1.5
						l0.3,0.1c0.5,0.2,0.9,0.4,1.1,0.6C370.4,123.8,370.5,124.1,370.5,124.4z M367.7,122c0,0.2,0,0.3,0.1,0.4s0.3,0.2,0.5,0.3v-1.2
						c-0.2,0-0.4,0.1-0.5,0.2C367.7,121.7,367.7,121.8,367.7,122z M369.5,124.4c0-0.2-0.1-0.3-0.2-0.4c-0.1-0.1-0.3-0.2-0.5-0.3v1.3
						C369.3,125,369.5,124.8,369.5,124.4z"/>
					<path fill="#D3D3D3" d="M375.5,124.9h-0.8v1.3h-0.9v-1.3h-2.7v-0.7l2.7-3.9h0.9v3.8h0.8V124.9z M373.8,124.1v-1.5
						c0-0.5,0-1,0-1.3h0c-0.1,0.2-0.2,0.4-0.4,0.6l-1.5,2.1H373.8z"/>
					<path fill="#D3D3D3" d="M379.9,126.2h-4v-0.7l1.5-1.5c0.4-0.5,0.7-0.8,0.9-1s0.3-0.4,0.3-0.5c0.1-0.2,0.1-0.3,0.1-0.5
						c0-0.3-0.1-0.5-0.2-0.6s-0.4-0.2-0.7-0.2c-0.2,0-0.4,0-0.7,0.1s-0.5,0.2-0.7,0.4L376,121c0.3-0.3,0.6-0.5,1-0.6s0.6-0.2,1-0.2
						c0.5,0,1,0.1,1.3,0.4c0.3,0.3,0.5,0.7,0.5,1.1c0,0.3,0,0.5-0.1,0.8s-0.2,0.5-0.4,0.7c-0.2,0.3-0.5,0.6-1,1l-1,1v0h2.8V126.2z"
						/>
					<path fill="#D3D3D3" d="M380.8,125.7c0-0.2,0.1-0.3,0.2-0.5c0.1-0.1,0.2-0.2,0.4-0.2c0.2,0,0.3,0.1,0.4,0.2s0.2,0.3,0.2,0.4
						c0,0.2-0.1,0.3-0.2,0.5c-0.1,0.1-0.3,0.2-0.4,0.2s-0.3-0.1-0.4-0.2C380.9,126,380.8,125.9,380.8,125.7z"/>
					<path fill="#D3D3D3" d="M385.7,126.2h-0.9v-3.8c0-0.5,0-0.8,0-1.1c-0.1,0.1-0.1,0.1-0.2,0.2c-0.1,0.1-0.4,0.3-0.9,0.7l-0.5-0.6
						l1.7-1.4h0.8V126.2z"/>
					<path fill="#D3D3D3" d="M389.6,122.5c0.6,0,1.1,0.2,1.4,0.5c0.3,0.3,0.5,0.7,0.5,1.3c0,0.6-0.2,1.1-0.6,1.5s-0.9,0.5-1.7,0.5
						c-0.7,0-1.2-0.1-1.5-0.3v-0.9c0.2,0.1,0.5,0.2,0.7,0.3c0.3,0.1,0.5,0.1,0.8,0.1c0.4,0,0.7-0.1,1-0.3c0.2-0.2,0.3-0.5,0.3-0.8
						c0-0.7-0.4-1.1-1.3-1.1c-0.1,0-0.3,0-0.5,0s-0.3,0.1-0.5,0.1l-0.4-0.2l0.2-2.9h3v0.8h-2.2l-0.1,1.5c0.1,0,0.2,0,0.3-0.1
						C389.2,122.5,389.4,122.5,389.6,122.5z"/>
					<path fill="#D3D3D3" d="M393.5,123.8l0.5-0.7l1.3-1.4h1.1l-1.8,1.9l1.9,2.5h-1.1l-1.4-1.9l-0.5,0.4v1.5h-0.9v-6.2h0.9v3
						L393.5,123.8L393.5,123.8z"/>
				</g>
				<g>
					<path fill="#D3D3D3" d="M321,134.9c-0.5,0-0.8-0.1-1.1-0.4c-0.2-0.3-0.4-0.7-0.4-1.2c0-0.5,0.1-0.9,0.4-1.2
						c0.3-0.3,0.6-0.4,1.1-0.4c0.3,0,0.6,0.1,0.9,0.2l-0.2,0.5c-0.3-0.1-0.5-0.2-0.7-0.2c-0.5,0-0.8,0.4-0.8,1.1
						c0,0.4,0.1,0.6,0.2,0.8s0.3,0.3,0.6,0.3c0.3,0,0.6-0.1,0.9-0.2v0.6c-0.1,0.1-0.2,0.1-0.4,0.2
						C321.4,134.9,321.2,134.9,321,134.9z"/>
					<path fill="#D3D3D3" d="M325.5,133.3c0,0.5-0.1,0.9-0.4,1.2c-0.3,0.3-0.6,0.4-1.1,0.4c-0.3,0-0.6-0.1-0.8-0.2s-0.4-0.3-0.5-0.6
						c-0.1-0.3-0.2-0.5-0.2-0.9c0-0.5,0.1-0.9,0.4-1.2c0.3-0.3,0.6-0.4,1.1-0.4c0.5,0,0.8,0.1,1.1,0.4
						C325.4,132.4,325.5,132.8,325.5,133.3z M323.2,133.3c0,0.7,0.3,1.1,0.8,1.1c0.5,0,0.8-0.4,0.8-1.1c0-0.7-0.3-1.1-0.8-1.1
						c-0.3,0-0.5,0.1-0.6,0.3S323.2,132.9,323.2,133.3z"/>
					<path fill="#D3D3D3" d="M328.9,134.9h-0.7v-2c0-0.2,0-0.4-0.1-0.5s-0.2-0.2-0.4-0.2c-0.3,0-0.5,0.1-0.6,0.3
						c-0.1,0.2-0.2,0.5-0.2,0.8v1.6h-0.7v-3.2h0.5l0.1,0.4h0c0.1-0.2,0.2-0.3,0.4-0.3c0.2-0.1,0.4-0.1,0.6-0.1c0.5,0,0.8,0.2,1,0.5
						h0c0.1-0.2,0.2-0.3,0.4-0.4s0.4-0.1,0.6-0.1c0.4,0,0.7,0.1,0.8,0.3c0.2,0.2,0.3,0.5,0.3,0.9v2.1h-0.7v-2c0-0.2,0-0.4-0.1-0.5
						c-0.1-0.1-0.2-0.2-0.4-0.2c-0.3,0-0.5,0.1-0.6,0.2c-0.1,0.2-0.2,0.4-0.2,0.8V134.9z"/>
					<path fill="#D3D3D3" d="M333.5,134.9c-0.4,0-0.7-0.1-0.9-0.4h0c0,0.3,0,0.4,0,0.5v1.3h-0.7v-4.6h0.5c0,0.1,0,0.2,0.1,0.4h0
						c0.2-0.3,0.5-0.5,0.9-0.5c0.4,0,0.7,0.1,0.9,0.4c0.2,0.3,0.3,0.7,0.3,1.2s-0.1,0.9-0.3,1.2
						C334.2,134.8,333.9,134.9,333.5,134.9z M333.3,132.2c-0.3,0-0.5,0.1-0.6,0.2c-0.1,0.2-0.2,0.4-0.2,0.8v0.1
						c0,0.4,0.1,0.7,0.2,0.8s0.3,0.3,0.6,0.3c0.2,0,0.4-0.1,0.5-0.3s0.2-0.5,0.2-0.8c0-0.4-0.1-0.6-0.2-0.8
						C333.7,132.3,333.6,132.2,333.3,132.2z"/>
					<path fill="#D3D3D3" d="M336.2,134.9h-0.7v-4.5h0.7V134.9z"/>
					<path fill="#D3D3D3" d="M338.5,134.9c-0.5,0-0.9-0.1-1.2-0.4c-0.3-0.3-0.4-0.7-0.4-1.2c0-0.5,0.1-0.9,0.4-1.2s0.6-0.4,1.1-0.4
						c0.4,0,0.7,0.1,1,0.4c0.2,0.3,0.4,0.6,0.4,1v0.4h-2.1c0,0.3,0.1,0.5,0.2,0.7c0.2,0.2,0.4,0.2,0.7,0.2c0.2,0,0.4,0,0.5-0.1
						c0.2,0,0.3-0.1,0.5-0.2v0.5c-0.2,0.1-0.3,0.1-0.5,0.2S338.8,134.9,338.5,134.9z M338.4,132.2c-0.2,0-0.4,0.1-0.5,0.2
						s-0.2,0.3-0.2,0.6h1.4c0-0.3-0.1-0.5-0.2-0.6S338.6,132.2,338.4,132.2z"/>
					<path fill="#D3D3D3" d="M341.7,134.4c0.2,0,0.3,0,0.5-0.1v0.5c-0.1,0-0.2,0.1-0.3,0.1c-0.1,0-0.2,0-0.4,0c-0.6,0-1-0.3-1-1
						v-1.7h-0.4v-0.3l0.5-0.2l0.2-0.7h0.4v0.7h0.9v0.5h-0.9v1.7c0,0.2,0,0.3,0.1,0.4C341.5,134.4,341.6,134.4,341.7,134.4z"/>
					<path fill="#D3D3D3" d="M342.8,130.9c0-0.1,0-0.2,0.1-0.3c0.1-0.1,0.2-0.1,0.3-0.1c0.1,0,0.2,0,0.3,0.1
						c0.1,0.1,0.1,0.2,0.1,0.3c0,0.1,0,0.2-0.1,0.3c-0.1,0.1-0.2,0.1-0.3,0.1c-0.1,0-0.2,0-0.3-0.1
						C342.8,131.1,342.8,131,342.8,130.9z M343.5,134.9h-0.7v-3.2h0.7V134.9z"/>
					<path fill="#D3D3D3" d="M347.3,133.3c0,0.5-0.1,0.9-0.4,1.2c-0.3,0.3-0.6,0.4-1.1,0.4c-0.3,0-0.6-0.1-0.8-0.2s-0.4-0.3-0.5-0.6
						c-0.1-0.3-0.2-0.5-0.2-0.9c0-0.5,0.1-0.9,0.4-1.2c0.3-0.3,0.6-0.4,1.1-0.4c0.5,0,0.8,0.1,1.1,0.4
						C347.2,132.4,347.3,132.8,347.3,133.3z M345,133.3c0,0.7,0.3,1.1,0.8,1.1c0.5,0,0.8-0.4,0.8-1.1c0-0.7-0.3-1.1-0.8-1.1
						c-0.3,0-0.5,0.1-0.6,0.3S345,132.9,345,133.3z"/>
					<path fill="#D3D3D3" d="M350.9,134.9h-0.7v-1.9c0-0.2,0-0.4-0.1-0.5c-0.1-0.1-0.3-0.2-0.5-0.2c-0.3,0-0.5,0.1-0.6,0.3
						s-0.2,0.4-0.2,0.8v1.6h-0.7v-3.2h0.5l0.1,0.4h0c0.1-0.2,0.2-0.3,0.4-0.3c0.2-0.1,0.4-0.1,0.6-0.1c0.8,0,1.1,0.4,1.1,1.2V134.9z
						"/>
				</g>
				<g>
					<path fill="#D3D3D3" d="M373,131.7c0.1,0,0.2,0,0.3,0l-0.1,0.6c-0.1,0-0.2,0-0.3,0c-0.3,0-0.5,0.1-0.7,0.3s-0.3,0.4-0.3,0.7
						v1.7h-0.7v-3.2h0.5l0.1,0.6h0c0.1-0.2,0.2-0.3,0.4-0.5C372.6,131.7,372.8,131.7,373,131.7z"/>
					<path fill="#D3D3D3" d="M375.3,134.9c-0.5,0-0.9-0.1-1.2-0.4c-0.3-0.3-0.4-0.7-0.4-1.2c0-0.5,0.1-0.9,0.4-1.2s0.6-0.4,1.1-0.4
						c0.4,0,0.7,0.1,1,0.4c0.2,0.3,0.4,0.6,0.4,1v0.4h-2.1c0,0.3,0.1,0.5,0.2,0.7c0.2,0.2,0.4,0.2,0.7,0.2c0.2,0,0.4,0,0.5-0.1
						c0.2,0,0.3-0.1,0.5-0.2v0.5c-0.2,0.1-0.3,0.1-0.5,0.2S375.5,134.9,375.3,134.9z M375.2,132.2c-0.2,0-0.4,0.1-0.5,0.2
						s-0.2,0.3-0.2,0.6h1.4c0-0.3-0.1-0.5-0.2-0.6S375.4,132.2,375.2,132.2z"/>
					<path fill="#D3D3D3" d="M378,134.9l-1.2-3.2h0.7l0.6,1.8c0.1,0.3,0.2,0.6,0.2,0.8h0c0-0.1,0.1-0.4,0.2-0.8l0.6-1.8h0.7
						l-1.2,3.2H378z"/>
					<path fill="#D3D3D3" d="M381.8,134.9c-0.5,0-0.9-0.1-1.2-0.4c-0.3-0.3-0.4-0.7-0.4-1.2c0-0.5,0.1-0.9,0.4-1.2s0.6-0.4,1.1-0.4
						c0.4,0,0.7,0.1,1,0.4c0.2,0.3,0.4,0.6,0.4,1v0.4H381c0,0.3,0.1,0.5,0.2,0.7c0.2,0.2,0.4,0.2,0.7,0.2c0.2,0,0.4,0,0.5-0.1
						c0.2,0,0.3-0.1,0.5-0.2v0.5c-0.2,0.1-0.3,0.1-0.5,0.2S382.1,134.9,381.8,134.9z M381.7,132.2c-0.2,0-0.4,0.1-0.5,0.2
						s-0.2,0.3-0.2,0.6h1.4c0-0.3-0.1-0.5-0.2-0.6S381.9,132.2,381.7,132.2z"/>
					<path fill="#D3D3D3" d="M386.6,134.9H386v-1.9c0-0.2,0-0.4-0.1-0.5c-0.1-0.1-0.3-0.2-0.5-0.2c-0.3,0-0.5,0.1-0.6,0.3
						s-0.2,0.4-0.2,0.8v1.6h-0.7v-3.2h0.5l0.1,0.4h0c0.1-0.2,0.2-0.3,0.4-0.3c0.2-0.1,0.4-0.1,0.6-0.1c0.8,0,1.1,0.4,1.1,1.2V134.9z
						"/>
					<path fill="#D3D3D3" d="M389.8,134.9l-0.1-0.4h0c-0.1,0.1-0.2,0.3-0.4,0.3s-0.4,0.1-0.6,0.1c-0.4,0-0.7-0.1-0.9-0.3
						c-0.2-0.2-0.3-0.5-0.3-0.9v-2.1h0.7v2c0,0.2,0,0.4,0.1,0.5c0.1,0.1,0.3,0.2,0.5,0.2c0.3,0,0.5-0.1,0.6-0.3
						c0.1-0.2,0.2-0.5,0.2-0.8v-1.6h0.7v3.2H389.8z"/>
					<path fill="#D3D3D3" d="M392.7,134.9c-0.5,0-0.9-0.1-1.2-0.4c-0.3-0.3-0.4-0.7-0.4-1.2c0-0.5,0.1-0.9,0.4-1.2s0.6-0.4,1.1-0.4
						c0.4,0,0.7,0.1,1,0.4c0.2,0.3,0.4,0.6,0.4,1v0.4h-2.1c0,0.3,0.1,0.5,0.2,0.7c0.2,0.2,0.4,0.2,0.7,0.2c0.2,0,0.4,0,0.5-0.1
						c0.2,0,0.3-0.1,0.5-0.2v0.5c-0.2,0.1-0.3,0.1-0.5,0.2S392.9,134.9,392.7,134.9z M392.6,132.2c-0.2,0-0.4,0.1-0.5,0.2
						s-0.2,0.3-0.2,0.6h1.4c0-0.3-0.1-0.5-0.2-0.6S392.8,132.2,392.6,132.2z"/>
				</g>
			</g>
		</g>
		<g>
			<path fill="#989898" d="M313.9,91.9H192.6c-1.1,0-2.1-0.9-2.1-2.1v-0.3c0-1.1,0.9-2.1,2.1-2.1h121.3c1.1,0,2.1,0.9,2.1,2.1v0.3
				C315.9,91,315,91.9,313.9,91.9z"/>
			<path fill="#FFCB05" d="M191.2,91.9H125c-1.1,0-2.1-0.9-2.1-2.1v-0.3c0-1.1,0.9-2.1,2.1-2.1h66.2c1.1,0,2.1,0.9,2.1,2.1v0.3
				C193.3,91,192.3,91.9,191.2,91.9z"/>
			<g>
				<path fill="#FFFFFF" d="M191.6,95.9c-3.4,0-6.1-2.8-6.1-6.1s2.8-6.1,6.1-6.1c3.4,0,6.1,2.8,6.1,6.1S195,95.9,191.6,95.9z"/>
				<path fill="#787878" d="M191.6,85.1c2.6,0,4.6,2.1,4.6,4.6s-2.1,4.6-4.6,4.6s-4.6-2.1-4.6-4.6S189,85.1,191.6,85.1 M191.6,82.1
					c-4.2,0-7.6,3.4-7.6,7.6s3.4,7.6,7.6,7.6s7.6-3.4,7.6-7.6S195.8,82.1,191.6,82.1L191.6,82.1z"/>
			</g>
			<g>
				<path fill="#D3D3D3" d="M44.8,88.9h-1.3v-8H48V82h-3.2v2.5h3v1.1h-3V88.9z"/>
				<path fill="#D3D3D3" d="M53,88.9l-0.3-0.8h0c-0.3,0.4-0.6,0.6-0.9,0.7S51.2,89,50.7,89c-0.6,0-1.1-0.2-1.4-0.5
					c-0.3-0.3-0.5-0.8-0.5-1.4c0-0.6,0.2-1.1,0.7-1.4c0.5-0.3,1.2-0.5,2.1-0.5l1,0v-0.3c0-0.4-0.1-0.7-0.3-0.9s-0.5-0.3-0.8-0.3
					c-0.3,0-0.6,0-0.9,0.1s-0.6,0.2-0.8,0.3l-0.4-0.9c0.3-0.2,0.7-0.3,1.1-0.4c0.4-0.1,0.8-0.1,1.1-0.1c0.8,0,1.3,0.2,1.7,0.5
					s0.6,0.9,0.6,1.6v4.1H53z M51.1,88c0.5,0,0.8-0.1,1.1-0.4c0.3-0.3,0.4-0.6,0.4-1.1V86l-0.8,0c-0.6,0-1,0.1-1.3,0.3
					c-0.3,0.2-0.4,0.5-0.4,0.8c0,0.3,0.1,0.5,0.2,0.6C50.6,88,50.8,88,51.1,88z"/>
				<path fill="#D3D3D3" d="M57,88.9h-1.3v-8.5H57V88.9z"/>
				<path fill="#D3D3D3" d="M60.1,88.9h-1.3v-8.5h1.3V88.9z"/>
				<path fill="#D3D3D3" d="M61.9,81.3c0-0.2,0.1-0.4,0.2-0.5c0.1-0.1,0.3-0.2,0.5-0.2c0.2,0,0.4,0.1,0.5,0.2
					c0.1,0.1,0.2,0.3,0.2,0.5c0,0.2-0.1,0.4-0.2,0.5C63,81.9,62.8,82,62.6,82c-0.2,0-0.4-0.1-0.5-0.2C61.9,81.7,61.9,81.5,61.9,81.3
					z M63.2,88.9H62v-6h1.3V88.9z"/>
				<path fill="#D3D3D3" d="M70.4,88.9h-1.3v-3.7c0-0.5-0.1-0.8-0.3-1c-0.2-0.2-0.5-0.3-0.9-0.3c-0.5,0-0.9,0.2-1.2,0.5
					c-0.2,0.3-0.4,0.9-0.4,1.6v3h-1.3v-6h1l0.2,0.8h0.1c0.2-0.3,0.4-0.5,0.8-0.7s0.7-0.2,1.1-0.2c1.4,0,2.2,0.7,2.2,2.2V88.9z"/>
				<path fill="#D3D3D3" d="M77.2,82.9v0.7l-1,0.2c0.1,0.1,0.2,0.3,0.2,0.5c0.1,0.2,0.1,0.4,0.1,0.6c0,0.6-0.2,1.1-0.6,1.5
					c-0.4,0.4-1,0.5-1.8,0.5c-0.2,0-0.4,0-0.5,0c-0.3,0.2-0.4,0.4-0.4,0.6c0,0.1,0.1,0.2,0.2,0.3c0.1,0.1,0.4,0.1,0.7,0.1h1.1
					c0.7,0,1.2,0.1,1.5,0.4c0.3,0.3,0.5,0.7,0.5,1.2c0,0.7-0.3,1.2-0.8,1.6c-0.6,0.4-1.4,0.6-2.4,0.6c-0.8,0-1.4-0.1-1.9-0.4
					c-0.4-0.3-0.6-0.7-0.6-1.2c0-0.4,0.1-0.7,0.4-0.9c0.2-0.3,0.6-0.4,1-0.5c-0.2-0.1-0.3-0.2-0.4-0.4c-0.1-0.2-0.2-0.3-0.2-0.5
					c0-0.2,0.1-0.4,0.2-0.6c0.1-0.2,0.3-0.3,0.6-0.5c-0.3-0.1-0.6-0.4-0.8-0.7c-0.2-0.3-0.3-0.7-0.3-1.1c0-0.7,0.2-1.2,0.6-1.5
					c0.4-0.4,1-0.5,1.8-0.5c0.2,0,0.3,0,0.5,0s0.3,0,0.4,0.1H77.2z M72.5,89.8c0,0.3,0.1,0.5,0.4,0.6c0.2,0.1,0.6,0.2,1,0.2
					c0.7,0,1.2-0.1,1.6-0.3c0.3-0.2,0.5-0.5,0.5-0.8c0-0.3-0.1-0.4-0.3-0.6c-0.2-0.1-0.5-0.2-1-0.2h-1c-0.4,0-0.7,0.1-0.9,0.3
					C72.6,89.3,72.5,89.5,72.5,89.8z M73,84.8c0,0.4,0.1,0.7,0.3,0.9c0.2,0.2,0.5,0.3,0.8,0.3c0.7,0,1.1-0.4,1.1-1.2
					c0-0.4-0.1-0.7-0.3-0.9c-0.2-0.2-0.5-0.3-0.8-0.3c-0.4,0-0.7,0.1-0.8,0.3C73.1,84.1,73,84.4,73,84.8z"/>
				<path fill="#D3D3D3" d="M88.7,88.9h-1.4L86,84.2c-0.1-0.2-0.1-0.5-0.2-0.9c-0.1-0.4-0.1-0.7-0.2-0.8c0,0.2-0.1,0.5-0.2,0.9
					c-0.1,0.4-0.1,0.6-0.2,0.8l-1.3,4.7h-1.4l-1-4l-1-4h1.3l1.1,4.6c0.2,0.7,0.3,1.4,0.4,2c0-0.3,0.1-0.7,0.2-1
					c0.1-0.4,0.2-0.7,0.2-0.9l1.3-4.6h1.3l1.3,4.7c0.1,0.4,0.3,1.1,0.4,1.9c0.1-0.5,0.2-1.2,0.4-2l1.1-4.6h1.3L88.7,88.9z"/>
				<path fill="#D3D3D3" d="M95.6,88.9l-0.3-0.8h0c-0.3,0.4-0.6,0.6-0.9,0.7S93.7,89,93.2,89c-0.6,0-1.1-0.2-1.4-0.5
					c-0.3-0.3-0.5-0.8-0.5-1.4c0-0.6,0.2-1.1,0.7-1.4c0.5-0.3,1.2-0.5,2.1-0.5l1,0v-0.3c0-0.4-0.1-0.7-0.3-0.9s-0.5-0.3-0.8-0.3
					c-0.3,0-0.6,0-0.9,0.1s-0.6,0.2-0.8,0.3L92,83.3c0.3-0.2,0.7-0.3,1.1-0.4c0.4-0.1,0.8-0.1,1.1-0.1c0.8,0,1.3,0.2,1.7,0.5
					s0.6,0.9,0.6,1.6v4.1H95.6z M93.6,88c0.5,0,0.8-0.1,1.1-0.4c0.3-0.3,0.4-0.6,0.4-1.1V86l-0.8,0c-0.6,0-1,0.1-1.3,0.3
					c-0.3,0.2-0.4,0.5-0.4,0.8c0,0.3,0.1,0.5,0.2,0.6C93.1,88,93.3,88,93.6,88z"/>
				<path fill="#D3D3D3" d="M100.5,88c0.3,0,0.6,0,0.9-0.1v1c-0.1,0.1-0.3,0.1-0.5,0.2c-0.2,0-0.5,0.1-0.7,0.1
					c-1.2,0-1.8-0.6-1.8-1.9v-3.2h-0.8v-0.6l0.9-0.5l0.4-1.3h0.8v1.3h1.7v1h-1.7v3.2c0,0.3,0.1,0.5,0.2,0.7
					C100,87.9,100.2,88,100.5,88z"/>
				<path fill="#D3D3D3" d="M105.3,89c-0.9,0-1.7-0.3-2.2-0.8c-0.5-0.5-0.8-1.3-0.8-2.3c0-1,0.2-1.8,0.7-2.3c0.5-0.6,1.2-0.8,2-0.8
					c0.8,0,1.4,0.2,1.9,0.7c0.5,0.5,0.7,1.1,0.7,2v0.7h-4c0,0.6,0.2,1,0.5,1.3c0.3,0.3,0.7,0.5,1.3,0.5c0.4,0,0.7,0,1-0.1
					c0.3-0.1,0.6-0.2,1-0.3v1c-0.3,0.1-0.6,0.3-0.9,0.3S105.7,89,105.3,89z M105,83.7c-0.4,0-0.7,0.1-1,0.4
					c-0.2,0.3-0.4,0.6-0.4,1.1h2.7c0-0.5-0.1-0.9-0.4-1.1S105.4,83.7,105,83.7z"/>
				<path fill="#D3D3D3" d="M112.1,82.8c0.3,0,0.5,0,0.6,0.1l-0.1,1.2c-0.2,0-0.4-0.1-0.6-0.1c-0.5,0-0.9,0.2-1.2,0.5
					c-0.3,0.3-0.5,0.8-0.5,1.3v3.1h-1.3v-6h1l0.2,1.1h0.1c0.2-0.4,0.5-0.6,0.8-0.9C111.4,82.9,111.7,82.8,112.1,82.8z"/>
				<path fill="#D3D3D3" d="M54.7,93.6c-0.6,0-1,0.2-1.3,0.6c-0.3,0.4-0.5,0.9-0.5,1.6c0,0.7,0.2,1.3,0.5,1.6
					c0.3,0.4,0.7,0.6,1.3,0.6c0.2,0,0.5,0,0.7-0.1c0.2,0,0.5-0.1,0.7-0.2v0.8c-0.5,0.2-1,0.3-1.6,0.3c-0.9,0-1.5-0.3-2-0.8
					c-0.5-0.5-0.7-1.3-0.7-2.2c0-0.6,0.1-1.1,0.3-1.6c0.2-0.5,0.5-0.8,1-1.1s0.9-0.4,1.5-0.4c0.6,0,1.2,0.1,1.7,0.4L56,94
					c-0.2-0.1-0.4-0.2-0.6-0.2C55.1,93.7,54.9,93.6,54.7,93.6z"/>
				<path fill="#D3D3D3" d="M61.2,96.5c0,0.7-0.2,1.3-0.6,1.7c-0.4,0.4-0.9,0.6-1.6,0.6c-0.4,0-0.8-0.1-1.1-0.3
					c-0.3-0.2-0.6-0.5-0.7-0.8C57.1,97.4,57,97,57,96.5c0-0.7,0.2-1.3,0.6-1.7c0.4-0.4,0.9-0.6,1.6-0.6c0.6,0,1.1,0.2,1.5,0.6
					S61.2,95.8,61.2,96.5z M58,96.5c0,1,0.4,1.5,1.1,1.5c0.7,0,1.1-0.5,1.1-1.5c0-1-0.4-1.5-1.1-1.5c-0.4,0-0.7,0.1-0.9,0.4
					C58.1,95.7,58,96,58,96.5z"/>
				<path fill="#D3D3D3" d="M66.2,98.8h-0.9V96c0-0.3-0.1-0.6-0.2-0.8c-0.1-0.2-0.4-0.3-0.7-0.3c-0.4,0-0.7,0.1-0.9,0.4
					s-0.3,0.6-0.3,1.2v2.2h-0.9v-4.4H63l0.1,0.6h0c0.1-0.2,0.3-0.4,0.6-0.5c0.2-0.1,0.5-0.2,0.8-0.2c1.1,0,1.6,0.5,1.6,1.6V98.8z"/>
				<path fill="#D3D3D3" d="M69.3,98.8c-0.7,0-1.2-0.2-1.5-0.6c-0.3-0.4-0.5-1-0.5-1.7c0-0.7,0.2-1.3,0.5-1.7
					c0.4-0.4,0.9-0.6,1.6-0.6c0.5,0,0.9,0.1,1.3,0.3l-0.3,0.8c-0.4-0.2-0.7-0.2-1-0.2c-0.8,0-1.2,0.5-1.2,1.5c0,0.5,0.1,0.9,0.3,1.1
					c0.2,0.2,0.5,0.4,0.8,0.4c0.4,0,0.8-0.1,1.2-0.3v0.8c-0.2,0.1-0.3,0.2-0.5,0.2C69.8,98.8,69.6,98.8,69.3,98.8z"/>
				<path fill="#D3D3D3" d="M73.5,98.8c-0.7,0-1.2-0.2-1.6-0.6s-0.6-1-0.6-1.7c0-0.7,0.2-1.3,0.5-1.7c0.4-0.4,0.9-0.6,1.5-0.6
					c0.6,0,1,0.2,1.4,0.5c0.3,0.4,0.5,0.8,0.5,1.5v0.5h-3c0,0.4,0.1,0.8,0.3,1s0.5,0.3,0.9,0.3c0.3,0,0.5,0,0.7-0.1s0.5-0.1,0.7-0.2
					v0.8c-0.2,0.1-0.5,0.2-0.7,0.2C74.1,98.8,73.8,98.8,73.5,98.8z M73.3,95c-0.3,0-0.5,0.1-0.7,0.3c-0.2,0.2-0.3,0.5-0.3,0.8h2
					c0-0.4-0.1-0.6-0.3-0.8C73.9,95.1,73.6,95,73.3,95z"/>
				<path fill="#D3D3D3" d="M78.6,98.8c-0.6,0-1-0.2-1.3-0.6h-0.1c0,0.4,0.1,0.6,0.1,0.7v1.8h-0.9v-6.4h0.8c0,0.1,0.1,0.3,0.1,0.6h0
					c0.3-0.4,0.7-0.7,1.3-0.7c0.6,0,1,0.2,1.3,0.6c0.3,0.4,0.5,1,0.5,1.7s-0.2,1.3-0.5,1.7C79.5,98.6,79.1,98.8,78.6,98.8z M78.3,95
					c-0.4,0-0.6,0.1-0.8,0.3c-0.2,0.2-0.3,0.6-0.3,1.1v0.1c0,0.5,0.1,0.9,0.3,1.2c0.2,0.2,0.5,0.4,0.8,0.4c0.3,0,0.6-0.1,0.8-0.4
					c0.2-0.3,0.3-0.6,0.3-1.1c0-0.5-0.1-0.9-0.3-1.1C78.9,95.1,78.7,95,78.3,95z"/>
				<path fill="#D3D3D3" d="M83.1,98.1c0.2,0,0.5,0,0.7-0.1v0.7c-0.1,0-0.2,0.1-0.4,0.1c-0.2,0-0.3,0-0.5,0c-0.9,0-1.3-0.5-1.3-1.4
					V95h-0.6v-0.4l0.6-0.3l0.3-0.9h0.6v1h1.3V95h-1.3v2.4c0,0.2,0.1,0.4,0.2,0.5S82.9,98.1,83.1,98.1z"/>
				<path fill="#D3D3D3" d="M91.7,95.8c0,1-0.3,1.7-0.8,2.2c-0.5,0.5-1.3,0.8-2.3,0.8h-1.6v-5.9h1.8c0.9,0,1.7,0.3,2.2,0.8
					C91.4,94.2,91.7,94.9,91.7,95.8z M90.6,95.8c0-1.4-0.7-2.1-2-2.1h-0.8V98h0.7C89.9,98,90.6,97.2,90.6,95.8z"/>
				<path fill="#D3D3D3" d="M94.8,98.8c-0.7,0-1.2-0.2-1.6-0.6s-0.6-1-0.6-1.7c0-0.7,0.2-1.3,0.5-1.7c0.4-0.4,0.9-0.6,1.5-0.6
					c0.6,0,1,0.2,1.4,0.5c0.3,0.4,0.5,0.8,0.5,1.5v0.5h-3c0,0.4,0.1,0.8,0.3,1s0.5,0.3,0.9,0.3c0.3,0,0.5,0,0.7-0.1s0.5-0.1,0.7-0.2
					v0.8c-0.2,0.1-0.5,0.2-0.7,0.2C95.3,98.8,95.1,98.8,94.8,98.8z M94.6,95c-0.3,0-0.5,0.1-0.7,0.3c-0.2,0.2-0.3,0.5-0.3,0.8h2
					c0-0.4-0.1-0.6-0.3-0.8C95.1,95.1,94.9,95,94.6,95z"/>
				<path fill="#D3D3D3" d="M100.5,97.5c0,0.4-0.2,0.8-0.5,1c-0.3,0.2-0.8,0.3-1.4,0.3c-0.6,0-1.1-0.1-1.4-0.3v-0.8
					c0.5,0.2,1,0.4,1.5,0.4c0.6,0,0.9-0.2,0.9-0.5c0-0.1,0-0.2-0.1-0.3c-0.1-0.1-0.2-0.2-0.3-0.2s-0.4-0.2-0.6-0.3
					c-0.5-0.2-0.9-0.4-1-0.6c-0.2-0.2-0.3-0.5-0.3-0.8c0-0.4,0.2-0.7,0.5-0.9s0.7-0.3,1.2-0.3c0.5,0,1,0.1,1.5,0.3l-0.3,0.7
					c-0.5-0.2-0.9-0.3-1.2-0.3c-0.5,0-0.7,0.1-0.7,0.4c0,0.1,0.1,0.3,0.2,0.4c0.1,0.1,0.4,0.2,0.8,0.4c0.4,0.1,0.6,0.3,0.8,0.4
					c0.2,0.1,0.3,0.3,0.4,0.4C100.5,97.1,100.5,97.3,100.5,97.5z"/>
				<path fill="#D3D3D3" d="M101.5,93.1c0-0.2,0-0.3,0.1-0.4s0.2-0.1,0.4-0.1c0.2,0,0.3,0,0.4,0.1s0.1,0.2,0.1,0.4
					c0,0.2,0,0.3-0.1,0.4c-0.1,0.1-0.2,0.1-0.4,0.1c-0.2,0-0.3,0-0.4-0.1C101.5,93.4,101.5,93.3,101.5,93.1z M102.5,98.8h-0.9v-4.4
					h0.9V98.8z"/>
				<path fill="#D3D3D3" d="M107.6,94.3v0.5l-0.8,0.1c0.1,0.1,0.1,0.2,0.2,0.3c0,0.1,0.1,0.3,0.1,0.4c0,0.5-0.2,0.8-0.5,1.1
					c-0.3,0.3-0.8,0.4-1.3,0.4c-0.1,0-0.3,0-0.4,0c-0.2,0.1-0.3,0.3-0.3,0.4c0,0.1,0,0.2,0.1,0.2c0.1,0.1,0.3,0.1,0.5,0.1h0.8
					c0.5,0,0.9,0.1,1.1,0.3c0.3,0.2,0.4,0.5,0.4,0.9c0,0.5-0.2,0.9-0.6,1.2s-1,0.4-1.8,0.4c-0.6,0-1.1-0.1-1.4-0.3
					c-0.3-0.2-0.5-0.5-0.5-0.9c0-0.3,0.1-0.5,0.3-0.7c0.2-0.2,0.4-0.3,0.7-0.4c-0.1-0.1-0.2-0.1-0.3-0.3s-0.1-0.2-0.1-0.4
					c0-0.2,0-0.3,0.1-0.4c0.1-0.1,0.2-0.2,0.4-0.3c-0.2-0.1-0.4-0.3-0.6-0.5c-0.1-0.2-0.2-0.5-0.2-0.8c0-0.5,0.2-0.9,0.5-1.1
					c0.3-0.3,0.7-0.4,1.3-0.4c0.1,0,0.3,0,0.4,0c0.1,0,0.2,0,0.3,0.1H107.6z M104.1,99.5c0,0.2,0.1,0.4,0.3,0.5s0.4,0.2,0.8,0.2
					c0.5,0,0.9-0.1,1.1-0.2c0.3-0.1,0.4-0.3,0.4-0.6c0-0.2-0.1-0.3-0.2-0.4c-0.1-0.1-0.4-0.1-0.8-0.1H105c-0.3,0-0.5,0.1-0.6,0.2
					S104.1,99.2,104.1,99.5z M104.5,95.8c0,0.3,0.1,0.5,0.2,0.6c0.1,0.1,0.3,0.2,0.6,0.2c0.5,0,0.8-0.3,0.8-0.9
					c0-0.3-0.1-0.5-0.2-0.7c-0.1-0.2-0.3-0.2-0.6-0.2c-0.3,0-0.5,0.1-0.6,0.2C104.6,95.2,104.5,95.5,104.5,95.8z"/>
				<path fill="#D3D3D3" d="M112.3,98.8h-0.9V96c0-0.3-0.1-0.6-0.2-0.8c-0.1-0.2-0.4-0.3-0.7-0.3c-0.4,0-0.7,0.1-0.9,0.4
					s-0.3,0.6-0.3,1.2v2.2h-0.9v-4.4h0.7l0.1,0.6h0c0.1-0.2,0.3-0.4,0.6-0.5c0.2-0.1,0.5-0.2,0.8-0.2c1.1,0,1.6,0.5,1.6,1.6V98.8z"
					/>
			</g>
			<g>
				<g>
					<path fill="#D3D3D3" d="M330.3,88.9h-0.8v1.3h-0.9v-1.3h-2.7v-0.7l2.7-3.9h0.9v3.8h0.8V88.9z M328.6,88.2v-1.5c0-0.5,0-1,0-1.3
						h0c-0.1,0.2-0.2,0.4-0.4,0.6l-1.5,2.1H328.6z"/>
					<path fill="#D3D3D3" d="M332.8,86.6c0.6,0,1.1,0.2,1.4,0.5c0.3,0.3,0.5,0.7,0.5,1.3c0,0.6-0.2,1.1-0.6,1.5s-0.9,0.5-1.7,0.5
						c-0.7,0-1.2-0.1-1.5-0.3v-0.9c0.2,0.1,0.5,0.2,0.7,0.3c0.3,0.1,0.5,0.1,0.8,0.1c0.4,0,0.7-0.1,1-0.3c0.2-0.2,0.3-0.5,0.3-0.8
						c0-0.7-0.4-1.1-1.3-1.1c-0.1,0-0.3,0-0.5,0s-0.3,0.1-0.5,0.1l-0.4-0.2l0.2-2.9h3v0.8h-2.2l-0.1,1.5c0.1,0,0.2,0,0.3-0.1
						C332.5,86.6,332.6,86.6,332.8,86.6z"/>
					<path fill="#D3D3D3" d="M338.1,86.1c0,0.6-0.1,1.1-0.3,1.4c-0.2,0.3-0.5,0.5-1,0.5c-0.4,0-0.7-0.2-0.9-0.5
						c-0.2-0.3-0.3-0.8-0.3-1.4c0-1.2,0.4-1.8,1.3-1.8c0.4,0,0.7,0.2,1,0.5C338,85.1,338.1,85.5,338.1,86.1z M336.3,86.1
						c0,0.4,0,0.7,0.1,0.9c0.1,0.2,0.2,0.3,0.4,0.3c0.4,0,0.5-0.4,0.5-1.2s-0.2-1.2-0.5-1.2c-0.2,0-0.3,0.1-0.4,0.3
						C336.3,85.4,336.3,85.7,336.3,86.1z M340.7,84.4l-3.3,5.9h-0.8l3.3-5.9H340.7z M341.9,88.5c0,0.6-0.1,1.1-0.3,1.4
						s-0.5,0.5-1,0.5c-0.4,0-0.7-0.2-0.9-0.5c-0.2-0.3-0.3-0.8-0.3-1.4c0-1.2,0.4-1.8,1.3-1.8c0.4,0,0.7,0.2,1,0.5
						S341.9,87.9,341.9,88.5z M340.1,88.5c0,0.4,0,0.7,0.1,0.9c0.1,0.2,0.2,0.3,0.4,0.3c0.4,0,0.5-0.4,0.5-1.2
						c0-0.8-0.2-1.2-0.5-1.2c-0.2,0-0.3,0.1-0.4,0.3C340.1,87.8,340.1,88.1,340.1,88.5z"/>
					<path fill="#D3D3D3" d="M353.2,88.4v-0.8h2.1v0.8H353.2z"/>
					<path fill="#D3D3D3" d="M370.5,88.4c0,0.4-0.1,0.7-0.4,1s-0.7,0.4-1.2,0.5v0.9h-0.5v-0.8c-0.7,0-1.2-0.1-1.6-0.3v-0.8
						c0.2,0.1,0.5,0.2,0.8,0.3c0.3,0.1,0.6,0.1,0.8,0.1v-1.5l-0.3-0.1c-0.4-0.2-0.8-0.4-1-0.6c-0.2-0.2-0.3-0.5-0.3-0.9
						c0-0.4,0.1-0.7,0.4-0.9c0.3-0.2,0.7-0.4,1.2-0.4V84h0.5v0.7c0.5,0,1.1,0.1,1.5,0.3l-0.3,0.7c-0.4-0.2-0.8-0.3-1.3-0.3v1.5
						l0.3,0.1c0.5,0.2,0.9,0.4,1.1,0.6C370.4,87.8,370.5,88.1,370.5,88.4z M367.7,86c0,0.2,0,0.3,0.1,0.4s0.3,0.2,0.5,0.3v-1.2
						c-0.2,0-0.4,0.1-0.5,0.2C367.7,85.7,367.7,85.8,367.7,86z M369.5,88.5c0-0.2-0.1-0.3-0.2-0.4c-0.1-0.1-0.3-0.2-0.5-0.3v1.3
						C369.3,89,369.5,88.8,369.5,88.5z"/>
					<path fill="#D3D3D3" d="M374,90.2h-0.9v-3.8c0-0.5,0-0.8,0-1.1c-0.1,0.1-0.1,0.1-0.2,0.2c-0.1,0.1-0.4,0.3-0.9,0.7l-0.5-0.6
						l1.7-1.4h0.8V90.2z"/>
					<path fill="#D3D3D3" d="M378.7,90.2h-0.9v-3.8c0-0.5,0-0.8,0-1.1c-0.1,0.1-0.1,0.1-0.2,0.2c-0.1,0.1-0.4,0.3-0.9,0.7l-0.5-0.6
						l1.7-1.4h0.8V90.2z"/>
					<path fill="#D3D3D3" d="M380.8,89.7c0-0.2,0.1-0.3,0.2-0.5c0.1-0.1,0.2-0.2,0.4-0.2c0.2,0,0.3,0.1,0.4,0.2s0.2,0.3,0.2,0.4
						c0,0.2-0.1,0.3-0.2,0.5c-0.1,0.1-0.3,0.2-0.4,0.2s-0.3-0.1-0.4-0.2C380.9,90.1,380.8,89.9,380.8,89.7z"/>
					<path fill="#D3D3D3" d="M386.9,87.3c0,1-0.2,1.8-0.5,2.3c-0.3,0.5-0.8,0.7-1.5,0.7c-0.7,0-1.1-0.3-1.5-0.8s-0.5-1.3-0.5-2.2
						c0-1,0.2-1.8,0.5-2.3c0.3-0.5,0.8-0.7,1.5-0.7c0.7,0,1.2,0.3,1.5,0.8S386.9,86.3,386.9,87.3z M383.9,87.3
						c0,0.8,0.1,1.4,0.2,1.7c0.2,0.3,0.4,0.5,0.8,0.5s0.6-0.2,0.8-0.5s0.3-0.9,0.3-1.7c0-0.8-0.1-1.4-0.3-1.7
						c-0.2-0.4-0.4-0.5-0.8-0.5s-0.6,0.2-0.8,0.5C383.9,85.9,383.9,86.5,383.9,87.3z"/>
					<path fill="#D3D3D3" d="M388.3,90.2l2.3-5h-3v-0.8h4.1V85l-2.3,5.2H388.3z"/>
					<path fill="#D3D3D3" d="M393.5,87.9l0.5-0.7l1.3-1.4h1.1l-1.8,1.9l1.9,2.5h-1.1l-1.4-1.9l-0.5,0.4v1.5h-0.9V84h0.9v3
						L393.5,87.9L393.5,87.9z"/>
				</g>
				<g>
					<path fill="#D3D3D3" d="M321,99c-0.5,0-0.8-0.1-1.1-0.4c-0.2-0.3-0.4-0.7-0.4-1.2c0-0.5,0.1-0.9,0.4-1.2
						c0.3-0.3,0.6-0.4,1.1-0.4c0.3,0,0.6,0.1,0.9,0.2l-0.2,0.5c-0.3-0.1-0.5-0.2-0.7-0.2c-0.5,0-0.8,0.4-0.8,1.1
						c0,0.4,0.1,0.6,0.2,0.8s0.3,0.3,0.6,0.3c0.3,0,0.6-0.1,0.9-0.2v0.6c-0.1,0.1-0.2,0.1-0.4,0.2C321.4,99,321.2,99,321,99z"/>
					<path fill="#D3D3D3" d="M325.5,97.3c0,0.5-0.1,0.9-0.4,1.2c-0.3,0.3-0.6,0.4-1.1,0.4c-0.3,0-0.6-0.1-0.8-0.2s-0.4-0.3-0.5-0.6
						c-0.1-0.3-0.2-0.5-0.2-0.9c0-0.5,0.1-0.9,0.4-1.2c0.3-0.3,0.6-0.4,1.1-0.4c0.5,0,0.8,0.1,1.1,0.4
						C325.4,96.4,325.5,96.8,325.5,97.3z M323.2,97.3c0,0.7,0.3,1.1,0.8,1.1c0.5,0,0.8-0.4,0.8-1.1c0-0.7-0.3-1.1-0.8-1.1
						c-0.3,0-0.5,0.1-0.6,0.3S323.2,97,323.2,97.3z"/>
					<path fill="#D3D3D3" d="M328.9,98.9h-0.7v-2c0-0.2,0-0.4-0.1-0.5s-0.2-0.2-0.4-0.2c-0.3,0-0.5,0.1-0.6,0.3
						c-0.1,0.2-0.2,0.5-0.2,0.8v1.6h-0.7v-3.2h0.5l0.1,0.4h0c0.1-0.2,0.2-0.3,0.4-0.3c0.2-0.1,0.4-0.1,0.6-0.1c0.5,0,0.8,0.2,1,0.5
						h0c0.1-0.2,0.2-0.3,0.4-0.4s0.4-0.1,0.6-0.1c0.4,0,0.7,0.1,0.8,0.3c0.2,0.2,0.3,0.5,0.3,0.9v2.1h-0.7v-2c0-0.2,0-0.4-0.1-0.5
						c-0.1-0.1-0.2-0.2-0.4-0.2c-0.3,0-0.5,0.1-0.6,0.2c-0.1,0.2-0.2,0.4-0.2,0.8V98.9z"/>
					<path fill="#D3D3D3" d="M333.5,99c-0.4,0-0.7-0.1-0.9-0.4h0c0,0.3,0,0.4,0,0.5v1.3h-0.7v-4.6h0.5c0,0.1,0,0.2,0.1,0.4h0
						c0.2-0.3,0.5-0.5,0.9-0.5c0.4,0,0.7,0.1,0.9,0.4c0.2,0.3,0.3,0.7,0.3,1.2s-0.1,0.9-0.3,1.2C334.2,98.8,333.9,99,333.5,99z
						 M333.3,96.2c-0.3,0-0.5,0.1-0.6,0.2c-0.1,0.2-0.2,0.4-0.2,0.8v0.1c0,0.4,0.1,0.7,0.2,0.8s0.3,0.3,0.6,0.3
						c0.2,0,0.4-0.1,0.5-0.3s0.2-0.5,0.2-0.8c0-0.4-0.1-0.6-0.2-0.8C333.7,96.3,333.6,96.2,333.3,96.2z"/>
					<path fill="#D3D3D3" d="M336.2,98.9h-0.7v-4.5h0.7V98.9z"/>
					<path fill="#D3D3D3" d="M338.5,99c-0.5,0-0.9-0.1-1.2-0.4c-0.3-0.3-0.4-0.7-0.4-1.2c0-0.5,0.1-0.9,0.4-1.2s0.6-0.4,1.1-0.4
						c0.4,0,0.7,0.1,1,0.4c0.2,0.3,0.4,0.6,0.4,1v0.4h-2.1c0,0.3,0.1,0.5,0.2,0.7c0.2,0.2,0.4,0.2,0.7,0.2c0.2,0,0.4,0,0.5-0.1
						c0.2,0,0.3-0.1,0.5-0.2v0.5c-0.2,0.1-0.3,0.1-0.5,0.2S338.8,99,338.5,99z M338.4,96.2c-0.2,0-0.4,0.1-0.5,0.2s-0.2,0.3-0.2,0.6
						h1.4c0-0.3-0.1-0.5-0.2-0.6S338.6,96.2,338.4,96.2z"/>
					<path fill="#D3D3D3" d="M341.7,98.4c0.2,0,0.3,0,0.5-0.1v0.5c-0.1,0-0.2,0.1-0.3,0.1c-0.1,0-0.2,0-0.4,0c-0.6,0-1-0.3-1-1v-1.7
						h-0.4V96l0.5-0.2l0.2-0.7h0.4v0.7h0.9v0.5h-0.9V98c0,0.2,0,0.3,0.1,0.4C341.5,98.4,341.6,98.4,341.7,98.4z"/>
					<path fill="#D3D3D3" d="M342.8,94.9c0-0.1,0-0.2,0.1-0.3c0.1-0.1,0.2-0.1,0.3-0.1c0.1,0,0.2,0,0.3,0.1c0.1,0.1,0.1,0.2,0.1,0.3
						c0,0.1,0,0.2-0.1,0.3c-0.1,0.1-0.2,0.1-0.3,0.1c-0.1,0-0.2,0-0.3-0.1C342.8,95.1,342.8,95,342.8,94.9z M343.5,98.9h-0.7v-3.2
						h0.7V98.9z"/>
					<path fill="#D3D3D3" d="M347.3,97.3c0,0.5-0.1,0.9-0.4,1.2c-0.3,0.3-0.6,0.4-1.1,0.4c-0.3,0-0.6-0.1-0.8-0.2s-0.4-0.3-0.5-0.6
						c-0.1-0.3-0.2-0.5-0.2-0.9c0-0.5,0.1-0.9,0.4-1.2c0.3-0.3,0.6-0.4,1.1-0.4c0.5,0,0.8,0.1,1.1,0.4
						C347.2,96.4,347.3,96.8,347.3,97.3z M345,97.3c0,0.7,0.3,1.1,0.8,1.1c0.5,0,0.8-0.4,0.8-1.1c0-0.7-0.3-1.1-0.8-1.1
						c-0.3,0-0.5,0.1-0.6,0.3S345,97,345,97.3z"/>
					<path fill="#D3D3D3" d="M350.9,98.9h-0.7V97c0-0.2,0-0.4-0.1-0.5c-0.1-0.1-0.3-0.2-0.5-0.2c-0.3,0-0.5,0.1-0.6,0.3
						s-0.2,0.4-0.2,0.8v1.6h-0.7v-3.2h0.5l0.1,0.4h0c0.1-0.2,0.2-0.3,0.4-0.3c0.2-0.1,0.4-0.1,0.6-0.1c0.8,0,1.1,0.4,1.1,1.2V98.9z"
						/>
				</g>
				<g>
					<path fill="#D3D3D3" d="M373,95.7c0.1,0,0.2,0,0.3,0l-0.1,0.6c-0.1,0-0.2,0-0.3,0c-0.3,0-0.5,0.1-0.7,0.3s-0.3,0.4-0.3,0.7v1.7
						h-0.7v-3.2h0.5l0.1,0.6h0c0.1-0.2,0.2-0.3,0.4-0.5C372.6,95.7,372.8,95.7,373,95.7z"/>
					<path fill="#D3D3D3" d="M375.3,99c-0.5,0-0.9-0.1-1.2-0.4c-0.3-0.3-0.4-0.7-0.4-1.2c0-0.5,0.1-0.9,0.4-1.2s0.6-0.4,1.1-0.4
						c0.4,0,0.7,0.1,1,0.4c0.2,0.3,0.4,0.6,0.4,1v0.4h-2.1c0,0.3,0.1,0.5,0.2,0.7c0.2,0.2,0.4,0.2,0.7,0.2c0.2,0,0.4,0,0.5-0.1
						c0.2,0,0.3-0.1,0.5-0.2v0.5c-0.2,0.1-0.3,0.1-0.5,0.2S375.5,99,375.3,99z M375.2,96.2c-0.2,0-0.4,0.1-0.5,0.2s-0.2,0.3-0.2,0.6
						h1.4c0-0.3-0.1-0.5-0.2-0.6S375.4,96.2,375.2,96.2z"/>
					<path fill="#D3D3D3" d="M378,98.9l-1.2-3.2h0.7l0.6,1.8c0.1,0.3,0.2,0.6,0.2,0.8h0c0-0.1,0.1-0.4,0.2-0.8l0.6-1.8h0.7l-1.2,3.2
						H378z"/>
					<path fill="#D3D3D3" d="M381.8,99c-0.5,0-0.9-0.1-1.2-0.4c-0.3-0.3-0.4-0.7-0.4-1.2c0-0.5,0.1-0.9,0.4-1.2s0.6-0.4,1.1-0.4
						c0.4,0,0.7,0.1,1,0.4c0.2,0.3,0.4,0.6,0.4,1v0.4H381c0,0.3,0.1,0.5,0.2,0.7c0.2,0.2,0.4,0.2,0.7,0.2c0.2,0,0.4,0,0.5-0.1
						c0.2,0,0.3-0.1,0.5-0.2v0.5c-0.2,0.1-0.3,0.1-0.5,0.2S382.1,99,381.8,99z M381.7,96.2c-0.2,0-0.4,0.1-0.5,0.2S381,96.7,381,97
						h1.4c0-0.3-0.1-0.5-0.2-0.6S381.9,96.2,381.7,96.2z"/>
					<path fill="#D3D3D3" d="M386.6,98.9H386V97c0-0.2,0-0.4-0.1-0.5c-0.1-0.1-0.3-0.2-0.5-0.2c-0.3,0-0.5,0.1-0.6,0.3
						s-0.2,0.4-0.2,0.8v1.6h-0.7v-3.2h0.5l0.1,0.4h0c0.1-0.2,0.2-0.3,0.4-0.3c0.2-0.1,0.4-0.1,0.6-0.1c0.8,0,1.1,0.4,1.1,1.2V98.9z"
						/>
					<path fill="#D3D3D3" d="M389.8,98.9l-0.1-0.4h0c-0.1,0.1-0.2,0.3-0.4,0.3s-0.4,0.1-0.6,0.1c-0.4,0-0.7-0.1-0.9-0.3
						c-0.2-0.2-0.3-0.5-0.3-0.9v-2.1h0.7v2c0,0.2,0,0.4,0.1,0.5c0.1,0.1,0.3,0.2,0.5,0.2c0.3,0,0.5-0.1,0.6-0.3
						c0.1-0.2,0.2-0.5,0.2-0.8v-1.6h0.7v3.2H389.8z"/>
					<path fill="#D3D3D3" d="M392.7,99c-0.5,0-0.9-0.1-1.2-0.4c-0.3-0.3-0.4-0.7-0.4-1.2c0-0.5,0.1-0.9,0.4-1.2s0.6-0.4,1.1-0.4
						c0.4,0,0.7,0.1,1,0.4c0.2,0.3,0.4,0.6,0.4,1v0.4h-2.1c0,0.3,0.1,0.5,0.2,0.7c0.2,0.2,0.4,0.2,0.7,0.2c0.2,0,0.4,0,0.5-0.1
						c0.2,0,0.3-0.1,0.5-0.2v0.5c-0.2,0.1-0.3,0.1-0.5,0.2S392.9,99,392.7,99z M392.6,96.2c-0.2,0-0.4,0.1-0.5,0.2s-0.2,0.3-0.2,0.6
						h1.4c0-0.3-0.1-0.5-0.2-0.6S392.8,96.2,392.6,96.2z"/>
				</g>
			</g>
		</g>
		<g>
			<path fill="#989898" d="M313.9,57h-68.7c-1.1,0-2.1-0.9-2.1-2.1v-0.3c0-1.1,0.9-2.1,2.1-2.1h68.7c1.1,0,2.1,0.9,2.1,2.1v0.3
				C315.9,56,315,57,313.9,57z"/>
			<path fill="#FFCB05" d="M243.8,57H125c-1.1,0-2.1-0.9-2.1-2.1v-0.3c0-1.1,0.9-2.1,2.1-2.1h118.8c1.1,0,2.1,0.9,2.1,2.1v0.3
				C245.8,56,244.9,57,243.8,57z"/>
			<g>
				<path fill="#FFFFFF" d="M244.1,60.9c-3.4,0-6.1-2.8-6.1-6.1s2.8-6.1,6.1-6.1s6.1,2.8,6.1,6.1S247.5,60.9,244.1,60.9z"/>
				<path fill="#787878" d="M244.1,50.1c2.6,0,4.6,2.1,4.6,4.6c0,2.6-2.1,4.6-4.6,4.6s-4.6-2.1-4.6-4.6
					C239.5,52.2,241.6,50.1,244.1,50.1 M244.1,47.1c-4.2,0-7.6,3.4-7.6,7.6c0,4.2,3.4,7.6,7.6,7.6s7.6-3.4,7.6-7.6
					C251.8,50.5,248.4,47.1,244.1,47.1L244.1,47.1z"/>
			</g>
			<g>
				<path fill="#D3D3D3" d="M16.4,53h-1.3v-8h4.5v1.1h-3.2v2.5h3v1.1h-3V53z"/>
				<path fill="#D3D3D3" d="M24.7,53l-0.3-0.8h0c-0.3,0.4-0.6,0.6-0.9,0.7s-0.7,0.2-1.1,0.2c-0.6,0-1.1-0.2-1.4-0.5
					c-0.3-0.3-0.5-0.8-0.5-1.4c0-0.6,0.2-1.1,0.7-1.4c0.5-0.3,1.2-0.5,2.1-0.5l1,0V49c0-0.4-0.1-0.7-0.3-0.9s-0.5-0.3-0.8-0.3
					c-0.3,0-0.6,0-0.9,0.1c-0.3,0.1-0.6,0.2-0.8,0.3l-0.4-0.9c0.3-0.2,0.7-0.3,1.1-0.4c0.4-0.1,0.8-0.1,1.1-0.1
					c0.8,0,1.3,0.2,1.7,0.5s0.6,0.9,0.6,1.6V53H24.7z M22.8,52.1c0.5,0,0.8-0.1,1.1-0.4s0.4-0.6,0.4-1.1v-0.5l-0.8,0
					c-0.6,0-1,0.1-1.3,0.3c-0.3,0.2-0.4,0.5-0.4,0.8c0,0.3,0.1,0.5,0.2,0.6S22.4,52.1,22.8,52.1z"/>
				<path fill="#D3D3D3" d="M30.4,46.8c0.3,0,0.5,0,0.6,0.1l-0.1,1.2c-0.2,0-0.4-0.1-0.6-0.1c-0.5,0-0.9,0.2-1.2,0.5
					c-0.3,0.3-0.5,0.8-0.5,1.3V53h-1.3v-6h1l0.2,1.1h0.1c0.2-0.4,0.5-0.6,0.8-0.9S30,46.8,30.4,46.8z"/>
				<path fill="#D3D3D3" d="M37.5,53h-1.3v-3.7c0-0.5-0.1-0.8-0.3-1s-0.5-0.3-0.9-0.3c-0.5,0-0.9,0.2-1.2,0.5
					c-0.2,0.3-0.4,0.9-0.4,1.6v3h-1.3v-6h1l0.2,0.8h0.1c0.2-0.3,0.4-0.5,0.8-0.7c0.3-0.2,0.7-0.2,1.1-0.2c1.4,0,2.2,0.7,2.2,2.2V53z
					"/>
				<path fill="#D3D3D3" d="M43.3,51.2c0,0.6-0.2,1-0.6,1.4s-1,0.5-1.8,0.5c-0.8,0-1.4-0.1-1.9-0.4v-1.1c0.7,0.3,1.4,0.5,2,0.5
					c0.8,0,1.2-0.2,1.2-0.7c0-0.2,0-0.3-0.1-0.4c-0.1-0.1-0.2-0.2-0.4-0.3c-0.2-0.1-0.5-0.2-0.8-0.4c-0.7-0.3-1.2-0.5-1.4-0.8
					s-0.4-0.6-0.4-1c0-0.5,0.2-0.9,0.6-1.2c0.4-0.3,1-0.4,1.7-0.4c0.7,0,1.4,0.1,2,0.4l-0.4,1c-0.6-0.3-1.2-0.4-1.6-0.4
					c-0.7,0-1,0.2-1,0.6c0,0.2,0.1,0.3,0.3,0.5c0.2,0.1,0.6,0.3,1.2,0.5c0.5,0.2,0.9,0.4,1.1,0.5c0.2,0.2,0.4,0.3,0.5,0.6
					S43.3,51,43.3,51.2z"/>
				<path fill="#D3D3D3" d="M49.6,53l-0.8-2.8c-0.1-0.3-0.3-1-0.5-2.1h0c-0.2,1-0.4,1.7-0.5,2.1L47,53h-1.4l-1.7-6h1.3l0.8,3
					c0.2,0.7,0.3,1.4,0.4,1.9h0c0-0.3,0.1-0.6,0.2-0.9c0.1-0.3,0.1-0.6,0.2-0.8l0.9-3.2H49l0.9,3.2c0.1,0.2,0.1,0.5,0.2,0.8
					c0.1,0.4,0.1,0.7,0.1,0.9h0c0.1-0.4,0.2-1.1,0.4-1.9l0.8-3h1.3L51,53H49.6z"/>
				<path fill="#D3D3D3" d="M59.1,49.9c0,1-0.3,1.8-0.8,2.3c-0.5,0.6-1.2,0.8-2.1,0.8c-0.6,0-1.1-0.1-1.5-0.4
					c-0.4-0.3-0.8-0.6-1-1.1c-0.2-0.5-0.3-1-0.3-1.7c0-1,0.3-1.7,0.8-2.3c0.5-0.5,1.2-0.8,2.1-0.8c0.9,0,1.6,0.3,2.1,0.8
					C58.9,48.2,59.1,49,59.1,49.9z M54.7,49.9c0,1.4,0.5,2.1,1.5,2.1c1,0,1.5-0.7,1.5-2.1c0-1.4-0.5-2.1-1.5-2.1
					c-0.5,0-0.9,0.2-1.2,0.5C54.9,48.8,54.7,49.3,54.7,49.9z"/>
				<path fill="#D3D3D3" d="M63.6,46.8c0.3,0,0.5,0,0.6,0.1l-0.1,1.2C64,48,63.8,48,63.6,48c-0.5,0-0.9,0.2-1.2,0.5
					c-0.3,0.3-0.5,0.8-0.5,1.3V53h-1.3v-6h1l0.2,1.1h0.1c0.2-0.4,0.5-0.6,0.8-0.9S63.3,46.8,63.6,46.8z"/>
				<path fill="#D3D3D3" d="M67.6,52c0.3,0,0.6,0,0.9-0.1v1C68.4,52.9,68.3,53,68,53c-0.2,0-0.5,0.1-0.7,0.1c-1.2,0-1.8-0.6-1.8-1.9
					v-3.2h-0.8v-0.6l0.9-0.5l0.4-1.3h0.8v1.3h1.7v1h-1.7v3.2c0,0.3,0.1,0.5,0.2,0.7S67.4,52,67.6,52z"/>
				<path fill="#D3D3D3" d="M75.1,53h-1.3v-3.7c0-0.5-0.1-0.8-0.3-1s-0.5-0.3-0.9-0.3c-0.5,0-0.9,0.2-1.2,0.5
					c-0.3,0.3-0.4,0.9-0.4,1.6v3h-1.3v-8.5h1.3v2.2c0,0.3,0,0.7-0.1,1.1h0.1c0.2-0.3,0.4-0.5,0.7-0.7c0.3-0.2,0.7-0.2,1.1-0.2
					c1.5,0,2.2,0.7,2.2,2.2V53z"/>
				<path fill="#D3D3D3" d="M86.2,53h-1.3v-3.6h-3.7V53h-1.3v-8h1.3v3.3h3.7V45h1.3V53z"/>
				<path fill="#D3D3D3" d="M93.5,49.9c0,1-0.3,1.8-0.8,2.3c-0.5,0.6-1.2,0.8-2.1,0.8c-0.6,0-1.1-0.1-1.5-0.4
					c-0.4-0.3-0.8-0.6-1-1.1c-0.2-0.5-0.3-1-0.3-1.7c0-1,0.3-1.7,0.8-2.3c0.5-0.5,1.2-0.8,2.1-0.8c0.9,0,1.6,0.3,2.1,0.8
					C93.2,48.2,93.5,49,93.5,49.9z M89.1,49.9c0,1.4,0.5,2.1,1.5,2.1c1,0,1.5-0.7,1.5-2.1c0-1.4-0.5-2.1-1.5-2.1
					c-0.5,0-0.9,0.2-1.2,0.5C89.2,48.8,89.1,49.3,89.1,49.9z"/>
				<path fill="#D3D3D3" d="M99.2,53L99,52.2h-0.1c-0.2,0.3-0.4,0.5-0.8,0.7c-0.3,0.2-0.7,0.2-1.1,0.2c-0.7,0-1.3-0.2-1.6-0.5
					s-0.5-0.9-0.5-1.6v-3.9h1.3v3.7c0,0.5,0.1,0.8,0.3,1c0.2,0.2,0.5,0.3,0.9,0.3c0.5,0,0.9-0.2,1.2-0.5c0.3-0.3,0.4-0.9,0.4-1.6v-3
					h1.3v6H99.2z"/>
				<path fill="#D3D3D3" d="M106.1,51.2c0,0.6-0.2,1-0.6,1.4s-1,0.5-1.8,0.5c-0.8,0-1.4-0.1-1.9-0.4v-1.1c0.7,0.3,1.4,0.5,2,0.5
					c0.8,0,1.2-0.2,1.2-0.7c0-0.2,0-0.3-0.1-0.4c-0.1-0.1-0.2-0.2-0.4-0.3c-0.2-0.1-0.5-0.2-0.8-0.4c-0.7-0.3-1.2-0.5-1.4-0.8
					s-0.4-0.6-0.4-1c0-0.5,0.2-0.9,0.6-1.2c0.4-0.3,1-0.4,1.7-0.4c0.7,0,1.4,0.1,2,0.4l-0.4,1c-0.6-0.3-1.2-0.4-1.6-0.4
					c-0.7,0-1,0.2-1,0.6c0,0.2,0.1,0.3,0.3,0.5c0.2,0.1,0.6,0.3,1.2,0.5c0.5,0.2,0.9,0.4,1.1,0.5c0.2,0.2,0.4,0.3,0.5,0.6
					S106.1,51,106.1,51.2z"/>
				<path fill="#D3D3D3" d="M110.1,53.1c-0.9,0-1.7-0.3-2.2-0.8c-0.5-0.5-0.8-1.3-0.8-2.3c0-1,0.2-1.8,0.7-2.3
					c0.5-0.6,1.2-0.8,2-0.8c0.8,0,1.4,0.2,1.9,0.7c0.5,0.5,0.7,1.1,0.7,2v0.7h-4c0,0.6,0.2,1,0.5,1.3c0.3,0.3,0.7,0.5,1.3,0.5
					c0.4,0,0.7,0,1-0.1c0.3-0.1,0.6-0.2,1-0.3v1c-0.3,0.1-0.6,0.3-0.9,0.3C110.8,53,110.5,53.1,110.1,53.1z M109.8,47.8
					c-0.4,0-0.7,0.1-1,0.4c-0.2,0.3-0.4,0.6-0.4,1.1h2.7c0-0.5-0.1-0.9-0.4-1.1S110.2,47.8,109.8,47.8z"/>
				<path fill="#D3D3D3" d="M36.2,59.8c0,1-0.3,1.7-0.8,2.2s-1.3,0.8-2.3,0.8h-1.6v-5.9h1.8c0.9,0,1.7,0.3,2.2,0.8
					C35.9,58.2,36.2,58.9,36.2,59.8z M35.2,59.9c0-1.4-0.7-2.1-2-2.1h-0.8V62H33C34.5,62,35.2,61.3,35.2,59.9z"/>
				<path fill="#D3D3D3" d="M39.3,62.9c-0.7,0-1.2-0.2-1.6-0.6s-0.6-1-0.6-1.7c0-0.7,0.2-1.3,0.5-1.7s0.9-0.6,1.5-0.6
					c0.6,0,1,0.2,1.4,0.5c0.3,0.4,0.5,0.8,0.5,1.5v0.5h-3c0,0.4,0.1,0.8,0.3,1c0.2,0.2,0.5,0.3,0.9,0.3c0.3,0,0.5,0,0.7-0.1
					c0.2,0,0.5-0.1,0.7-0.2v0.8c-0.2,0.1-0.5,0.2-0.7,0.2S39.6,62.9,39.3,62.9z M39.1,59c-0.3,0-0.5,0.1-0.7,0.3
					c-0.2,0.2-0.3,0.5-0.3,0.8h2c0-0.4-0.1-0.6-0.3-0.8C39.6,59.1,39.4,59,39.1,59z"/>
				<path fill="#D3D3D3" d="M45,61.6c0,0.4-0.2,0.8-0.5,1c-0.3,0.2-0.8,0.3-1.4,0.3c-0.6,0-1.1-0.1-1.4-0.3v-0.8
					c0.5,0.2,1,0.4,1.5,0.4c0.6,0,0.9-0.2,0.9-0.5c0-0.1,0-0.2-0.1-0.3c-0.1-0.1-0.2-0.2-0.3-0.2c-0.1-0.1-0.4-0.2-0.6-0.3
					c-0.5-0.2-0.9-0.4-1-0.6c-0.2-0.2-0.3-0.5-0.3-0.8c0-0.4,0.2-0.7,0.5-0.9c0.3-0.2,0.7-0.3,1.2-0.3c0.5,0,1,0.1,1.5,0.3l-0.3,0.7
					c-0.5-0.2-0.9-0.3-1.2-0.3c-0.5,0-0.7,0.1-0.7,0.4c0,0.1,0.1,0.3,0.2,0.4c0.1,0.1,0.4,0.2,0.8,0.4c0.4,0.1,0.6,0.3,0.8,0.4
					c0.2,0.1,0.3,0.3,0.4,0.4C45,61.2,45,61.3,45,61.6z"/>
				<path fill="#D3D3D3" d="M46,57.2c0-0.2,0-0.3,0.1-0.4s0.2-0.1,0.4-0.1c0.2,0,0.3,0,0.4,0.1s0.1,0.2,0.1,0.4c0,0.2,0,0.3-0.1,0.4
					s-0.2,0.1-0.4,0.1c-0.2,0-0.3,0-0.4-0.1S46,57.4,46,57.2z M47,62.8h-0.9v-4.4H47V62.8z"/>
				<path fill="#D3D3D3" d="M52.1,58.4v0.5L51.3,59c0.1,0.1,0.1,0.2,0.2,0.3c0,0.1,0.1,0.3,0.1,0.4c0,0.5-0.2,0.8-0.5,1.1
					s-0.8,0.4-1.3,0.4c-0.1,0-0.3,0-0.4,0c-0.2,0.1-0.3,0.3-0.3,0.4c0,0.1,0,0.2,0.1,0.2c0.1,0.1,0.3,0.1,0.5,0.1h0.8
					c0.5,0,0.9,0.1,1.1,0.3c0.3,0.2,0.4,0.5,0.4,0.9c0,0.5-0.2,0.9-0.6,1.2s-1,0.4-1.8,0.4c-0.6,0-1.1-0.1-1.4-0.3
					c-0.3-0.2-0.5-0.5-0.5-0.9c0-0.3,0.1-0.5,0.3-0.7c0.2-0.2,0.4-0.3,0.7-0.4c-0.1-0.1-0.2-0.1-0.3-0.3s-0.1-0.2-0.1-0.4
					c0-0.2,0-0.3,0.1-0.4c0.1-0.1,0.2-0.2,0.4-0.3c-0.2-0.1-0.4-0.3-0.6-0.5s-0.2-0.5-0.2-0.8c0-0.5,0.2-0.9,0.5-1.1
					c0.3-0.3,0.7-0.4,1.3-0.4c0.1,0,0.3,0,0.4,0s0.2,0,0.3,0.1H52.1z M48.6,63.5c0,0.2,0.1,0.4,0.3,0.5c0.2,0.1,0.4,0.2,0.8,0.2
					c0.5,0,0.9-0.1,1.1-0.2s0.4-0.3,0.4-0.6c0-0.2-0.1-0.3-0.2-0.4s-0.4-0.1-0.8-0.1h-0.7c-0.3,0-0.5,0.1-0.6,0.2
					S48.6,63.3,48.6,63.5z M49,59.8c0,0.3,0.1,0.5,0.2,0.6c0.1,0.1,0.3,0.2,0.6,0.2c0.5,0,0.8-0.3,0.8-0.9c0-0.3-0.1-0.5-0.2-0.7
					c-0.1-0.2-0.3-0.2-0.6-0.2c-0.3,0-0.5,0.1-0.6,0.2C49.1,59.3,49,59.5,49,59.8z"/>
				<path fill="#D3D3D3" d="M56.8,62.8h-0.9v-2.7c0-0.3-0.1-0.6-0.2-0.8s-0.4-0.3-0.7-0.3c-0.4,0-0.7,0.1-0.9,0.4s-0.3,0.6-0.3,1.2
					v2.2h-0.9v-4.4h0.7l0.1,0.6h0c0.1-0.2,0.3-0.4,0.6-0.5c0.2-0.1,0.5-0.2,0.8-0.2c1.1,0,1.6,0.5,1.6,1.6V62.8z"/>
				<path fill="#D3D3D3" d="M65.1,59.8c0,1-0.3,1.7-0.8,2.2S63,62.8,62,62.8h-1.6v-5.9h1.8c0.9,0,1.7,0.3,2.2,0.8
					C64.9,58.2,65.1,58.9,65.1,59.8z M64.1,59.9c0-1.4-0.7-2.1-2-2.1h-0.8V62H62C63.4,62,64.1,61.3,64.1,59.9z"/>
				<path fill="#D3D3D3" d="M68.2,62.9c-0.7,0-1.2-0.2-1.6-0.6s-0.6-1-0.6-1.7c0-0.7,0.2-1.3,0.5-1.7s0.9-0.6,1.5-0.6
					c0.6,0,1,0.2,1.4,0.5c0.3,0.4,0.5,0.8,0.5,1.5v0.5h-3c0,0.4,0.1,0.8,0.3,1c0.2,0.2,0.5,0.3,0.9,0.3c0.3,0,0.5,0,0.7-0.1
					c0.2,0,0.5-0.1,0.7-0.2v0.8c-0.2,0.1-0.5,0.2-0.7,0.2S68.5,62.9,68.2,62.9z M68.1,59c-0.3,0-0.5,0.1-0.7,0.3
					c-0.2,0.2-0.3,0.5-0.3,0.8h2c0-0.4-0.1-0.6-0.3-0.8C68.6,59.1,68.4,59,68.1,59z"/>
				<path fill="#D3D3D3" d="M72,62.8l-1.7-4.4h1l0.9,2.6c0.2,0.4,0.2,0.8,0.3,1.1h0c0-0.2,0.1-0.5,0.3-1.1l0.9-2.6h1l-1.7,4.4H72z"
					/>
				<path fill="#D3D3D3" d="M77.4,62.9c-0.7,0-1.2-0.2-1.6-0.6s-0.6-1-0.6-1.7c0-0.7,0.2-1.3,0.5-1.7s0.9-0.6,1.5-0.6
					c0.6,0,1,0.2,1.4,0.5c0.3,0.4,0.5,0.8,0.5,1.5v0.5h-3c0,0.4,0.1,0.8,0.3,1c0.2,0.2,0.5,0.3,0.9,0.3c0.3,0,0.5,0,0.7-0.1
					c0.2,0,0.5-0.1,0.7-0.2v0.8c-0.2,0.1-0.5,0.2-0.7,0.2S77.7,62.9,77.4,62.9z M77.2,59c-0.3,0-0.5,0.1-0.7,0.3
					c-0.2,0.2-0.3,0.5-0.3,0.8h2c0-0.4-0.1-0.6-0.3-0.8C77.7,59.1,77.5,59,77.2,59z"/>
				<path fill="#D3D3D3" d="M81.1,62.8h-0.9v-6.2h0.9V62.8z"/>
				<path fill="#D3D3D3" d="M86.4,60.6c0,0.7-0.2,1.3-0.6,1.7c-0.4,0.4-0.9,0.6-1.6,0.6c-0.4,0-0.8-0.1-1.1-0.3
					c-0.3-0.2-0.6-0.5-0.7-0.8c-0.2-0.4-0.3-0.8-0.3-1.2c0-0.7,0.2-1.3,0.6-1.7s0.9-0.6,1.6-0.6c0.6,0,1.1,0.2,1.5,0.6
					S86.4,59.9,86.4,60.6z M83.2,60.6c0,1,0.4,1.5,1.1,1.5c0.7,0,1.1-0.5,1.1-1.5c0-1-0.4-1.5-1.1-1.5c-0.4,0-0.7,0.1-0.9,0.4
					C83.3,59.7,83.2,60.1,83.2,60.6z"/>
				<path fill="#D3D3D3" d="M89.7,62.9c-0.6,0-1-0.2-1.3-0.6h-0.1c0,0.4,0.1,0.6,0.1,0.7v1.8h-0.9v-6.4h0.8c0,0.1,0.1,0.3,0.1,0.6h0
					c0.3-0.4,0.7-0.7,1.3-0.7c0.6,0,1,0.2,1.3,0.6c0.3,0.4,0.5,1,0.5,1.7c0,0.7-0.2,1.3-0.5,1.7C90.7,62.7,90.3,62.9,89.7,62.9z
					 M89.5,59.1c-0.4,0-0.6,0.1-0.8,0.3c-0.2,0.2-0.3,0.6-0.3,1.1v0.1c0,0.5,0.1,0.9,0.3,1.2c0.2,0.2,0.5,0.4,0.8,0.4
					c0.3,0,0.6-0.1,0.8-0.4c0.2-0.3,0.3-0.6,0.3-1.1c0-0.5-0.1-0.9-0.3-1.1C90.1,59.2,89.8,59.1,89.5,59.1z"/>
				<path fill="#D3D3D3" d="M96.3,62.8h-0.9v-2.7c0-0.3-0.1-0.6-0.2-0.8c-0.1-0.2-0.3-0.3-0.6-0.3c-0.4,0-0.6,0.1-0.8,0.4
					c-0.2,0.2-0.3,0.6-0.3,1.2v2.2h-0.9v-4.4h0.7l0.1,0.6h0c0.1-0.2,0.3-0.4,0.5-0.5c0.2-0.1,0.5-0.2,0.8-0.2c0.7,0,1.1,0.2,1.4,0.7
					h0.1c0.1-0.2,0.3-0.4,0.6-0.5c0.2-0.1,0.5-0.2,0.8-0.2c0.5,0,0.9,0.1,1.2,0.4c0.2,0.3,0.4,0.7,0.4,1.2v2.9h-0.9v-2.7
					c0-0.3-0.1-0.6-0.2-0.8c-0.1-0.2-0.3-0.3-0.6-0.3c-0.4,0-0.6,0.1-0.8,0.3c-0.2,0.2-0.3,0.6-0.3,1.1V62.8z"/>
				<path fill="#D3D3D3" d="M102.4,62.9c-0.7,0-1.2-0.2-1.6-0.6s-0.6-1-0.6-1.7c0-0.7,0.2-1.3,0.5-1.7s0.9-0.6,1.5-0.6
					c0.6,0,1,0.2,1.4,0.5c0.3,0.4,0.5,0.8,0.5,1.5v0.5h-3c0,0.4,0.1,0.8,0.3,1c0.2,0.2,0.5,0.3,0.9,0.3c0.3,0,0.5,0,0.7-0.1
					c0.2,0,0.5-0.1,0.7-0.2v0.8c-0.2,0.1-0.5,0.2-0.7,0.2S102.7,62.9,102.4,62.9z M102.2,59c-0.3,0-0.5,0.1-0.7,0.3
					c-0.2,0.2-0.3,0.5-0.3,0.8h2c0-0.4-0.1-0.6-0.3-0.8C102.7,59.1,102.5,59,102.2,59z"/>
				<path fill="#D3D3D3" d="M109.1,62.8h-0.9v-2.7c0-0.3-0.1-0.6-0.2-0.8s-0.4-0.3-0.7-0.3c-0.4,0-0.7,0.1-0.9,0.4s-0.3,0.6-0.3,1.2
					v2.2h-0.9v-4.4h0.7l0.1,0.6h0c0.1-0.2,0.3-0.4,0.6-0.5c0.2-0.1,0.5-0.2,0.8-0.2c1.1,0,1.6,0.5,1.6,1.6V62.8z"/>
				<path fill="#D3D3D3" d="M112,62.1c0.2,0,0.5,0,0.7-0.1v0.7c-0.1,0-0.2,0.1-0.4,0.1s-0.3,0-0.5,0c-0.9,0-1.3-0.5-1.3-1.4v-2.4
					h-0.6v-0.4l0.6-0.3l0.3-0.9h0.6v1h1.3v0.7h-1.3v2.4c0,0.2,0.1,0.4,0.2,0.5C111.7,62.1,111.9,62.1,112,62.1z"/>
			</g>
			<g>
				<g>
					<path fill="#D3D3D3" d="M326.2,52.8c0-2.3,0.9-3.4,2.8-3.4c0.3,0,0.5,0,0.7,0.1v0.8c-0.2-0.1-0.4-0.1-0.7-0.1
						c-0.6,0-1.1,0.2-1.4,0.5c-0.3,0.3-0.5,0.9-0.5,1.6h0c0.1-0.2,0.3-0.4,0.5-0.5c0.2-0.1,0.5-0.2,0.8-0.2c0.5,0,0.9,0.2,1.2,0.5
						s0.4,0.8,0.4,1.3c0,0.6-0.2,1.1-0.5,1.5c-0.3,0.4-0.8,0.5-1.4,0.5c-0.4,0-0.8-0.1-1.1-0.3c-0.3-0.2-0.5-0.5-0.7-0.9
						C326.3,53.8,326.2,53.3,326.2,52.8z M328.2,54.6c0.3,0,0.6-0.1,0.7-0.3s0.3-0.5,0.3-0.9c0-0.3-0.1-0.6-0.2-0.8
						c-0.2-0.2-0.4-0.3-0.7-0.3c-0.2,0-0.4,0-0.6,0.1c-0.2,0.1-0.3,0.2-0.4,0.4c-0.1,0.2-0.1,0.3-0.1,0.5c0,0.4,0.1,0.7,0.3,1
						C327.6,54.5,327.9,54.6,328.2,54.6z"/>
					<path fill="#D3D3D3" d="M332.8,51.6c0.6,0,1.1,0.2,1.4,0.5c0.3,0.3,0.5,0.7,0.5,1.3c0,0.6-0.2,1.1-0.6,1.5s-0.9,0.5-1.7,0.5
						c-0.7,0-1.2-0.1-1.5-0.3v-0.9c0.2,0.1,0.5,0.2,0.7,0.3c0.3,0.1,0.5,0.1,0.8,0.1c0.4,0,0.7-0.1,1-0.3c0.2-0.2,0.3-0.5,0.3-0.8
						c0-0.7-0.4-1.1-1.3-1.1c-0.1,0-0.3,0-0.5,0s-0.3,0.1-0.5,0.1l-0.4-0.2l0.2-2.9h3v0.8h-2.2l-0.1,1.5c0.1,0,0.2,0,0.3-0.1
						C332.5,51.6,332.6,51.6,332.8,51.6z"/>
					<path fill="#D3D3D3" d="M338.1,51.2c0,0.6-0.1,1.1-0.3,1.4c-0.2,0.3-0.5,0.5-1,0.5c-0.4,0-0.7-0.2-0.9-0.5
						c-0.2-0.3-0.3-0.8-0.3-1.4c0-1.2,0.4-1.8,1.3-1.8c0.4,0,0.7,0.2,1,0.5C338,50.1,338.1,50.6,338.1,51.2z M336.3,51.2
						c0,0.4,0,0.7,0.1,0.9c0.1,0.2,0.2,0.3,0.4,0.3c0.4,0,0.5-0.4,0.5-1.2c0-0.8-0.2-1.2-0.5-1.2c-0.2,0-0.3,0.1-0.4,0.3
						C336.3,50.5,336.3,50.8,336.3,51.2z M340.7,49.4l-3.3,5.9h-0.8l3.3-5.9H340.7z M341.9,53.5c0,0.6-0.1,1.1-0.3,1.4
						c-0.2,0.3-0.5,0.5-1,0.5c-0.4,0-0.7-0.2-0.9-0.5s-0.3-0.8-0.3-1.4c0-1.2,0.4-1.8,1.3-1.8c0.4,0,0.7,0.2,1,0.5
						C341.8,52.5,341.9,52.9,341.9,53.5z M340.1,53.5c0,0.4,0,0.7,0.1,0.9c0.1,0.2,0.2,0.3,0.4,0.3c0.4,0,0.5-0.4,0.5-1.2
						c0-0.8-0.2-1.2-0.5-1.2c-0.2,0-0.3,0.1-0.4,0.3C340.1,52.8,340.1,53.1,340.1,53.5z"/>
					<path fill="#D3D3D3" d="M353.2,53.5v-0.8h2.1v0.8H353.2z"/>
					<path fill="#D3D3D3" d="M370.5,53.5c0,0.4-0.1,0.7-0.4,1s-0.7,0.4-1.2,0.5v0.9h-0.5v-0.8c-0.7,0-1.2-0.1-1.6-0.3v-0.8
						c0.2,0.1,0.5,0.2,0.8,0.3c0.3,0.1,0.6,0.1,0.8,0.1v-1.5l-0.3-0.1c-0.4-0.2-0.8-0.4-1-0.6c-0.2-0.2-0.3-0.5-0.3-0.9
						c0-0.4,0.1-0.7,0.4-0.9c0.3-0.2,0.7-0.4,1.2-0.4V49h0.5v0.7c0.5,0,1.1,0.1,1.5,0.3l-0.3,0.7c-0.4-0.2-0.8-0.3-1.3-0.3v1.5
						l0.3,0.1c0.5,0.2,0.9,0.4,1.1,0.6C370.4,52.9,370.5,53.1,370.5,53.5z M367.7,51.1c0,0.2,0,0.3,0.1,0.4s0.3,0.2,0.5,0.3v-1.2
						c-0.2,0-0.4,0.1-0.5,0.2C367.7,50.8,367.7,50.9,367.7,51.1z M369.5,53.5c0-0.2-0.1-0.3-0.2-0.4s-0.3-0.2-0.5-0.3v1.3
						C369.3,54.1,369.5,53.9,369.5,53.5z"/>
					<path fill="#D3D3D3" d="M374,55.3h-0.9v-3.8c0-0.5,0-0.8,0-1.1c-0.1,0.1-0.1,0.1-0.2,0.2c-0.1,0.1-0.4,0.3-0.9,0.7l-0.5-0.6
						l1.7-1.4h0.8V55.3z"/>
					<path fill="#D3D3D3" d="M378.7,55.3h-0.9v-3.8c0-0.5,0-0.8,0-1.1c-0.1,0.1-0.1,0.1-0.2,0.2c-0.1,0.1-0.4,0.3-0.9,0.7l-0.5-0.6
						l1.7-1.4h0.8V55.3z"/>
					<path fill="#D3D3D3" d="M380.8,54.8c0-0.2,0.1-0.3,0.2-0.4s0.2-0.2,0.4-0.2c0.2,0,0.3,0.1,0.4,0.2s0.2,0.3,0.2,0.4
						c0,0.2-0.1,0.3-0.2,0.5c-0.1,0.1-0.3,0.2-0.4,0.2s-0.3-0.1-0.4-0.2C380.9,55.1,380.8,55,380.8,54.8z"/>
					<path fill="#D3D3D3" d="M386.9,52.3c0,1-0.2,1.8-0.5,2.3c-0.3,0.5-0.8,0.7-1.5,0.7c-0.7,0-1.1-0.3-1.5-0.8s-0.5-1.3-0.5-2.2
						c0-1,0.2-1.8,0.5-2.3c0.3-0.5,0.8-0.7,1.5-0.7c0.7,0,1.2,0.3,1.5,0.8C386.7,50.6,386.9,51.4,386.9,52.3z M383.9,52.3
						c0,0.8,0.1,1.4,0.2,1.7c0.2,0.3,0.4,0.5,0.8,0.5s0.6-0.2,0.8-0.5s0.3-0.9,0.3-1.7c0-0.8-0.1-1.4-0.3-1.7s-0.4-0.5-0.8-0.5
						s-0.6,0.2-0.8,0.5C383.9,51,383.9,51.5,383.9,52.3z"/>
					<path fill="#D3D3D3" d="M391.4,50.8c0,0.4-0.1,0.7-0.3,0.9c-0.2,0.2-0.5,0.4-0.9,0.5v0c0.5,0.1,0.8,0.2,1.1,0.4
						c0.2,0.2,0.4,0.5,0.4,0.9c0,0.6-0.2,1-0.6,1.3s-1,0.5-1.7,0.5c-0.6,0-1.2-0.1-1.6-0.3v-0.8c0.2,0.1,0.5,0.2,0.8,0.3
						c0.3,0.1,0.5,0.1,0.8,0.1c0.5,0,0.8-0.1,1-0.3s0.3-0.4,0.3-0.8c0-0.3-0.1-0.5-0.4-0.7c-0.2-0.1-0.6-0.2-1.2-0.2h-0.5v-0.8h0.5
						c0.9,0,1.4-0.3,1.4-1c0-0.3-0.1-0.4-0.2-0.6s-0.4-0.2-0.7-0.2c-0.2,0-0.4,0-0.6,0.1s-0.4,0.2-0.7,0.4l-0.5-0.7
						c0.5-0.4,1.2-0.6,1.9-0.6c0.6,0,1.1,0.1,1.4,0.4C391.2,50,391.4,50.3,391.4,50.8z"/>
					<path fill="#D3D3D3" d="M393.5,52.9l0.5-0.7l1.3-1.4h1.1l-1.8,1.9l1.9,2.5h-1.1l-1.4-1.9l-0.5,0.4v1.5h-0.9V49h0.9v3
						L393.5,52.9L393.5,52.9z"/>
				</g>
				<g>
					<path fill="#D3D3D3" d="M321,64c-0.5,0-0.8-0.1-1.1-0.4s-0.4-0.7-0.4-1.2c0-0.5,0.1-0.9,0.4-1.2s0.6-0.4,1.1-0.4
						c0.3,0,0.6,0.1,0.9,0.2l-0.2,0.5c-0.3-0.1-0.5-0.2-0.7-0.2c-0.5,0-0.8,0.4-0.8,1.1c0,0.4,0.1,0.6,0.2,0.8
						c0.1,0.2,0.3,0.3,0.6,0.3c0.3,0,0.6-0.1,0.9-0.2v0.6c-0.1,0.1-0.2,0.1-0.4,0.2C321.4,64,321.2,64,321,64z"/>
					<path fill="#D3D3D3" d="M325.5,62.4c0,0.5-0.1,0.9-0.4,1.2c-0.3,0.3-0.6,0.4-1.1,0.4c-0.3,0-0.6-0.1-0.8-0.2
						c-0.2-0.1-0.4-0.3-0.5-0.6c-0.1-0.2-0.2-0.5-0.2-0.9c0-0.5,0.1-0.9,0.4-1.2c0.3-0.3,0.6-0.4,1.1-0.4c0.5,0,0.8,0.1,1.1,0.4
						C325.4,61.5,325.5,61.9,325.5,62.4z M323.2,62.4c0,0.7,0.3,1.1,0.8,1.1c0.5,0,0.8-0.4,0.8-1.1c0-0.7-0.3-1.1-0.8-1.1
						c-0.3,0-0.5,0.1-0.6,0.3C323.2,61.8,323.2,62,323.2,62.4z"/>
					<path fill="#D3D3D3" d="M328.9,64h-0.7v-2c0-0.2,0-0.4-0.1-0.5c-0.1-0.1-0.2-0.2-0.4-0.2c-0.3,0-0.5,0.1-0.6,0.3
						c-0.1,0.2-0.2,0.5-0.2,0.8V64h-0.7v-3.2h0.5l0.1,0.4h0c0.1-0.2,0.2-0.3,0.4-0.3c0.2-0.1,0.4-0.1,0.6-0.1c0.5,0,0.8,0.2,1,0.5h0
						c0.1-0.2,0.2-0.3,0.4-0.4c0.2-0.1,0.4-0.1,0.6-0.1c0.4,0,0.7,0.1,0.8,0.3c0.2,0.2,0.3,0.5,0.3,0.9V64h-0.7v-2
						c0-0.2,0-0.4-0.1-0.5c-0.1-0.1-0.2-0.2-0.4-0.2c-0.3,0-0.5,0.1-0.6,0.2c-0.1,0.2-0.2,0.4-0.2,0.8V64z"/>
					<path fill="#D3D3D3" d="M333.5,64c-0.4,0-0.7-0.1-0.9-0.4h0c0,0.3,0,0.4,0,0.5v1.3h-0.7v-4.6h0.5c0,0.1,0,0.2,0.1,0.4h0
						c0.2-0.3,0.5-0.5,0.9-0.5c0.4,0,0.7,0.1,0.9,0.4s0.3,0.7,0.3,1.2s-0.1,0.9-0.3,1.2C334.2,63.9,333.9,64,333.5,64z M333.3,61.3
						c-0.3,0-0.5,0.1-0.6,0.2c-0.1,0.2-0.2,0.4-0.2,0.8v0.1c0,0.4,0.1,0.7,0.2,0.8s0.3,0.3,0.6,0.3c0.2,0,0.4-0.1,0.5-0.3
						s0.2-0.5,0.2-0.8c0-0.4-0.1-0.6-0.2-0.8C333.7,61.4,333.6,61.3,333.3,61.3z"/>
					<path fill="#D3D3D3" d="M336.2,64h-0.7v-4.5h0.7V64z"/>
					<path fill="#D3D3D3" d="M338.5,64c-0.5,0-0.9-0.1-1.2-0.4c-0.3-0.3-0.4-0.7-0.4-1.2c0-0.5,0.1-0.9,0.4-1.2s0.6-0.4,1.1-0.4
						c0.4,0,0.7,0.1,1,0.4s0.4,0.6,0.4,1v0.4h-2.1c0,0.3,0.1,0.5,0.2,0.7c0.2,0.2,0.4,0.2,0.7,0.2c0.2,0,0.4,0,0.5-0.1
						c0.2,0,0.3-0.1,0.5-0.2v0.5c-0.2,0.1-0.3,0.1-0.5,0.2C339,64,338.8,64,338.5,64z M338.4,61.3c-0.2,0-0.4,0.1-0.5,0.2
						c-0.1,0.1-0.2,0.3-0.2,0.6h1.4c0-0.3-0.1-0.5-0.2-0.6S338.6,61.3,338.4,61.3z"/>
					<path fill="#D3D3D3" d="M341.7,63.5c0.2,0,0.3,0,0.5-0.1v0.5c-0.1,0-0.2,0.1-0.3,0.1c-0.1,0-0.2,0-0.4,0c-0.6,0-1-0.3-1-1v-1.7
						h-0.4V61l0.5-0.2l0.2-0.7h0.4v0.7h0.9v0.5h-0.9V63c0,0.2,0,0.3,0.1,0.4C341.5,63.5,341.6,63.5,341.7,63.5z"/>
					<path fill="#D3D3D3" d="M342.8,60c0-0.1,0-0.2,0.1-0.3c0.1-0.1,0.2-0.1,0.3-0.1c0.1,0,0.2,0,0.3,0.1c0.1,0.1,0.1,0.2,0.1,0.3
						c0,0.1,0,0.2-0.1,0.3c-0.1,0.1-0.2,0.1-0.3,0.1c-0.1,0-0.2,0-0.3-0.1C342.8,60.2,342.8,60.1,342.8,60z M343.5,64h-0.7v-3.2h0.7
						V64z"/>
					<path fill="#D3D3D3" d="M347.3,62.4c0,0.5-0.1,0.9-0.4,1.2c-0.3,0.3-0.6,0.4-1.1,0.4c-0.3,0-0.6-0.1-0.8-0.2
						c-0.2-0.1-0.4-0.3-0.5-0.6c-0.1-0.2-0.2-0.5-0.2-0.9c0-0.5,0.1-0.9,0.4-1.2c0.3-0.3,0.6-0.4,1.1-0.4c0.5,0,0.8,0.1,1.1,0.4
						C347.2,61.5,347.3,61.9,347.3,62.4z M345,62.4c0,0.7,0.3,1.1,0.8,1.1c0.5,0,0.8-0.4,0.8-1.1c0-0.7-0.3-1.1-0.8-1.1
						c-0.3,0-0.5,0.1-0.6,0.3C345.1,61.8,345,62,345,62.4z"/>
					<path fill="#D3D3D3" d="M350.9,64h-0.7V62c0-0.2,0-0.4-0.1-0.5c-0.1-0.1-0.3-0.2-0.5-0.2c-0.3,0-0.5,0.1-0.6,0.3
						c-0.1,0.2-0.2,0.4-0.2,0.8V64h-0.7v-3.2h0.5l0.1,0.4h0c0.1-0.2,0.2-0.3,0.4-0.3s0.4-0.1,0.6-0.1c0.8,0,1.1,0.4,1.1,1.2V64z"/>
				</g>
				<g>
					<path fill="#D3D3D3" d="M373,60.8c0.1,0,0.2,0,0.3,0l-0.1,0.6c-0.1,0-0.2,0-0.3,0c-0.3,0-0.5,0.1-0.7,0.3s-0.3,0.4-0.3,0.7V64
						h-0.7v-3.2h0.5l0.1,0.6h0c0.1-0.2,0.2-0.3,0.4-0.4S372.8,60.8,373,60.8z"/>
					<path fill="#D3D3D3" d="M375.3,64c-0.5,0-0.9-0.1-1.2-0.4c-0.3-0.3-0.4-0.7-0.4-1.2c0-0.5,0.1-0.9,0.4-1.2s0.6-0.4,1.1-0.4
						c0.4,0,0.7,0.1,1,0.4s0.4,0.6,0.4,1v0.4h-2.1c0,0.3,0.1,0.5,0.2,0.7c0.2,0.2,0.4,0.2,0.7,0.2c0.2,0,0.4,0,0.5-0.1
						c0.2,0,0.3-0.1,0.5-0.2v0.5c-0.2,0.1-0.3,0.1-0.5,0.2C375.7,64,375.5,64,375.3,64z M375.2,61.3c-0.2,0-0.4,0.1-0.5,0.2
						c-0.1,0.1-0.2,0.3-0.2,0.6h1.4c0-0.3-0.1-0.5-0.2-0.6S375.4,61.3,375.2,61.3z"/>
					<path fill="#D3D3D3" d="M378,64l-1.2-3.2h0.7l0.6,1.8c0.1,0.3,0.2,0.6,0.2,0.8h0c0-0.1,0.1-0.4,0.2-0.8l0.6-1.8h0.7l-1.2,3.2
						H378z"/>
					<path fill="#D3D3D3" d="M381.8,64c-0.5,0-0.9-0.1-1.2-0.4c-0.3-0.3-0.4-0.7-0.4-1.2c0-0.5,0.1-0.9,0.4-1.2s0.6-0.4,1.1-0.4
						c0.4,0,0.7,0.1,1,0.4s0.4,0.6,0.4,1v0.4H381c0,0.3,0.1,0.5,0.2,0.7c0.2,0.2,0.4,0.2,0.7,0.2c0.2,0,0.4,0,0.5-0.1
						c0.2,0,0.3-0.1,0.5-0.2v0.5c-0.2,0.1-0.3,0.1-0.5,0.2C382.3,64,382.1,64,381.8,64z M381.7,61.3c-0.2,0-0.4,0.1-0.5,0.2
						c-0.1,0.1-0.2,0.3-0.2,0.6h1.4c0-0.3-0.1-0.5-0.2-0.6S381.9,61.3,381.7,61.3z"/>
					<path fill="#D3D3D3" d="M386.6,64H386V62c0-0.2,0-0.4-0.1-0.5c-0.1-0.1-0.3-0.2-0.5-0.2c-0.3,0-0.5,0.1-0.6,0.3
						c-0.1,0.2-0.2,0.4-0.2,0.8V64h-0.7v-3.2h0.5l0.1,0.4h0c0.1-0.2,0.2-0.3,0.4-0.3s0.4-0.1,0.6-0.1c0.8,0,1.1,0.4,1.1,1.2V64z"/>
					<path fill="#D3D3D3" d="M389.8,64l-0.1-0.4h0c-0.1,0.1-0.2,0.3-0.4,0.3s-0.4,0.1-0.6,0.1c-0.4,0-0.7-0.1-0.9-0.3
						c-0.2-0.2-0.3-0.5-0.3-0.9v-2.1h0.7v2c0,0.2,0,0.4,0.1,0.5c0.1,0.1,0.3,0.2,0.5,0.2c0.3,0,0.5-0.1,0.6-0.3s0.2-0.5,0.2-0.8
						v-1.6h0.7V64H389.8z"/>
					<path fill="#D3D3D3" d="M392.7,64c-0.5,0-0.9-0.1-1.2-0.4c-0.3-0.3-0.4-0.7-0.4-1.2c0-0.5,0.1-0.9,0.4-1.2s0.6-0.4,1.1-0.4
						c0.4,0,0.7,0.1,1,0.4s0.4,0.6,0.4,1v0.4h-2.1c0,0.3,0.1,0.5,0.2,0.7c0.2,0.2,0.4,0.2,0.7,0.2c0.2,0,0.4,0,0.5-0.1
						c0.2,0,0.3-0.1,0.5-0.2v0.5c-0.2,0.1-0.3,0.1-0.5,0.2C393.1,64,392.9,64,392.7,64z M392.6,61.3c-0.2,0-0.4,0.1-0.5,0.2
						c-0.1,0.1-0.2,0.3-0.2,0.6h1.4c0-0.3-0.1-0.5-0.2-0.6S392.8,61.3,392.6,61.3z"/>
				</g>
			</g>
		</g>
	</g>
	<linearGradient id="SVGID_1_" gradientUnits="userSpaceOnUse" x1="76.4111" y1="72.3532" x2="396.0326" y2="72.3532">
		<stop  offset="0" style="stop-color:#808285;stop-opacity:0"/>
		<stop  offset="0.5025" style="stop-color:#808285"/>
		<stop  offset="1" style="stop-color:#808285;stop-opacity:0"/>
	</linearGradient>
	<line fill="none" stroke="url(#SVGID_1_)" stroke-miterlimit="10" x1="76.4" y1="72.4" x2="396" y2="72.4"/>
	<linearGradient id="SVGID_2_" gradientUnits="userSpaceOnUse" x1="76.4111" y1="38.2256" x2="396.0326" y2="38.2256">
		<stop  offset="0" style="stop-color:#808285;stop-opacity:0"/>
		<stop  offset="0.5025" style="stop-color:#808285"/>
		<stop  offset="1" style="stop-color:#808285;stop-opacity:0"/>
	</linearGradient>
	<line fill="none" stroke="url(#SVGID_2_)" stroke-miterlimit="10" x1="76.4" y1="38.2" x2="396" y2="38.2"/>
	<linearGradient id="SVGID_3_" gradientUnits="userSpaceOnUse" x1="76.4111" y1="144.2471" x2="396.0326" y2="144.2471">
		<stop  offset="0" style="stop-color:#808285;stop-opacity:0"/>
		<stop  offset="0.5025" style="stop-color:#808285"/>
		<stop  offset="1" style="stop-color:#808285;stop-opacity:0"/>
	</linearGradient>
	<line fill="none" stroke="url(#SVGID_3_)" stroke-miterlimit="10" x1="76.4" y1="144.2" x2="396" y2="144.2"/>
	<linearGradient id="SVGID_4_" gradientUnits="userSpaceOnUse" x1="76.4111" y1="108.3002" x2="396.0326" y2="108.3002">
		<stop  offset="0" style="stop-color:#808285;stop-opacity:0"/>
		<stop  offset="0.5025" style="stop-color:#808285"/>
		<stop  offset="1" style="stop-color:#808285;stop-opacity:0"/>
	</linearGradient>
	<line fill="none" stroke="url(#SVGID_4_)" stroke-miterlimit="10" x1="76.4" y1="108.3" x2="396" y2="108.3"/>
</g>
</svg>
