<?xml version="1.0" encoding="utf-8"?>
<!-- Generator: Adobe Illustrator 18.0.0, SVG Export Plug-In . SVG Version: 6.00 Build 0)  -->
<!DOCTYPE svg PUBLIC "-//W3C//DTD SVG 1.1//EN" "https://www.w3.org/Graphics/SVG/1.1/DTD/svg11.dtd">
<svg version="1.1" id="Layer_1" xmlns="https://www.w3.org/2000/svg" xmlns:xlink="https://www.w3.org/1999/xlink" x="0px" y="0px"
	 viewBox="0 293 400 87" enable-background="new 0 293 400 87" xml:space="preserve">
<g opacity="0.8">
	<polygon fill="#FFCB05" points="410.9,324.3 392.7,331.6 374.3,345.2 356.1,341.3 337.9,343.7 319.6,332.5 301.3,333.4 
		283.1,327.1 264.8,326.9 246.5,330.1 228.3,323.1 210,325.8 210,325.7 191.7,317.3 173.5,324.6 155.1,345.2 136.9,341.3 
		118.7,343.7 100.4,332.5 82.1,333.4 63.9,327.1 45.6,326.9 27.3,330.1 9.1,327.1 -9.2,333 -9.2,396.1 210,396.1 429.2,396.1 
		429.2,335.7 	"/>
	<polygon fill="#333333" points="410.8,332.2 392.8,339.8 374.4,338 356.2,334.7 338.2,340 319.6,344.1 301.5,339.4 283.3,321.7 
		264.8,318.7 246.5,335.8 228.3,330.8 210,334.8 210,334.9 191.6,332.2 173.6,339.8 155.2,338 137,334.7 119,340 100.4,344.1 
		82.3,339.4 64.1,321.7 45.6,318.7 27.3,335.8 9.1,334.8 -9.2,340.7 -9.2,396.1 210,396.1 429.2,396.1 429.2,339.9 	"/>
	<g>
		<polygon fill="#F15B2B" points="63.9,327.1 72.8,330.2 63.9,321.3 45.6,318.7 34.8,328.8 45.6,326.9 		"/>
	</g>
	<g>
		<polygon fill="#F15B2B" points="137,334.7 118.8,340 114.5,341.2 118.7,343.7 136.9,341.3 155.1,345.2 161,338.6 155,338 		"/>
	</g>
	<g>
		<polygon fill="#F15B2B" points="283.1,327.1 292,330.2 283.1,321.3 264.8,318.7 254,328.8 264.8,326.9 		"/>
	</g>
	<g>
		<polygon fill="#F15B2B" points="356.2,334.7 338,340 333.7,341.2 337.9,343.7 356.1,341.3 374.3,345.2 382.9,338.8 374.2,338 		
			"/>
	</g>
</g>
<polyline fill="none" stroke="#FFCB05" stroke-width="0.5239" stroke-miterlimit="10" points="-9.2,332.9 9.1,327 27.3,330 
	45.6,326.8 63.9,327 82.1,333.3 100.4,332.4 118.7,343.8 136.9,341.4 155.1,345.3 173.5,324.5 191.7,317.1 210,325.7 "/>
<polyline fill="none" stroke="#454545" stroke-width="0.5239" stroke-miterlimit="10" points="-9.2,340.7 9.1,334.8 27.3,335.7 
	45.6,318.5 63.9,321.3 82.1,339.5 100.4,344.2 118.7,339.9 136.9,334.4 155.1,338.1 173.5,339.9 191.7,332.1 210,334.9 "/>
<g opacity="0.8">
	<path fill="#454545" stroke="#FFFFFF" stroke-width="0.3929" stroke-miterlimit="10" d="M10.1,334.8c0,0.6-0.5,1-1,1
		c-0.6,0-1-0.5-1-1s0.5-1,1-1C9.6,333.8,10.1,334.2,10.1,334.8z"/>
	<path fill="#454545" stroke="#FFFFFF" stroke-width="0.3929" stroke-miterlimit="10" d="M28.4,335.7c0,0.6-0.5,1-1,1
		c-0.6,0-1-0.5-1-1c0-0.6,0.5-1,1-1C27.9,334.6,28.4,335.1,28.4,335.7z"/>
	<path fill="#F15B2B" stroke="#FFFFFF" stroke-width="0.3929" stroke-miterlimit="10" d="M46.6,318.5c0,0.6-0.5,1-1,1
		c-0.6,0-1-0.5-1-1c0-0.6,0.5-1,1-1C46.2,317.5,46.6,317.9,46.6,318.5z"/>
	<path fill="#F15B2B" stroke="#FFFFFF" stroke-width="0.3929" stroke-miterlimit="10" d="M64.9,321.3c0,0.6-0.5,1-1,1
		c-0.6,0-1-0.5-1-1s0.5-1,1-1S64.9,320.7,64.9,321.3z"/>
	<path fill="#454545" stroke="#FFFFFF" stroke-width="0.3929" stroke-miterlimit="10" d="M83.2,339.5c0,0.6-0.5,1-1,1s-1-0.5-1-1
		c0-0.6,0.5-1,1-1S83.2,339,83.2,339.5z"/>
	<path fill="#454545" stroke="#FFFFFF" stroke-width="0.3929" stroke-miterlimit="10" d="M101.4,344.2c0,0.6-0.5,1-1,1
		c-0.6,0-1-0.5-1-1c0-0.6,0.5-1,1-1S101.4,343.6,101.4,344.2z"/>
	<path fill="#F15B2B" stroke="#FFFFFF" stroke-width="0.3929" stroke-miterlimit="10" d="M119.7,339.9c0,0.6-0.5,1-1,1
		c-0.6,0-1-0.5-1-1c0-0.6,0.5-1,1-1C119.2,338.9,119.7,339.3,119.7,339.9z"/>
	<path fill="#F15B2B" stroke="#FFFFFF" stroke-width="0.3929" stroke-miterlimit="10" d="M138.5,334.4c0,0.9-0.7,1.5-1.5,1.5
		c-0.9,0-1.5-0.7-1.5-1.5c0-0.8,0.7-1.5,1.5-1.5C137.8,332.9,138.5,333.6,138.5,334.4z"/>
	<path fill="#F15B2B" stroke="#FFFFFF" stroke-width="0.3929" stroke-miterlimit="10" d="M156.1,338.1c0,0.6-0.5,1-1,1
		c-0.6,0-1-0.5-1-1c0-0.6,0.5-1,1-1C155.7,337,156.1,337.5,156.1,338.1z"/>
	<path fill="#454545" stroke="#FFFFFF" stroke-width="0.3929" stroke-miterlimit="10" d="M174.5,339.9c0,0.6-0.5,1-1,1
		c-0.6,0-1-0.5-1-1c0-0.6,0.5-1,1-1C174,338.9,174.5,339.3,174.5,339.9z"/>
	<path fill="#454545" stroke="#FFFFFF" stroke-width="0.3929" stroke-miterlimit="10" d="M192.8,332.1c0,0.6-0.5,1-1,1s-1-0.5-1-1
		c0-0.6,0.5-1,1-1S192.8,331.5,192.8,332.1z"/>
</g>
<g opacity="0.8">
	<path fill="#FFCB05" stroke="#FFFFFF" stroke-width="0.3929" stroke-miterlimit="10" d="M10.1,327.1c0,0.6-0.5,1-1,1
		c-0.6,0-1-0.5-1-1c0-0.6,0.5-1,1-1C9.6,326.1,10.1,326.5,10.1,327.1z"/>
	<path fill="#FFCB05" stroke="#FFFFFF" stroke-width="0.3929" stroke-miterlimit="10" d="M46.6,326.8c0,0.6-0.5,1-1,1
		c-0.6,0-1-0.5-1-1c0-0.6,0.5-1,1-1C46.2,325.8,46.6,326.2,46.6,326.8z"/>
	<circle fill="#FFCB05" stroke="#FFFFFF" stroke-width="0.3929" stroke-miterlimit="10" cx="118.7" cy="343.8" r="1"/>
	<path fill="#FFCB05" stroke="#FFFFFF" stroke-width="0.3929" stroke-miterlimit="10" d="M101.4,332.4c0,0.6-0.5,1-1,1
		c-0.6,0-1-0.5-1-1s0.5-1,1-1S101.4,331.8,101.4,332.4z"/>
	<circle fill="#FFCB05" stroke="#FFFFFF" stroke-width="0.3929" stroke-miterlimit="10" cx="82.1" cy="333" r="1"/>
	<circle fill="#FFCB05" stroke="#FFFFFF" stroke-width="0.3929" stroke-miterlimit="10" cx="63.9" cy="327" r="1"/>
	<path fill="#FFCB05" stroke="#FFFFFF" stroke-width="0.3929" stroke-miterlimit="10" d="M138.5,341.4c0,0.9-0.7,1.5-1.5,1.5
		c-0.9,0-1.5-0.7-1.5-1.5c0-0.9,0.7-1.5,1.5-1.5S138.5,340.5,138.5,341.4z"/>
	<path fill="#FFCB05" stroke="#FFFFFF" stroke-width="0.3929" stroke-miterlimit="10" d="M174.5,324.5c0,0.6-0.5,1-1,1
		c-0.6,0-1-0.5-1-1c0-0.6,0.5-1,1-1C174,323.5,174.5,323.9,174.5,324.5z"/>
	<path fill="#FFCB05" stroke="#FFFFFF" stroke-width="0.3929" stroke-miterlimit="10" d="M156.1,345.3c0,0.6-0.5,1-1,1
		c-0.6,0-1-0.5-1-1c0-0.6,0.5-1,1-1C155.7,344.3,156.1,344.7,156.1,345.3z"/>
	<path fill="#FFCB05" stroke="#FFFFFF" stroke-width="0.3929" stroke-miterlimit="10" d="M192.8,317.1c0,0.6-0.5,1-1,1s-1-0.5-1-1
		c0-0.6,0.5-1,1-1C192.3,316.1,192.8,316.5,192.8,317.1z"/>
	<circle fill="#FFCB05" stroke="#FFFFFF" stroke-width="0.3929" stroke-miterlimit="10" cx="27.3" cy="330" r="1"/>
</g>
<polyline fill="none" stroke="#FFCB05" stroke-width="0.5239" stroke-miterlimit="10" points="210,325.7 228.3,323 246.5,330 
	264.8,326.8 283.1,327 301.3,333.3 319.6,332.4 337.9,343.8 356.1,341.4 374.3,345.3 392.7,331.5 410.9,324.1 429.2,335.7 "/>
<polyline fill="none" stroke="#454545" stroke-width="0.5239" stroke-miterlimit="10" points="210,334.9 228.3,330.8 246.5,335.7 
	264.8,318.5 283.1,321.3 301.3,339.5 319.6,344.2 337.9,339.9 356.1,334.4 374.3,338.1 392.7,339.9 410.9,332.1 429.2,339.9 "/>
<g opacity="0.8">
	<path fill="#454545" stroke="#FFFFFF" stroke-width="0.3929" stroke-miterlimit="10" d="M229.3,330.8c0,0.6-0.5,1-1,1
		c-0.6,0-1-0.5-1-1s0.5-1,1-1C228.8,329.8,229.3,330.2,229.3,330.8z"/>
	<path fill="#454545" stroke="#FFFFFF" stroke-width="0.3929" stroke-miterlimit="10" d="M247.6,335.7c0,0.6-0.5,1-1,1s-1-0.5-1-1
		c0-0.6,0.5-1,1-1S247.6,335.1,247.6,335.7z"/>
	<path fill="#F15B2B" stroke="#FFFFFF" stroke-width="0.3929" stroke-miterlimit="10" d="M265.8,318.5c0,0.6-0.5,1-1,1
		c-0.6,0-1-0.5-1-1c0-0.6,0.5-1,1-1C265.4,317.5,265.8,317.9,265.8,318.5z"/>
	<path fill="#F15B2B" stroke="#FFFFFF" stroke-width="0.3929" stroke-miterlimit="10" d="M284.1,321.3c0,0.6-0.5,1-1,1
		c-0.6,0-1-0.5-1-1s0.5-1,1-1C283.6,320.2,284.1,320.7,284.1,321.3z"/>
	<path fill="#454545" stroke="#FFFFFF" stroke-width="0.3929" stroke-miterlimit="10" d="M302.4,339.5c0,0.6-0.5,1-1,1
		c-0.6,0-1-0.5-1-1c0-0.6,0.5-1,1-1C301.9,338.5,302.4,339,302.4,339.5z"/>
	<path fill="#454545" stroke="#FFFFFF" stroke-width="0.3929" stroke-miterlimit="10" d="M320.6,344.2c0,0.6-0.5,1-1,1
		c-0.6,0-1-0.5-1-1c0-0.6,0.5-1,1-1C320.2,343.1,320.6,343.6,320.6,344.2z"/>
	<path fill="#F15B2B" stroke="#FFFFFF" stroke-width="0.3929" stroke-miterlimit="10" d="M338.9,339.9c0,0.6-0.5,1-1,1
		c-0.6,0-1-0.5-1-1c0-0.6,0.5-1,1-1C338.4,338.9,338.9,339.3,338.9,339.9z"/>
	<path fill="#F15B2B" stroke="#FFFFFF" stroke-width="0.3929" stroke-miterlimit="10" d="M357.7,334.4c0,0.9-0.7,1.5-1.5,1.5
		c-0.9,0-1.5-0.7-1.5-1.5c0-0.8,0.7-1.5,1.5-1.5C357,332.9,357.7,333.6,357.7,334.4z"/>
	<path fill="#F15B2B" stroke="#FFFFFF" stroke-width="0.3929" stroke-miterlimit="10" d="M375.3,338.1c0,0.6-0.5,1-1,1
		c-0.6,0-1-0.5-1-1c0-0.6,0.5-1,1-1C374.9,337,375.3,337.5,375.3,338.1z"/>
	<path fill="#454545" stroke="#FFFFFF" stroke-width="0.3929" stroke-miterlimit="10" d="M393.7,339.9c0,0.6-0.5,1-1,1
		c-0.6,0-1-0.5-1-1c0-0.6,0.5-1,1-1C393.2,338.9,393.7,339.3,393.7,339.9z"/>
	<path fill="#454545" stroke="#FFFFFF" stroke-width="0.3929" stroke-miterlimit="10" d="M412,332.1c0,0.6-0.5,1-1,1
		c-0.6,0-1-0.5-1-1c0-0.6,0.5-1,1-1C411.5,331.1,412,331.5,412,332.1z"/>
</g>
<g opacity="0.8">
	<path fill="#FFCB05" stroke="#FFFFFF" stroke-width="0.3929" stroke-miterlimit="10" d="M229.3,323.1c0,0.6-0.5,1-1,1
		c-0.6,0-1-0.5-1-1c0-0.6,0.5-1,1-1C228.8,322.1,229.3,322.5,229.3,323.1z"/>
	<path fill="#FFCB05" stroke="#FFFFFF" stroke-width="0.3929" stroke-miterlimit="10" d="M265.8,326.8c0,0.6-0.5,1-1,1
		c-0.6,0-1-0.5-1-1c0-0.6,0.5-1,1-1C265.4,325.8,265.8,326.2,265.8,326.8z"/>
	<circle fill="#FFCB05" stroke="#FFFFFF" stroke-width="0.3929" stroke-miterlimit="10" cx="337.9" cy="343.8" r="1"/>
	<path fill="#FFCB05" stroke="#FFFFFF" stroke-width="0.3929" stroke-miterlimit="10" d="M320.6,332.4c0,0.6-0.5,1-1,1
		c-0.6,0-1-0.5-1-1s0.5-1,1-1C320.2,331.4,320.6,331.8,320.6,332.4z"/>
	<circle fill="#FFCB05" stroke="#FFFFFF" stroke-width="0.3929" stroke-miterlimit="10" cx="301.3" cy="333" r="1"/>
	<circle fill="#FFCB05" stroke="#FFFFFF" stroke-width="0.3929" stroke-miterlimit="10" cx="283.1" cy="327" r="1"/>
	<path fill="#FFCB05" stroke="#FFFFFF" stroke-width="0.3929" stroke-miterlimit="10" d="M357.7,341.4c0,0.9-0.7,1.5-1.5,1.5
		c-0.9,0-1.5-0.7-1.5-1.5c0-0.9,0.7-1.5,1.5-1.5C357,339.8,357.7,340.5,357.7,341.4z"/>
	<path fill="#FFCB05" stroke="#FFFFFF" stroke-width="0.3929" stroke-miterlimit="10" d="M393.7,331.5c0,0.6-0.5,1-1,1
		c-0.6,0-1-0.5-1-1c0-0.6,0.5-1,1-1C393.2,330.5,393.7,330.9,393.7,331.5z"/>
	<path fill="#FFCB05" stroke="#FFFFFF" stroke-width="0.3929" stroke-miterlimit="10" d="M375.3,345.3c0,0.6-0.5,1-1,1
		c-0.6,0-1-0.5-1-1c0-0.6,0.5-1,1-1C374.9,344.3,375.3,344.7,375.3,345.3z"/>
	<path fill="#FFCB05" stroke="#FFFFFF" stroke-width="0.3929" stroke-miterlimit="10" d="M412,324.1c0,0.6-0.5,1-1,1
		c-0.6,0-1-0.5-1-1c0-0.6,0.5-1,1-1C411.5,323.1,412,323.5,412,324.1z"/>
	<circle fill="#FFCB05" stroke="#FFFFFF" stroke-width="0.3929" stroke-miterlimit="10" cx="246.5" cy="330" r="1"/>
</g>
<path fill="#FFCB05" stroke="#FFFFFF" stroke-width="0.3929" stroke-miterlimit="10" d="M211,325.5c0,0.6-0.5,1-1,1s-1-0.5-1-1
	c0-0.6,0.5-1,1-1C210.6,324.4,211,324.9,211,325.5z"/>
<path fill="#454545" stroke="#FFFFFF" stroke-width="0.3929" stroke-miterlimit="10" d="M211,334.9c0,0.6-0.5,1-1,1s-1-0.5-1-1
	c0-0.6,0.5-1,1-1C210.6,333.9,211,334.3,211,334.9z"/>
</svg>
