<?xml version="1.0" encoding="utf-8"?>
<!-- Generator: Adobe Illustrator 18.0.0, SVG Export Plug-In . SVG Version: 6.00 Build 0)  -->
<!DOCTYPE svg PUBLIC "-//W3C//DTD SVG 1.1//EN" "http://www.w3.org/Graphics/SVG/1.1/DTD/svg11.dtd">
<svg version="1.1" id="Layer_1" xmlns="http://www.w3.org/2000/svg" xmlns:xlink="http://www.w3.org/1999/xlink" x="0px" y="0px"
	 viewBox="0 0 1000 420" enable-background="new 0 0 1000 420" xml:space="preserve">
<g>
	<g>
		<line fill="none" stroke="#888788" stroke-width="0.5" stroke-miterlimit="10" x1="-23" y1="166.2" x2="1023" y2="166.2"/>
		<line fill="none" stroke="#888788" stroke-width="0.5" stroke-miterlimit="10" x1="-23" y1="101.6" x2="1023" y2="101.6"/>
		<line fill="none" stroke="#888788" stroke-width="0.5" stroke-miterlimit="10" x1="-23" y1="225.6" x2="1023" y2="225.6"/>
		<line fill="none" stroke="#888788" stroke-width="0.5" stroke-miterlimit="10" x1="-23" y1="284.9" x2="1023" y2="284.9"/>
		<line fill="none" stroke="#888788" stroke-width="0.5" stroke-miterlimit="10" x1="-23" y1="344.3" x2="1023" y2="344.3"/>
	</g>
	<g opacity="0.8">
		<linearGradient id="SVGID_1_" gradientUnits="userSpaceOnUse" x1="673.9193" y1="397.8665" x2="673.9193" y2="21.9946">
			<stop  offset="0" style="stop-color:#FFFFFF;stop-opacity:0"/>
			<stop  offset="7.363535e-02" style="stop-color:#FFFFFF;stop-opacity:0.1458"/>
			<stop  offset="0.5051" style="stop-color:#FFFFFF"/>
			<stop  offset="0.9277" style="stop-color:#FFFFFF;stop-opacity:0.1461"/>
			<stop  offset="1" style="stop-color:#FFFFFF;stop-opacity:0"/>
		</linearGradient>
		<rect x="630.4" y="22" opacity="0.8" fill="url(#SVGID_1_)" width="87.1" height="375.9"/>
		<g>
			
				<line opacity="0.45" fill="none" stroke="#717171" stroke-width="0.5" stroke-miterlimit="10" x1="717.5" y1="21.8" x2="717.5" y2="409.6"/>
			
				<line opacity="0.45" fill="none" stroke="#717171" stroke-width="0.5" stroke-miterlimit="10" x1="630.4" y1="21.8" x2="630.4" y2="409.6"/>
		</g>
	</g>
	<g opacity="0.8">
		<polygon fill="#FFCB05" points="1023,274.7 935.8,220.1 848.7,255.1 761,320.1 674.3,301.5 587.2,313 500,259.3 412.8,263.6 
			325.7,233.7 238.5,232.9 151.3,247.8 64.2,233.7 -23,261.9 -23,420 1023,420 		"/>
		<polygon fill="#333333" points="1023,294.6 935,258.2 849.3,294.3 761.4,285.8 674.7,269.9 588.7,295.3 500,314.7 413.7,292.6 
			326.9,208 238.5,193.8 151.3,275.1 64.2,270.6 -23,298.4 -23,420 1023,420 		"/>
		<g>
			<polygon fill="#F15B2B" points="325.7,233.7 368.3,248.3 325.7,205.9 238.5,193.8 187.2,241.6 238.5,232.9 			"/>
		</g>
		<g>
			<polygon fill="#F15B2B" points="674.7,269.9 587.8,295.3 567.3,300.8 587.2,313 674.3,301.5 761,320.1 802,289.7 760.5,285.8 			
				"/>
		</g>
	</g>
	<polyline fill="none" stroke="#FFCB05" stroke-width="2" stroke-miterlimit="10" points="-23,261.6 64.2,233 151.3,247.3 
		238.5,232.2 325.7,233 412.8,263.4 500,259 587.2,313.4 674.3,301.7 761,320.5 848.7,254.7 935.8,219.3 1023,274.6 	"/>
	<polyline fill="none" stroke="#454545" stroke-width="2" stroke-miterlimit="10" points="-23,298.6 64.2,270.4 151.3,274.6 
		238.5,192.6 325.7,205.9 412.8,293 500,315.1 587.2,294.7 674.3,268.6 761,286 848.7,294.7 935.8,257.5 1023,294.7 	"/>
	<g opacity="0.8">
		<path fill="#454545" stroke="#FFFFFF" stroke-width="0.75" stroke-miterlimit="10" d="M69,270.4c0,2.7-2.2,4.9-4.9,4.9
			c-2.7,0-4.9-2.2-4.9-4.9c0-2.7,2.2-4.9,4.9-4.9C66.9,265.5,69,267.7,69,270.4z"/>
		<path fill="#454545" stroke="#FFFFFF" stroke-width="0.75" stroke-miterlimit="10" d="M156.2,274.6c0,2.7-2.2,4.9-4.9,4.9
			c-2.7,0-4.9-2.2-4.9-4.9c0-2.7,2.2-4.9,4.9-4.9C154,269.7,156.2,271.9,156.2,274.6z"/>
		<path fill="#F15B2B" stroke="#FFFFFF" stroke-width="0.75" stroke-miterlimit="10" d="M243.4,192.6c0,2.7-2.2,4.9-4.9,4.9
			c-2.7,0-4.9-2.2-4.9-4.9c0-2.7,2.2-4.9,4.9-4.9C241.2,187.7,243.4,189.9,243.4,192.6z"/>
		<path fill="#F15B2B" stroke="#FFFFFF" stroke-width="0.75" stroke-miterlimit="10" d="M330.6,205.9c0,2.7-2.2,4.9-4.9,4.9
			c-2.7,0-4.9-2.2-4.9-4.9c0-2.7,2.2-4.9,4.9-4.9C328.4,201,330.6,203.2,330.6,205.9z"/>
		<path fill="#454545" stroke="#FFFFFF" stroke-width="0.75" stroke-miterlimit="10" d="M417.7,293c0,2.7-2.2,4.9-4.9,4.9
			c-2.7,0-4.9-2.2-4.9-4.9c0-2.7,2.2-4.9,4.9-4.9C415.5,288.1,417.7,290.3,417.7,293z"/>
		<path fill="#454545" stroke="#FFFFFF" stroke-width="0.75" stroke-miterlimit="10" d="M504.9,315.1c0,2.7-2.2,4.9-4.9,4.9
			c-2.7,0-4.9-2.2-4.9-4.9c0-2.7,2.2-4.9,4.9-4.9C502.7,310.2,504.9,312.4,504.9,315.1z"/>
		<path fill="#F15B2B" stroke="#FFFFFF" stroke-width="0.75" stroke-miterlimit="10" d="M592.1,294.7c0,2.7-2.2,4.9-4.9,4.9
			c-2.7,0-4.9-2.2-4.9-4.9c0-2.7,2.2-4.9,4.9-4.9C589.9,289.8,592.1,292,592.1,294.7z"/>
		<path fill="#F15B2B" stroke="#FFFFFF" stroke-width="0.75" stroke-miterlimit="10" d="M681.7,268.6c0,4.1-3.3,7.3-7.3,7.3
			c-4.1,0-7.3-3.3-7.3-7.3c0-4,3.3-7.3,7.3-7.3C678.4,261.2,681.7,264.5,681.7,268.6z"/>
		<path fill="#F15B2B" stroke="#FFFFFF" stroke-width="0.75" stroke-miterlimit="10" d="M765.9,286c0,2.7-2.2,4.9-4.9,4.9
			c-2.7,0-4.9-2.2-4.9-4.9c0-2.7,2.2-4.9,4.9-4.9C763.7,281.1,765.9,283.3,765.9,286z"/>
		<path fill="#454545" stroke="#FFFFFF" stroke-width="0.75" stroke-miterlimit="10" d="M853.6,294.7c0,2.7-2.2,4.9-4.9,4.9
			c-2.7,0-4.9-2.2-4.9-4.9c0-2.7,2.2-4.9,4.9-4.9C851.4,289.8,853.6,292,853.6,294.7z"/>
		<path fill="#454545" stroke="#FFFFFF" stroke-width="0.75" stroke-miterlimit="10" d="M940.7,257.5c0,2.7-2.2,4.9-4.9,4.9
			c-2.7,0-4.9-2.2-4.9-4.9c0-2.7,2.2-4.9,4.9-4.9C938.5,252.6,940.7,254.8,940.7,257.5z"/>
	</g>
	<g opacity="0.8">
		<path fill="#FFCB05" stroke="#FFFFFF" stroke-width="0.75" stroke-miterlimit="10" d="M69,233.6c0,2.7-2.2,4.9-4.9,4.9
			c-2.7,0-4.9-2.2-4.9-4.9c0-2.7,2.2-4.9,4.9-4.9C66.9,228.7,69,230.8,69,233.6z"/>
		<path fill="#FFCB05" stroke="#FFFFFF" stroke-width="0.75" stroke-miterlimit="10" d="M243.4,232.2c0,2.7-2.2,4.9-4.9,4.9
			c-2.7,0-4.9-2.2-4.9-4.9c0-2.7,2.2-4.9,4.9-4.9C241.2,227.3,243.4,229.5,243.4,232.2z"/>
		<circle fill="#FFCB05" stroke="#FFFFFF" stroke-width="0.75" stroke-miterlimit="10" cx="587.2" cy="313.4" r="4.9"/>
		<path fill="#FFCB05" stroke="#FFFFFF" stroke-width="0.75" stroke-miterlimit="10" d="M504.9,258.9c0,2.7-2.2,4.9-4.9,4.9
			c-2.7,0-4.9-2.2-4.9-4.9c0-2.7,2.2-4.9,4.9-4.9C502.7,254,504.9,256.2,504.9,258.9z"/>
		<circle fill="#FFCB05" stroke="#FFFFFF" stroke-width="0.75" stroke-miterlimit="10" cx="412.8" cy="261.7" r="4.9"/>
		<circle fill="#FFCB05" stroke="#FFFFFF" stroke-width="0.75" stroke-miterlimit="10" cx="325.7" cy="233" r="4.9"/>
		<path fill="#FFCB05" stroke="#FFFFFF" stroke-width="0.75" stroke-miterlimit="10" d="M681.7,301.7c0,4.1-3.3,7.3-7.3,7.3
			c-4.1,0-7.3-3.3-7.3-7.3c0-4.1,3.3-7.3,7.3-7.3C678.4,294.4,681.7,297.7,681.7,301.7z"/>
		<path fill="#FFCB05" stroke="#FFFFFF" stroke-width="0.75" stroke-miterlimit="10" d="M853.6,254.7c0,2.7-2.2,4.9-4.9,4.9
			c-2.7,0-4.9-2.2-4.9-4.9c0-2.7,2.2-4.9,4.9-4.9C851.4,249.9,853.6,252,853.6,254.7z"/>
		<path fill="#FFCB05" stroke="#FFFFFF" stroke-width="0.75" stroke-miterlimit="10" d="M765.9,320.5c0,2.7-2.2,4.9-4.9,4.9
			c-2.7,0-4.9-2.2-4.9-4.9c0-2.7,2.2-4.9,4.9-4.9C763.7,315.6,765.9,317.8,765.9,320.5z"/>
		<path fill="#FFCB05" stroke="#FFFFFF" stroke-width="0.75" stroke-miterlimit="10" d="M940.7,219.3c0,2.7-2.2,4.9-4.9,4.9
			c-2.7,0-4.9-2.2-4.9-4.9c0-2.7,2.2-4.9,4.9-4.9C938.5,214.4,940.7,216.6,940.7,219.3z"/>
		<circle fill="#FFCB05" stroke="#FFFFFF" stroke-width="0.75" stroke-miterlimit="10" cx="151.3" cy="247.3" r="4.9"/>
	</g>
	<g>
		<rect x="637.5" y="63.1" fill="none" width="60.9" height="128.9"/>
		<text transform="matrix(1 0 0 1 647.558 74.2563)"><tspan x="0" y="0" fill="#888788" font-family="'MyriadPro-Regular'" font-size="15.698">$64.25k</tspan><tspan x="-4.8" y="18.8" fill="#888788" font-family="'MyriadPro-Regular'" font-size="15.698">-$68.13k</tspan></text>
		<rect x="637.5" y="106.6" fill="none" width="60.9" height="128.9"/>
		<text transform="matrix(1 0 0 1 648.139 117.7568)" fill="#F15B2B" font-family="'MyriadPro-Semibold'" font-size="15.698">-$4.12k</text>
		<line opacity="0.45" fill="none" stroke="#4A494A" stroke-miterlimit="10" x1="645.7" y1="101.5" x2="703.2" y2="101.5"/>
	</g>
	<rect x="725" y="63.7" fill="none" width="189.7" height="80.7"/>
	<text transform="matrix(1 0 0 1 725.0365 72.7563)"><tspan x="0" y="0" fill="#888788" font-family="'MyriadPro-Regular'" font-size="12.8176">Revenue</tspan><tspan x="0" y="20.5" fill="#888788" font-family="'MyriadPro-Regular'" font-size="12.8176">Expenses</tspan></text>
</g>
</svg>
