<?xml version="1.0" encoding="utf-8"?>
<!-- Generator: Adobe Illustrator 18.0.0, SVG Export Plug-In . SVG Version: 6.00 Build 0)  -->
<!DOCTYPE svg PUBLIC "-//W3C//DTD SVG 1.1//EN" "http://www.w3.org/Graphics/SVG/1.1/DTD/svg11.dtd">

<svg version="1.1" id="Layer_1" xmlns="http://www.w3.org/2000/svg" xmlns:xlink="http://www.w3.org/1999/xlink" x="0px" y="0px"
	 viewBox="0 0 659.7 800" enable-background="new 0 0 659.7 800" xml:space="preserve">
<g>
	<g>
		<g>
			<g>
				<path fill="#FFFFFF" d="M148.8,150.9c-24.4,0-44.3-19.9-44.3-44.3c0-24.4,19.9-44.3,44.3-44.3c24.4,0,44.3,19.9,44.3,44.3
					C193.1,131.1,173.2,150.9,148.8,150.9z M148.8,69.5c-20.5,0-37.2,16.7-37.2,37.2c0,20.5,16.7,37.2,37.2,37.2
					c20.5,0,37.2-16.7,37.2-37.2C186,86.2,169.3,69.5,148.8,69.5z"/>
			</g>
			<g>
				<path fill="#FFFFFF" d="M170.5,132.1l-7.6-8.8c0.4-0.3,0.8-0.7,1.2-1.1l8.2,8.3C171.7,131,171.1,131.5,170.5,132.1z"/>
			</g>
			<g>
				<path fill="#FFFFFF" d="M174.4,128.1l-8.9-7.5c3.3-3.9,5.1-8.9,5.1-14c0-12-9.8-21.7-21.7-21.7V73.3c18.4,0,33.4,15,33.4,33.4
					C182.2,114.5,179.4,122.1,174.4,128.1z"/>
			</g>
			<g>
				<path fill="#FFFFFF" d="M153.6,104.7l-2,3.2v0h3.3v-3.2c0-0.9,0-1.8,0.1-2.7H155C154.5,102.9,154.1,103.8,153.6,104.7z"/>
				<path fill="#FFFFFF" d="M148.8,88.2c-10.2,0-18.5,8.3-18.5,18.5c0,10.2,8.3,18.5,18.5,18.5s18.5-8.3,18.5-18.5
					C167.3,96.5,159,88.2,148.8,88.2z M144.1,114h-3.3v-11.6h0l-2.8,1.3l-0.6-2.6l3.9-1.8h2.8V114z M159.9,110.5h-1.8v3.5h-3.2v-3.5
					h-6.5v-2.2l5.5-8.9h4.2v8.6h1.8V110.5z"/>
			</g>
			<g>
				<rect x="146.8" y="135.5" fill="#FFFFFF" width="3.8" height="8.6"/>
			</g>
			<g>
				<rect x="111.3" y="106.7" fill="#FFFFFF" width="8.6" height="3.8"/>
			</g>
			<g>
				<rect x="143.6" y="59" fill="#FFFFFF" width="10.1" height="2.4"/>
			</g>
			<g>
				<path fill="#FFFFFF" d="M153.2,57h-9.1c-2,0-3.6-1.6-3.6-3.6v0c0-2,1.6-3.6,3.6-3.6h9.1c2,0,3.6,1.6,3.6,3.6v0
					C156.8,55.4,155.2,57,153.2,57z"/>
			</g>
			<g>
				<path fill="#FFFFFF" d="M139.2,52.3c0-0.8,0.3-1.6,0.9-2.1c-0.6-1.2-0.9-2.6-0.9-4c0-5.3,4.3-9.6,9.6-9.6c5.3,0,9.6,4.3,9.6,9.6
					c0,1.5-0.4,2.9-1,4.2c0.5,0.5,0.7,1.2,0.7,2v1.6c1.7-2.1,2.8-4.8,2.8-7.7c0-6.7-5.4-12.1-12.1-12.1c-6.7,0-12.1,5.4-12.1,12.1
					c0,2.8,0.9,5.4,2.5,7.4V52.3z"/>
			</g>
		</g>
	</g>
	<g id="_x34_LnH2G.tif">
		<g>
			<g>
				<path fill="#FFFFFF" d="M95.9,277.9c0.4-0.6,1-0.8,1.7-0.9c1.3-0.3,2.6-0.7,3.8-1c1-0.3,1.6-0.8,1.9-1.8
					c0.5-1.4,0.9-2.8,1.4-4.2c0.3-0.8,0.2-1.6-0.4-2.3c-0.9-1.2-1.9-2.4-2.9-3.6c-0.6-0.8-0.6-1.6,0.1-2.3c1.7-1.9,3.4-3.9,5-5.8
					c0.6-0.7,1.4-0.8,2.2-0.4c1.4,0.8,2.7,1.6,4.1,2.3c0.7,0.4,1.5,0.4,2.3,0c1.4-0.7,2.8-1.4,4.2-2.1c0.7-0.4,1.2-1,1.3-1.8
					c0.2-1.5,0.4-3,0.5-4.5c0.1-1.2,0.7-1.7,1.9-1.7c1.7-0.1,3.4-0.3,5.2-0.4c0.8-0.1,1.5-0.1,2.3-0.2c0.9-0.1,1.6,0.4,1.8,1.3
					c0.4,1.5,0.8,2.9,1.2,4.4c0.2,0.9,0.8,1.5,1.7,1.8c1.4,0.5,2.9,0.9,4.3,1.4c0.9,0.3,1.7,0.1,2.4-0.4c1.2-0.9,2.3-1.9,3.5-2.8
					c0.8-0.7,1.6-0.7,2.4,0.1c1.4,1.2,2.8,2.4,4.2,3.6c0.6,0.5,1.1,0.9,1.7,1.4c0.6,0.6,0.8,1.4,0.4,2.1c-0.7,1.3-1.5,2.6-2.3,3.9
					c-0.5,0.9-0.5,1.8-0.1,2.7c0.7,1.3,1.3,2.6,2,3.9c0.4,0.9,1.1,1.3,2.1,1.4c1.5,0.2,3.1,0.4,4.6,0.5c0.7,0.1,1.3,0.7,1.4,1.4
					c0.2,2.7,0.4,5.4,0.6,8.1c0.1,0.8-0.5,1.4-1.2,1.7c-1.5,0.4-3,0.8-4.5,1.2c-0.9,0.2-1.5,0.8-1.8,1.7c-0.5,1.5-1,2.9-1.4,4.4
					c-0.3,0.8-0.1,1.6,0.4,2.2c0.9,1.2,1.9,2.4,2.8,3.6c0.7,0.8,0.7,1.6,0,2.4c-1.7,1.9-3.3,3.8-5,5.8c-0.7,0.8-1.4,0.9-2.3,0.4
					c-1.3-0.8-2.6-1.5-4-2.3c-0.7-0.4-1.5-0.4-2.3-0.1c-1.4,0.7-2.8,1.4-4.2,2.1c-1,0.5-1.3,1.5-1.4,2.6c-0.1,1.4-0.3,2.8-0.5,4.2
					c-0.1,0.7-0.7,1.3-1.4,1.3c-2.7,0.2-5.4,0.4-8.2,0.6c-0.8,0.1-1.4-0.5-1.6-1.3c-0.4-1.5-0.8-2.9-1.2-4.4c-0.3-1-0.9-1.6-1.9-1.9
					c-1.4-0.4-2.7-0.9-4.1-1.3c-0.9-0.3-1.8-0.2-2.6,0.4c-1.2,0.9-2.3,1.9-3.5,2.8c-0.8,0.6-1.6,0.6-2.3,0c-1.9-1.7-3.9-3.3-5.8-5
					c-0.8-0.7-0.9-1.4-0.4-2.4c0.7-1.3,1.5-2.6,2.2-3.8c0.5-0.8,0.5-1.7,0.1-2.5c-0.7-1.4-1.4-2.7-2.1-4.1c-0.4-0.8-1.1-1.3-2-1.4
					c-1.5-0.2-3-0.4-4.5-0.5c-1.1-0.1-1.6-0.7-1.7-1.7c-0.2-2.6-0.4-5.2-0.6-7.8c0-0.1,0-0.1,0-0.2
					C95.8,278.4,95.9,278.2,95.9,277.9z M136.3,258c-12.2-3.9-25.5,2.6-29.6,15.1c-4,12.3,2.6,25.6,15,29.7
					c12.5,4.1,25.8-2.8,29.8-15.1C155.5,275.2,148.7,262,136.3,258z"/>
				<path fill="#FFFFFF" d="M122.6,300.7c-11.3-3.7-17.4-15.6-13.7-26.9c3.6-11.1,15.5-17.3,26.8-13.6c11.3,3.6,17.4,15.6,13.7,27
					C145.7,298.2,133.9,304.2,122.6,300.7z M118,276.9c-1.9,6.2,1.5,12.6,7.6,14.6c6.1,1.9,12.6-1.5,14.5-7.6
					c1.9-6.1-1.5-12.6-7.6-14.5C126.5,267.4,119.9,270.8,118,276.9z"/>
			</g>
			<g>
				<path fill="#FFFFFF" d="M195.2,263.5c-0.3,0.8-0.6,1.5-0.8,2.3c-0.1,0.4-0.3,0.8-0.4,1.2c-0.2,0.7-0.7,0.9-1.4,0.8
					c-1-0.1-2-0.3-3-0.4c-0.6-0.1-1.1,0.1-1.5,0.6c-0.6,0.7-1.3,1.4-1.9,2.1c-0.5,0.5-0.6,1.1-0.4,1.8c0.3,0.9,0.5,1.8,0.8,2.8
					c0.2,0.7,0,1.1-0.6,1.5c-1.5,0.7-3,1.5-4.5,2.2c-0.6,0.3-1.1,0.2-1.5-0.4c-0.6-0.8-1.2-1.6-1.8-2.3c-0.4-0.5-0.9-0.7-1.5-0.7
					c-1,0.1-1.9,0.1-2.9,0.2c-0.7,0-1.2,0.4-1.5,1c-0.5,0.8-1,1.7-1.4,2.5c-0.3,0.5-0.8,0.7-1.4,0.5c-1.6-0.5-3.1-1.1-4.7-1.6
					c-0.8-0.3-1-0.6-0.9-1.5c0.1-0.9,0.2-1.9,0.4-2.8c0.1-0.6-0.1-1.1-0.6-1.5c-0.7-0.7-1.5-1.3-2.2-2c-0.5-0.4-1-0.5-1.6-0.4
					c-0.9,0.3-1.9,0.5-2.8,0.8c-0.7,0.2-1.1,0-1.4-0.7c-0.7-1.5-1.5-3-2.2-4.5c-0.3-0.6-0.2-1.1,0.4-1.5c0.8-0.6,1.5-1.2,2.3-1.7
					c0.6-0.4,0.8-0.9,0.7-1.6c-0.1-1-0.1-2-0.2-3c-0.1-0.5-0.3-0.9-0.8-1.2c-0.9-0.5-1.8-1-2.6-1.5c-0.6-0.4-0.8-0.8-0.6-1.5
					c0.5-1.6,1.1-3.2,1.6-4.8c0.2-0.6,0.7-0.9,1.3-0.8c1,0.1,2,0.3,3,0.4c0.6,0.1,1.1-0.1,1.5-0.6c0.7-0.7,1.3-1.5,2-2.2
					c0.4-0.5,0.5-1,0.4-1.6c-0.3-1-0.5-2-0.8-3.1c-0.1-0.5,0.1-0.9,0.5-1.1c1.6-0.8,3.2-1.6,4.8-2.4c0.5-0.2,1-0.1,1.3,0.4
					c0.6,0.8,1.2,1.5,1.7,2.3c0.4,0.6,1,0.9,1.8,0.8c0.9-0.1,1.8-0.1,2.8-0.2c0.6,0,1.1-0.3,1.4-0.8c0.5-0.8,0.9-1.6,1.4-2.4
					c0.3-0.5,0.6-0.8,1.2-0.9c0.6,0.2,1.3,0.4,1.9,0.6c0.2,0.1,0.3,0.2,0.5,0.2c0.9,0.3,1.8,0.6,2.6,0.9c0.8,0.3,1,0.7,0.9,1.5
					c-0.1,0.9-0.3,1.9-0.4,2.8c-0.1,0.6,0.1,1.1,0.6,1.6c0.7,0.6,1.4,1.2,2.1,1.9c0.5,0.5,1.1,0.6,1.8,0.4c0.9-0.3,1.8-0.5,2.8-0.8
					c0.7-0.2,1.1,0,1.4,0.6c0.7,1.5,1.5,3,2.2,4.5c0.3,0.7,0.2,1.1-0.4,1.6c-0.8,0.6-1.5,1.2-2.3,1.8c-0.5,0.4-0.7,0.9-0.7,1.5
					c0.1,1,0.1,1.9,0.2,2.9c0,0.7,0.4,1.2,0.9,1.5c0.8,0.4,1.5,0.9,2.3,1.3c0.5,0.3,0.9,0.6,0.9,1.2
					C195.5,262.4,195.4,263,195.2,263.5z M162,253.8c-2.1,6.6,1.6,13.7,8.2,15.8c6.6,2.1,13.7-1.6,15.8-8.2
					c2.1-6.6-1.5-13.8-8.2-15.9C171.3,243.5,164.1,247.2,162,253.8z"/>
				<path fill="#FFFFFF" d="M176.6,249.6c4.4,1.4,6.9,6.2,5.5,10.6c-1.4,4.4-6.2,6.9-10.6,5.5c-4.5-1.4-6.9-6.2-5.5-10.7
					C167.4,250.6,172.2,248.1,176.6,249.6z"/>
			</g>
			<g>
				<path fill="#FFFFFF" d="M158.9,243.6c-0.3,0.4-0.5,0.8-0.8,1.3c-0.1,0.2-0.3,0.4-0.4,0.7c-0.2,0.4-0.5,0.5-0.9,0.3
					c-0.6-0.2-1.1-0.4-1.7-0.6c-0.4-0.1-0.7-0.1-1,0.1c-0.5,0.3-0.9,0.7-1.4,1c-0.3,0.2-0.5,0.6-0.5,1c0,0.6,0.1,1.2,0.1,1.8
					c0,0.4-0.2,0.7-0.6,0.8c-1,0.2-2,0.5-3,0.7c-0.4,0.1-0.7,0-0.9-0.4c-0.3-0.5-0.5-1.1-0.7-1.7c-0.2-0.4-0.4-0.6-0.8-0.6
					c-0.6-0.1-1.2-0.2-1.7-0.3c-0.4-0.1-0.8,0.1-1.1,0.4c-0.4,0.4-0.8,0.9-1.2,1.3c-0.3,0.3-0.6,0.3-0.9,0.1
					c-0.9-0.5-1.7-1.1-2.6-1.6c-0.4-0.3-0.5-0.5-0.3-1c0.2-0.5,0.4-1.1,0.6-1.6c0.1-0.4,0.1-0.7-0.1-1c-0.4-0.5-0.7-1-1.1-1.5
					c-0.2-0.3-0.5-0.5-0.9-0.4c-0.6,0-1.2,0.1-1.8,0.1c-0.4,0-0.7-0.2-0.8-0.6c-0.2-1-0.5-2-0.7-3c-0.1-0.4,0-0.7,0.4-0.9
					c0.5-0.2,1.1-0.5,1.6-0.7c0.4-0.2,0.6-0.5,0.7-0.9c0.1-0.6,0.2-1.2,0.3-1.8c0-0.3-0.1-0.6-0.3-0.8c-0.5-0.4-0.9-0.8-1.4-1.3
					c-0.3-0.3-0.4-0.6-0.1-1c0.5-0.9,1.1-1.8,1.6-2.6c0.2-0.3,0.5-0.4,0.9-0.3c0.6,0.2,1.1,0.4,1.7,0.6c0.3,0.1,0.7,0.1,1-0.1
					c0.5-0.4,1-0.7,1.5-1.1c0.3-0.2,0.4-0.5,0.4-0.9c0-0.6,0-1.3-0.1-1.9c0-0.3,0.2-0.5,0.5-0.6c1.1-0.3,2.1-0.5,3.2-0.8
					c0.3-0.1,0.6,0.1,0.7,0.4c0.2,0.5,0.5,1.1,0.7,1.6c0.2,0.4,0.5,0.7,1,0.7c0.6,0.1,1.1,0.2,1.7,0.3c0.4,0.1,0.7,0,1-0.3
					c0.4-0.4,0.8-0.8,1.2-1.3c0.2-0.3,0.5-0.4,0.8-0.4c0.4,0.2,0.7,0.4,1.1,0.6c0.1,0.1,0.2,0.1,0.3,0.2c0.5,0.3,1,0.6,1.5,0.9
					c0.4,0.3,0.5,0.5,0.3,1c-0.2,0.5-0.4,1.1-0.6,1.6c-0.1,0.4-0.1,0.7,0.1,1c0.3,0.5,0.7,0.9,1,1.4c0.3,0.4,0.6,0.5,1,0.5
					c0.6,0,1.2-0.1,1.8-0.1c0.4,0,0.7,0.2,0.8,0.6c0.2,1,0.5,2,0.7,3c0.1,0.5,0,0.7-0.5,0.9c-0.5,0.2-1.1,0.5-1.6,0.7
					c-0.4,0.2-0.6,0.4-0.6,0.8c-0.1,0.6-0.2,1.2-0.3,1.8c-0.1,0.4,0.1,0.7,0.4,1c0.4,0.4,0.8,0.7,1.2,1.1c0.3,0.2,0.4,0.5,0.4,0.9
					C159.3,243,159.1,243.3,158.9,243.6z M140.4,233.3c-2.2,3.7-0.9,8.4,2.7,10.6c3.7,2.2,8.4,0.9,10.6-2.7c2.2-3.7,1-8.5-2.7-10.6
					C147.3,228.4,142.5,229.6,140.4,233.3z"/>
				<path fill="#FFFFFF" d="M149.7,232.7c2.5,1.5,3.3,4.6,1.8,7.1c-1.4,2.5-4.7,3.3-7.1,1.8c-2.5-1.5-3.3-4.7-1.8-7.1
					C144,232.1,147.2,231.3,149.7,232.7z"/>
			</g>
		</g>
	</g>
	<g>
		<path fill="#FFFFFF" d="M444.1,349.5c0.1,0.4,0.1,0.7,0.2,1.1c0,0.1-0.1,0.2-0.1,0.2c0,1.3,0,2.5,0,3.8c0,0.1,0,0.2,0.1,0.3
			c0,0,0,0,0,0c0,0.1-0.1,0.3-0.1,0.4c-0.2,1.9-0.6,3.7-1.2,5.5c-0.9,2.5-2.1,4.9-3.7,7.1c-2,2.6-4.4,4.8-7.2,6.5
			c-2.9,1.8-6.1,2.9-9.5,3.4c-0.5,0.1-0.9,0.2-1.4,0.3c-0.2,0-0.4-0.1-0.6-0.1c-2.1,0.2-4.2,0-6.2-0.3c-3.8-0.7-7.2-2.1-10.3-4.4
			c-3.3-2.4-5.9-5.3-7.8-8.9c-1.5-2.7-2.4-5.7-2.8-8.7c0-0.4-0.1-0.7-0.2-1.1c0-0.2,0.1-0.4,0.1-0.5c0-1,0-2,0-3
			c0-0.1,0-0.2-0.1-0.2c0-0.1,0.1-0.2,0.1-0.2c0.2-2.3,0.7-4.5,1.4-6.7c0.8-2.2,1.8-4.2,3.2-6.1c1.5-2.1,3.2-3.9,5.2-5.4
			c2.7-2.1,5.8-3.7,9.1-4.6c2.7-0.7,5.4-1,8.2-0.8c0.1,0,0.2,0,0.2-0.1c0.1,0,0.2,0.1,0.3,0.1c2.7,0.3,5.3,0.9,7.7,1.9
			c3.6,1.5,6.7,3.8,9.3,6.8c0.4,0.5,0.8,1,1.2,1.5c2.3-1.8,4.5-3.6,6.7-5.3c0-0.1,0-0.1-0.1-0.1c-2.6-3.4-5.8-6.3-9.5-8.5
			c-2.1-1.3-4.4-2.3-6.7-3.1c-3-1-6.1-1.6-9.3-1.7c-2.1-0.1-4.3,0-6.4,0.3c-0.4,0.1-0.8,0.2-1.3,0.3c-0.1,0-0.2,0-0.4,0
			c-1.5,0.4-3,0.7-4.5,1.2c-3.1,1-6,2.5-8.7,4.4c-3.8,2.6-6.9,5.9-9.3,9.8c-2.1,3.3-3.5,6.8-4.4,10.6c-0.1,0.5-0.2,1.1-0.3,1.6
			c0,0.1-0.1,0.2-0.1,0.3c-0.1,0.8-0.2,1.6-0.3,2.3c-0.3,2.8-0.2,5.6,0.2,8.4c0.1,0.4,0.2,0.8,0.3,1.2c0,0.1,0,0.2,0,0.2
			c0.4,1.9,0.9,3.8,1.6,5.6c1.2,3,2.7,5.9,4.7,8.4c2.1,2.7,4.5,5,7.2,7c3.8,2.8,8.1,4.7,12.7,5.7c0.5,0.1,1.1,0.2,1.6,0.3
			c0.1,0,0.3,0.1,0.4,0.1c1.1,0.1,2.2,0.3,3.4,0.3c3.4,0.2,6.8-0.1,10.1-0.9c4.6-1.1,8.7-3.1,12.5-6c3.5-2.6,6.3-5.8,8.6-9.5
			c2-3.3,3.4-6.9,4.2-10.8c0.1-0.3,0.1-0.6,0.1-0.9c0-0.1,0.1-0.2,0.1-0.3c0.1-0.6,0.2-1.3,0.2-1.9c0.4-3.1,0.3-6.2-0.2-9.3
			c0-0.1-0.1-0.1-0.1-0.2c0-0.1,0.1-0.2,0.1-0.4c-0.3-1.3-0.6-2.6-1-3.9c-0.1-0.2,0-0.4,0.1-0.5"/>
		<path fill="#FFFFFF" d="M450.8,339.9c1.7-1.7,3.5-3.4,5.2-5c0.5-0.5,1-1.1,1.5-1.6c-1.1-1.4-2.1-2.7-3.2-4.1
			c-1.4,1.1-2.7,2.2-4.1,3.3c-1.7,1.4-3.5,2.8-5.2,4.1c-2.1,1.6-4.1,3.3-6.1,4.9c-0.4,0.3-0.8,0.7-1.3,1.1c-0.1,0.1-0.2,0.1-0.3,0.2
			c-3.2,2.6-6.5,5.2-9.7,7.8c-2.8,2.2-5.5,4.4-8.3,6.6c-0.4,0.3-0.7,0.6-1.1,0.9l-15.7-11.7c-3,2.8-1.5,1.3-5,4.5
			c0.7,0.6,1.4,1.3,2.1,1.9c2.1,2,4.2,3.9,6.3,5.9c2.4,2.4,4.7,4.8,7,7.3c1.2,1.3,2.2,2.7,3.3,4.2c0.5,0.6,0.9,1.3,1.3,2
			c0,0,0.1-0.1,0.1-0.1c4.5-4.4,9.1-8.8,13.6-13.1c3.6-3.4,7.1-6.9,10.7-10.3c0.3-0.3,0.6-0.6,0.8-0.9c0.2-0.1,0.3-0.2,0.5-0.4"/>
	</g>
	<g id="siUdER.tif">
		<g>
			<path fill="#FFFFFF" d="M545.8,113.3c0.6,0.3,1.1,0.6,1.7,0.9c1.2,0.7,1.6,1.9,1,3.1c-1.8,3.1-3.5,6.2-5.4,9.3
				c-0.6,1-1.8,1.3-2.8,0.8c-1.1-0.5-1.6-1.6-1.1-2.7c1.4-3.4,2.8-6.7,4.3-10.1c0.3-0.6,1-0.9,1.5-1.3
				C545.3,113.3,545.6,113.3,545.8,113.3z"/>
			<path fill="#FFFFFF" d="M566.4,168.3c0.1,6-3,8.6-6.4,9c-2.2,0.2-4.3-0.1-6.4-0.7c-4.9-1.5-9.2-4.1-13.2-7.1
				c-7.6-5.7-14.1-12.4-19.3-20.3c-2.5-3.8-4.6-7.7-5.4-12.2c-0.3-1.6-0.3-3.4,0-5c0.6-3.3,3.5-5.5,7.1-5.6
				c3.8-0.1,7.3,1.2,10.6,2.9c7.1,3.6,13,8.7,18.5,14.3c4.8,5,9.2,10.5,12.2,16.9C565.4,163.3,566.3,166.2,566.4,168.3z
				 M558.8,167.4c0-0.1,0-0.2,0-0.4c-0.2-2.6-1.3-4.9-2.6-7.1c-5.8-9.9-13.7-17.7-23.6-23.5c-2.1-1.3-4.4-2.2-6.9-2.5
				c-2.1-0.2-2.9,0.6-2.7,2.7c0.3,2.6,1.3,4.9,2.6,7.1c2.4,4.3,5.4,8,8.7,11.6c4.6,4.9,9.7,9.1,15.6,12.3c2,1.1,4.1,1.9,6.4,2.1
				C558.1,170,558.8,169.4,558.8,167.4z"/>
			<path fill="#FFFFFF" d="M513.7,143c1.3,2.5,2.9,5.3,4.3,8.2c0.3,0.7,0.2,1.8,0,2.7c-0.7,3.7-1.9,7.2-3.9,10.4
				c-0.2,0.4-0.3,1-0.2,1.4c0.9,3.7,3.1,6.5,5.8,9c2.1,2,4.5,3.6,7.4,4.3c0.4,0.1,1,0,1.4-0.2c3.6-2.2,7.4-3.5,11.6-4.2
				c0.6-0.1,1.3,0.1,1.8,0.4c2.6,1.3,5.2,2.7,7.4,3.9c-1.7,0.1-3.9,0.2-6.1,0.5c-5.9,0.6-10.9,3.2-15.2,7.1
				c-2.3,2.1-4.6,4.2-6.7,6.6c-2.4,2.7-5.4,3.4-8.7,2.3c-7.8-2.5-13.1-7.7-15.3-15.7c-0.8-3-0.1-5.6,2.3-7.9
				c2.7-2.6,5.3-5.2,7.7-8.1c3.6-4.3,5.7-9.4,6.1-15C513.6,146.5,513.6,144.5,513.7,143z"/>
			<path fill="#FFFFFF" d="M524.1,195.6c1.9-2,3.9-4.3,6.2-6.4c1.3-1.2,2.9-0.8,4.4-0.3c1.9,0.7,3.9,1.4,5.8,2.2
				c0.9,0.4,1.8,0.4,2.8,0c0.5-0.2,1.1-0.3,1.6-0.5c2.1-0.8,4-0.1,5.7,1.1c1.3,1,1.6,2.3,0.6,3.6c-1.1,1.5-2.4,2.8-3.6,4.2
				c-0.9,1-1.9,2.1-2.8,3.1c-2.2,2.4-4.1,2.9-7.1,1.5c-2.2-1.1-4.3-2.5-6.4-3.8C528.8,198.7,526.4,197.1,524.1,195.6z"/>
			<path fill="#FFFFFF" d="M556.7,138.2c-0.6-0.4-1.3-0.8-1.7-1.4c-0.5-0.7-0.4-1.6,0.1-2.3c2.4-2.8,4.9-5.5,7.3-8.3
				c0.6-0.7,1.5-0.9,2.3-0.4c0.8,0.6,1.6,1.3,2.1,2.1c0.6,0.8,0.2,1.7-0.5,2.4c-2.6,2.4-5.3,4.7-8,7.1
				C558,137.7,557.4,137.8,556.7,138.2z"/>
			<path fill="#FFFFFF" d="M565,151.2c0.4-0.5,0.7-1.3,1.3-1.6c3-1.8,6.1-3.6,9.2-5.3c1.3-0.7,2.5-0.3,3.2,1.1
				c0.3,0.6,0.6,1.1,0.7,1.8c0.2,0.8-0.4,1.8-1.3,2.1c-3.3,1.4-6.6,2.9-9.9,4.2C566.6,154.1,565.2,153,565,151.2z"/>
			<path fill="#FFFFFF" d="M533.4,149c1.9-1.4,3.9-1.8,5.9-0.9c2.8,1.2,4.9,3.2,5.6,6.3c0.4,1.7,0,3.4-1.2,4.9
				C540,156.1,536.6,152.8,533.4,149z"/>
		</g>
	</g>
	<g>
		<g id="PFZWDB.tif">
			<g>
				<path fill="#FFFFFF" d="M271.7,535.5c0,0.1-0.1,0.1-0.1,0.2c-0.4,1.1-1.1,1.6-2.3,1.6c-4.6,0-9.1,0-13.7,0c-6.1,0-12.2,0-18.3,0
					c-1.5,0-2.5-0.9-2.5-2.4c0-0.9,0-1.8,0.2-2.7c0.3-1.8,1.4-3.2,3-3.9c1.6-0.7,3.3-1.3,5-1.9c1-0.4,2.1-0.7,3.1-1.1
					c0.4-0.2,0.8-0.4,1.2-0.6c0.7-0.4,1-0.9,0.9-1.7c0-0.3,0-0.7,0-1.1c-3.6-0.1-7.1-0.8-10.1-2.8c0.6-0.5,1.2-1,1.7-1.6
					c1.7-1.8,2.4-4.1,2.8-6.4c0.4-2.6,0.6-3.5,0.9-6.1c0.2-1.8,0.5-3.6,1.4-5.2c0.9-1.6,2.2-2.8,3.9-3.3c2-0.6,4-0.9,6.1-0.4
					c0.6,0.2,1.3,0.5,1.8,1c0.4,0.4,0.8,0.5,1.4,0.6c1.9,0.1,3.5,1,4.5,2.7c0.8,1.3,1.2,2.7,1.4,4.1c0.3,2.4,0.5,3.1,0.8,5.5
					c0.2,1.5,0.4,3,0.8,4.4c0.5,1.9,1.3,3.5,3,4.7c-3.1,2.1-6.5,2.8-10.1,2.9c-0.2,1.8-0.3,2.2,1.3,2.9c1.8,0.9,3.7,1.5,5.5,2.2
					c1.1,0.4,2.3,0.8,3.4,1.4c1.7,0.9,2.8,2.3,3,4.3c0,0.1,0.1,0.2,0.1,0.3C271.7,533.8,271.7,534.6,271.7,535.5z"/>
			</g>
		</g>
		<g id="PFZWDB.tif_1_">
			<g>
				<path fill="#FFFFFF" d="M452.6,535.5c0,0.1-0.1,0.1-0.1,0.2c-0.4,1.1-1.1,1.6-2.3,1.6c-4.6,0-9.1,0-13.7,0c-6.1,0-12.2,0-18.3,0
					c-1.5,0-2.5-0.9-2.5-2.4c0-0.9,0-1.8,0.2-2.7c0.3-1.8,1.4-3.2,3-3.9c1.6-0.7,3.3-1.3,5-1.9c1-0.4,2.1-0.7,3.1-1.1
					c0.4-0.2,0.8-0.4,1.2-0.6c0.7-0.4,1-0.9,0.9-1.7c0-0.3,0-0.7,0-1.1c-3.6-0.1-7.1-0.8-10.1-2.8c0.6-0.5,1.2-1,1.7-1.6
					c1.7-1.8,2.4-4.1,2.8-6.4c0.4-2.6,0.6-3.5,0.9-6.1c0.2-1.8,0.5-3.6,1.4-5.2c0.9-1.6,2.2-2.8,3.9-3.3c2-0.6,4-0.9,6.1-0.4
					c0.6,0.2,1.3,0.5,1.8,1c0.4,0.4,0.8,0.5,1.4,0.6c1.9,0.1,3.5,1,4.5,2.7c0.8,1.3,1.2,2.7,1.4,4.1c0.3,2.4,0.5,3.1,0.8,5.5
					c0.2,1.5,0.4,3,0.8,4.4c0.5,1.9,1.3,3.5,3,4.7c-3.1,2.1-6.5,2.8-10.1,2.9c-0.2,1.8-0.3,2.2,1.3,2.9c1.8,0.9,3.7,1.5,5.5,2.2
					c1.1,0.4,2.3,0.8,3.4,1.4c1.7,0.9,2.8,2.3,3,4.3c0,0.1,0.1,0.2,0.1,0.3C452.6,533.8,452.6,534.6,452.6,535.5z"/>
			</g>
		</g>
		<g id="PFZWDB.tif_2_">
			<g>
				<path fill="#FFFFFF" d="M364.3,704.1c0,0.1-0.1,0.1-0.1,0.2c-0.4,1.1-1.1,1.6-2.3,1.6c-4.6,0-9.1,0-13.7,0c-6.1,0-12.2,0-18.3,0
					c-1.5,0-2.5-0.9-2.5-2.4c0-0.9,0-1.8,0.2-2.7c0.3-1.8,1.4-3.2,3-3.9c1.6-0.7,3.3-1.3,5-1.9c1-0.4,2.1-0.7,3.1-1.1
					c0.4-0.2,0.8-0.4,1.2-0.6c0.7-0.4,1-0.9,0.9-1.7c0-0.3,0-0.7,0-1.1c-3.6-0.1-7.1-0.8-10.1-2.8c0.6-0.5,1.2-1,1.7-1.6
					c1.7-1.8,2.4-4.1,2.8-6.4c0.4-2.6,0.6-3.5,0.9-6.1c0.2-1.8,0.5-3.6,1.4-5.2c0.9-1.6,2.2-2.8,3.9-3.3c2-0.6,4-0.9,6.1-0.4
					c0.6,0.2,1.3,0.5,1.8,1c0.4,0.4,0.8,0.5,1.4,0.6c1.9,0.1,3.5,1,4.5,2.7c0.8,1.3,1.2,2.7,1.4,4.1c0.3,2.4,0.5,3.1,0.8,5.5
					c0.2,1.5,0.4,3,0.8,4.4c0.5,1.9,1.3,3.5,3,4.7c-3.1,2.1-6.5,2.8-10.1,2.9c-0.2,1.8-0.3,2.2,1.3,2.9c1.8,0.9,3.7,1.5,5.5,2.2
					c1.1,0.4,2.3,0.8,3.4,1.4c1.7,0.9,2.8,2.3,3,4.3c0,0.1,0.1,0.2,0.1,0.3C364.3,702.4,364.3,703.2,364.3,704.1z"/>
			</g>
		</g>
		<g id="_x32_53UFM.tif">
			<g>
				<path fill="#FFFFFF" d="M336.1,465.9c0-0.7-0.1-1.3-0.1-2c0-1.3,0-2.7,0.2-4c0.4-2.7,2.1-4.2,4.9-4.4c0.5,0,0.9-0.1,1.4-0.1
					c0.4-1.2,0.8-1.6,2-1.6c3.7,0,6.9,1.1,9.4,3.9c1.7,1.9,2.1,4.2,1.8,6.6c-0.1,0.5-0.2,1-0.3,1.6c0.2,0,0.4,0.1,0.6,0.1
					c0.9,0.1,1.5,0.6,1.5,1.5c0,1.5-0.3,3-0.9,4.4c-0.3,0.7-0.9,1-1.7,1c-0.3,0-0.5,0-0.8,0c-0.1,0.3-0.1,0.5-0.2,0.8
					c-0.4,1.8-1.3,3.4-2.6,4.7c-0.3,0.3-0.4,0.6-0.4,1.1c0,0.7,0,1.5,0,2.3c0,0.7,0.2,1.2,0.8,1.5c0.7,0.4,1.4,0.8,2.1,1.1
					c1.8,0.7,3.6,1.2,5.4,1.9c0.9,0.3,1.7,0.7,2.5,1.2c1.7,1.1,2.5,2.7,2.6,4.7c0,0.4,0,0.8,0,1.3c0,1.4-1,2.4-2.4,2.4
					c-3.3,0-6.6,0-9.8,0c-7.3,0-14.7,0-22,0c-1.8,0-2.7-0.9-2.6-2.7c0-0.8,0-1.5,0.2-2.3c0.3-1.6,1.3-2.8,2.7-3.6
					c1.2-0.6,2.4-1,3.7-1.5c1.5-0.6,3.1-1.1,4.6-1.7c0.3-0.1,0.5-0.2,0.8-0.4c1-0.5,1.5-1.2,1.5-2.4c0-1.4-0.2-2.5-1.4-3.5
					c-1.3-1.1-1.8-2.6-2.2-4.2c-0.1-0.3-0.2-0.5-0.6-0.5c-0.7-0.1-1.3-0.5-1.6-1.1c-0.7-1.3-1-2.7-1-4.2c0-0.9,0.5-1.4,1.4-1.5
					C335.7,466,335.9,466,336.1,465.9z"/>
			</g>
		</g>
		<g id="_x32_53UFM.tif_1_">
			<g>
				<path fill="#FFFFFF" d="M424.4,634.5c0-0.7-0.1-1.3-0.1-2c0-1.3,0-2.7,0.2-4c0.4-2.7,2.1-4.2,4.9-4.4c0.5,0,0.9-0.1,1.4-0.1
					c0.4-1.2,0.8-1.6,2-1.6c3.7,0,6.9,1.1,9.4,3.9c1.7,1.9,2.1,4.2,1.8,6.6c-0.1,0.5-0.2,1-0.3,1.6c0.2,0,0.4,0.1,0.6,0.1
					c0.9,0.1,1.5,0.6,1.5,1.5c0,1.5-0.3,3-0.9,4.4c-0.3,0.7-0.9,1-1.7,1c-0.3,0-0.5,0-0.8,0c-0.1,0.3-0.1,0.5-0.2,0.8
					c-0.4,1.8-1.3,3.4-2.6,4.7c-0.3,0.3-0.4,0.6-0.4,1.1c0,0.7,0,1.5,0,2.3c0,0.7,0.2,1.2,0.8,1.5c0.7,0.4,1.4,0.8,2.1,1.1
					c1.8,0.7,3.6,1.2,5.4,1.9c0.9,0.3,1.7,0.7,2.5,1.2c1.7,1.1,2.5,2.7,2.6,4.7c0,0.4,0,0.8,0,1.3c0,1.4-1,2.4-2.4,2.4
					c-3.3,0-6.6,0-9.8,0c-7.3,0-14.7,0-22,0c-1.8,0-2.7-0.9-2.6-2.7c0-0.8,0-1.5,0.2-2.3c0.3-1.6,1.3-2.8,2.7-3.6
					c1.2-0.6,2.4-1,3.7-1.5c1.5-0.6,3.1-1.1,4.6-1.7c0.3-0.1,0.5-0.2,0.8-0.4c1-0.5,1.5-1.2,1.5-2.4c0-1.4-0.2-2.5-1.4-3.5
					c-1.3-1.1-1.8-2.6-2.2-4.2c-0.1-0.3-0.2-0.5-0.6-0.5c-0.7-0.1-1.3-0.5-1.6-1.1c-0.7-1.3-1-2.7-1-4.2c0-0.9,0.5-1.4,1.4-1.5
					C424,634.6,424.2,634.5,424.4,634.5z"/>
			</g>
		</g>
		<g id="_x32_53UFM.tif_2_">
			<g>
				<path fill="#FFFFFF" d="M243.4,634.5c0-0.7-0.1-1.3-0.1-2c0-1.3,0-2.7,0.2-4c0.4-2.7,2.1-4.2,4.9-4.4c0.5,0,0.9-0.1,1.4-0.1
					c0.4-1.2,0.8-1.6,2-1.6c3.7,0,6.9,1.1,9.4,3.9c1.7,1.9,2.1,4.2,1.8,6.6c-0.1,0.5-0.2,1-0.3,1.6c0.2,0,0.4,0.1,0.6,0.1
					c0.9,0.1,1.5,0.6,1.5,1.5c0,1.5-0.3,3-0.9,4.4c-0.3,0.7-0.9,1-1.7,1c-0.3,0-0.5,0-0.8,0c-0.1,0.3-0.1,0.5-0.2,0.8
					c-0.4,1.8-1.3,3.4-2.6,4.7c-0.3,0.3-0.4,0.6-0.4,1.1c0,0.7,0,1.5,0,2.3c0,0.7,0.2,1.2,0.8,1.5c0.7,0.4,1.4,0.8,2.1,1.1
					c1.8,0.7,3.6,1.2,5.4,1.9c0.9,0.3,1.7,0.7,2.5,1.2c1.7,1.1,2.5,2.7,2.6,4.7c0,0.4,0,0.8,0,1.3c0,1.4-1,2.4-2.4,2.4
					c-3.3,0-6.6,0-9.8,0c-7.3,0-14.7,0-22,0c-1.8,0-2.7-0.9-2.6-2.7c0-0.8,0-1.5,0.2-2.3c0.3-1.6,1.3-2.8,2.7-3.6
					c1.2-0.6,2.4-1,3.7-1.5c1.5-0.6,3.1-1.1,4.6-1.7c0.3-0.1,0.5-0.2,0.8-0.4c1-0.5,1.5-1.2,1.5-2.4c0-1.4-0.2-2.5-1.4-3.5
					c-1.3-1.1-1.8-2.6-2.2-4.2c-0.1-0.3-0.2-0.5-0.6-0.5c-0.7-0.1-1.3-0.5-1.6-1.1c-0.7-1.3-1-2.7-1-4.2c0-0.9,0.5-1.4,1.4-1.5
					C243.1,634.6,243.2,634.5,243.4,634.5z"/>
			</g>
		</g>
		<g>
			<path fill="#FFC80E" d="M380.4,579.3c0,18.8-15.2,34-34,34c-18.8,0-34-15.2-34-34s15.2-34,34-34
				C365.2,545.3,380.4,560.5,380.4,579.3z"/>
			<g>
				<g>
					<path fill="#434244" d="M334.2,595.6v-2.3c0,1-2.4,1.8-5.5,1.8s-5.5-0.8-5.5-1.8v2.3c0,1,2.4,1.8,5.5,1.8
						C331.8,597.4,334.2,596.6,334.2,595.6z"/>
					<path fill="#434244" d="M334.2,591.6v-2.3c0,1-2.4,1.8-5.5,1.8s-5.5-0.8-5.5-1.8v2.3c0,1,2.4,1.8,5.5,1.8
						C331.8,593.5,334.2,592.6,334.2,591.6z"/>
					<path fill="#434244" d="M334.2,587.6v-2.3c0,1-2.4,1.8-5.5,1.8s-5.5-0.8-5.5-1.8v2.3c0,1,2.4,1.8,5.5,1.8
						C331.8,589.5,334.2,588.7,334.2,587.6z"/>
					<path fill="#434244" d="M328.8,579.6c-3,0-5.5,0.8-5.5,1.8v2.3c0,1,2.4,1.8,5.5,1.8c3,0,5.5-0.8,5.5-1.8v-2.2
						C334.2,580.4,331.8,579.6,328.8,579.6z M328.8,579.9c3.1,0,5.1,0.9,5.1,1.5c0,0.6-2,1.5-5.1,1.5s-5.1-0.9-5.1-1.5
						S325.7,579.9,328.8,579.9z"/>
				</g>
				<g>
					<path fill="#434244" d="M346,591.5v-2.3c0,1-2.4,1.8-5.5,1.8c-3,0-5.5-0.8-5.5-1.8v2.3c0,1,2.4,1.8,5.5,1.8
						C343.6,593.4,346,592.5,346,591.5z"/>
					<path fill="#434244" d="M346,587.7v-2.3c0,1-2.4,1.8-5.5,1.8c-3,0-5.5-0.8-5.5-1.8v2.3c0,1,2.4,1.8,5.5,1.8
						C343.6,589.5,346,588.7,346,587.7z"/>
					<path fill="#434244" d="M346,583.8v-2.3c0,1-2.4,1.8-5.5,1.8c-3,0-5.5-0.8-5.5-1.8v2.3c0,1,2.4,1.8,5.5,1.8
						C343.6,585.7,346,584.9,346,583.8z"/>
					<path fill="#434244" d="M346,580v-2.3c0,1-2.4,1.8-5.5,1.8c-3,0-5.5-0.8-5.5-1.8v2.3c0,1,2.4,1.8,5.5,1.8
						C343.6,581.9,346,581,346,580z"/>
					<path fill="#434244" d="M346,576.2v-2.3c0,1-2.4,1.8-5.5,1.8c-3,0-5.5-0.8-5.5-1.8v2.3c0,1,2.4,1.8,5.5,1.8
						C343.6,578,346,577.2,346,576.2z"/>
					<path fill="#434244" d="M346,570.2c-0.1-1-2.5-1.8-5.5-1.8c-3,0-5.4,0.8-5.5,1.8c0,0,0,0,0-0.1v2.3c0,1,2.4,1.8,5.5,1.8
						c3,0,5.5-0.8,5.5-1.8L346,570.2C346,570.1,346,570.2,346,570.2z M340.6,568.8c3.1,0,5.1,0.9,5.1,1.5c0,0.6-2,1.5-5.1,1.5
						s-5.1-0.9-5.1-1.5C335.5,569.6,337.4,568.8,340.6,568.8z"/>
				</g>
				<g>
					<path fill="#434244" d="M369.6,583.3v-2.3c0,1-2.4,1.8-5.5,1.8c-3,0-5.5-0.8-5.5-1.8v2.3c0,1,2.4,1.8,5.5,1.8
						C367.2,585.2,369.6,584.3,369.6,583.3z"/>
					<path fill="#434244" d="M369.6,579.5v-2.3c0,1-2.4,1.8-5.5,1.8c-3,0-5.5-0.8-5.5-1.8v2.3c0,1,2.4,1.8,5.5,1.8
						C367.2,581.3,369.6,580.5,369.6,579.5z"/>
					<path fill="#434244" d="M369.6,575.7v-2.3c0,1-2.4,1.8-5.5,1.8c-3,0-5.5-0.8-5.5-1.8v2.3c0,1,2.4,1.8,5.5,1.8
						C367.2,577.5,369.6,576.7,369.6,575.7z"/>
					<path fill="#434244" d="M369.6,571.9v-2.3c0,1-2.4,1.8-5.5,1.8c-3,0-5.5-0.8-5.5-1.8v2.3c0,1,2.4,1.8,5.5,1.8
						C367.2,573.7,369.6,572.9,369.6,571.9z"/>
					<path fill="#434244" d="M369.6,568v-2.3c0,1-2.4,1.8-5.5,1.8c-3,0-5.5-0.8-5.5-1.8v2.3c0,1,2.4,1.8,5.5,1.8
						C367.2,569.9,369.6,569,369.6,568z"/>
					<path fill="#434244" d="M369.6,562c-0.1-1-2.5-1.8-5.5-1.8c-3,0-5.4,0.8-5.5,1.8c0,0,0,0,0-0.1v2.3c0,1,2.4,1.8,5.5,1.8
						s5.5-0.8,5.5-1.8L369.6,562C369.6,562,369.6,562,369.6,562z M364.1,560.6c3.1,0,5.1,0.9,5.1,1.5c0,0.6-2,1.5-5.1,1.5
						s-5.1-0.9-5.1-1.5C359,561.4,361,560.6,364.1,560.6z"/>
				</g>
				<g>
					<path fill="#434244" d="M357.8,587.4v-2.3c0,1-2.5,1.8-5.5,1.8c-3,0-5.5-0.8-5.5-1.8v2.3c0,1,2.4,1.8,5.5,1.8
						C355.4,589.3,357.8,588.4,357.8,587.4z"/>
					<path fill="#434244" d="M357.8,583.6v-2.3c0,1-2.5,1.8-5.5,1.8c-3,0-5.5-0.8-5.5-1.8v2.3c0,1,2.4,1.8,5.5,1.8
						C355.4,585.4,357.8,584.6,357.8,583.6z"/>
					<path fill="#434244" d="M357.8,579.8v-2.3c0,1-2.5,1.8-5.5,1.8c-3,0-5.5-0.8-5.5-1.8v2.3c0,1,2.4,1.8,5.5,1.8
						C355.4,581.6,357.8,580.8,357.8,579.8z"/>
					<path fill="#434244" d="M357.8,575.9v-2.3c0,1-2.5,1.8-5.5,1.8c-3,0-5.5-0.8-5.5-1.8v2.3c0,1,2.4,1.8,5.5,1.8
						C355.4,577.8,357.8,577,357.8,575.9z"/>
					<path fill="#434244" d="M357.8,572.1v-2.3c0,1-2.5,1.8-5.5,1.8c-3,0-5.5-0.8-5.5-1.8v2.3c0,1,2.4,1.8,5.5,1.8
						C355.4,574,357.8,573.1,357.8,572.1z"/>
					<path fill="#434244" d="M357.8,568.3V566c0,1-2.5,1.8-5.5,1.8c-3,0-5.5-0.8-5.5-1.8v2.3c0,1,2.4,1.8,5.5,1.8
						C355.4,570.1,357.8,569.3,357.8,568.3z"/>
					<path fill="#434244" d="M357.8,564.5v-2.3c0,1-2.5,1.8-5.5,1.8c-3,0-5.5-0.8-5.5-1.8v2.3c0,1,2.4,1.8,5.5,1.8
						C355.4,566.3,357.8,565.5,357.8,564.5z"/>
					<path fill="#434244" d="M352.3,556.5c-3,0-5.5,0.8-5.5,1.8v2.3c0,1,2.4,1.8,5.5,1.8c3,0,5.5-0.8,5.5-1.8v-2.2
						C357.8,557.3,355.4,556.5,352.3,556.5z M352.3,556.9c3.1,0,5.1,0.9,5.1,1.5c0,0.6-2,1.5-5.1,1.5s-5.1-0.9-5.1-1.5
						S349.2,556.9,352.3,556.9z"/>
				</g>
			</g>
		</g>
		<g>
			<g>
				<g>

						<line fill="none" stroke="#FFFFFF" stroke-width="1.0953" stroke-miterlimit="10" x1="277.5" y1="537.4" x2="278.4" y2="537.9"/>

						<line fill="none" stroke="#FFFFFF" stroke-width="1.0953" stroke-miterlimit="10" stroke-dasharray="2.1507,2.1507" x1="280.3" y1="538.9" x2="309.6" y2="554.9"/>

						<line fill="none" stroke="#FFFFFF" stroke-width="1.0953" stroke-miterlimit="10" x1="310.5" y1="555.4" x2="311.5" y2="555.9"/>
					<g>
						<polygon fill="#FFFFFF" points="306.1,558.1 305.9,557.1 311.1,555.7 309.4,550.6 310.4,550.3 312.5,556.5 						"/>
					</g>
				</g>
			</g>
			<g>
				<g>
					<line fill="none" stroke="#FFFFFF" stroke-width="1.0953" stroke-miterlimit="10" x1="412" y1="537.4" x2="411.1" y2="537.9"/>

						<line fill="none" stroke="#FFFFFF" stroke-width="1.0953" stroke-miterlimit="10" stroke-dasharray="2.1507,2.1507" x1="409.2" y1="538.9" x2="379.9" y2="554.9"/>
					<line fill="none" stroke="#FFFFFF" stroke-width="1.0953" stroke-miterlimit="10" x1="379" y1="555.4" x2="378" y2="555.9"/>
					<g>
						<polygon fill="#FFFFFF" points="379.1,550.3 380.1,550.6 378.4,555.7 383.6,557.1 383.4,558.1 377,556.5 						"/>
					</g>
				</g>
			</g>
			<g>
				<g>

						<line fill="none" stroke="#FFFFFF" stroke-width="1.0953" stroke-miterlimit="10" x1="346.1" y1="500.4" x2="346.1" y2="501.5"/>

						<line fill="none" stroke="#FFFFFF" stroke-width="1.0953" stroke-miterlimit="10" stroke-dasharray="2.1507,2.1507" x1="346.1" y1="503.6" x2="346" y2="537"/>
					<line fill="none" stroke="#FFFFFF" stroke-width="1.0953" stroke-miterlimit="10" x1="346" y1="538" x2="346" y2="539.1"/>
					<g>
						<polygon fill="#FFFFFF" points="341.5,535.5 342.3,534.7 346,538.7 349.7,534.8 350.5,535.5 346,540.3 						"/>
					</g>
				</g>
			</g>
		</g>
		<g>
			<g>
				<g>
					<line fill="none" stroke="#FFFFFF" stroke-width="1.0953" stroke-miterlimit="10" x1="414.2" y1="623" x2="413.2" y2="622.5"/>

						<line fill="none" stroke="#FFFFFF" stroke-width="1.0953" stroke-miterlimit="10" stroke-dasharray="2.1507,2.1507" x1="411.3" y1="621.5" x2="382.1" y2="605.5"/>
					<line fill="none" stroke="#FFFFFF" stroke-width="1.0953" stroke-miterlimit="10" x1="381.1" y1="605" x2="380.2" y2="604.4"/>
					<g>
						<polygon fill="#FFFFFF" points="385.5,602.3 385.8,603.3 380.5,604.6 382.2,609.8 381.2,610.1 379.1,603.9 						"/>
					</g>
				</g>
			</g>
			<g>
				<g>
					<line fill="none" stroke="#FFFFFF" stroke-width="1.0953" stroke-miterlimit="10" x1="279.6" y1="623" x2="280.5" y2="622.5"/>

						<line fill="none" stroke="#FFFFFF" stroke-width="1.0953" stroke-miterlimit="10" stroke-dasharray="2.1507,2.1507" x1="282.4" y1="621.5" x2="311.7" y2="605.5"/>
					<line fill="none" stroke="#FFFFFF" stroke-width="1.0953" stroke-miterlimit="10" x1="312.6" y1="605" x2="313.6" y2="604.4"/>
					<g>
						<polygon fill="#FFFFFF" points="312.6,610.1 311.5,609.8 313.2,604.6 308,603.3 308.3,602.3 314.6,603.9 						"/>
					</g>
				</g>
			</g>
			<g>
				<g>

						<line fill="none" stroke="#FFFFFF" stroke-width="1.0953" stroke-miterlimit="10" x1="345.5" y1="658.4" x2="345.5" y2="657.3"/>

						<line fill="none" stroke="#FFFFFF" stroke-width="1.0953" stroke-miterlimit="10" stroke-dasharray="2.1507,2.1507" x1="345.5" y1="655.1" x2="345.6" y2="621.8"/>

						<line fill="none" stroke="#FFFFFF" stroke-width="1.0953" stroke-miterlimit="10" x1="345.6" y1="620.7" x2="345.6" y2="619.6"/>
					<g>
						<polygon fill="#FFFFFF" points="350.1,623.3 349.3,624 345.6,620 341.9,624 341.1,623.2 345.6,618.4 						"/>
					</g>
				</g>
			</g>
		</g>
	</g>
	<path fill="none" stroke="#FFFFFF" stroke-width="5" stroke-miterlimit="10" d="M225.1,108.8h194c22.6,0,41,18.4,41,41v15.7
		c0,22.6-18.4,41-41,41h-70H349l-78.3,0.4c-22.5,0-41,18.4-41,41v19.9c0,22.5,18.5,41,41,41H283h1.1h21c22.5,0,41,18.5,41,41v74.5"
		/>
	<polygon fill="none" points="422.9,111.2 220.9,111.2 220.9,69.2 472.9,69.2 	"/>
	<text transform="matrix(1 0 0 1 220.882 91.7422)" fill="#FFFFFF" style="font-family: 'Amatic SC', cursive;" font-size="34">Trial Coincraft!</text>
	<rect x="418.5" y="235.1" fill="none" width="215.1" height="42"/>
	<text transform="matrix(1 0 0 1 421.7803 254.9528)" fill="#FFFFFF" style="font-family: 'Amatic SC', cursive;" font-size="30">Let Us know What you Need</text>
	<rect x="11.1" y="339.3" fill="none" width="291.4" height="42"/>
	<text transform="matrix(1 0 0 1 13.8231 360.4561)" fill="#FFFFFF" style="font-family: 'Amatic SC', cursive;" font-size="32">We shape the product to your needs</text>
	<rect x="474.3" y="343.3" fill="none" width="107.3" height="42"/>
	<text transform="matrix(1 0 0 1 474.2961 367.1056)" fill="#FFFFFF" style="font-family: 'Amatic SC', cursive;" font-size="36">Subscribe!</text>
	<rect x="93.8" y="744" fill="none" width="506.2" height="42"/>
	<text transform="matrix(1 0 0 1 109.4043 767.144)" fill="#FFFFFF" style="font-family: 'Amatic SC', cursive;" font-size="35">Continue to receive updates from everyone’s input</text>
	<circle fill="#FFFFFF" cx="225.1" cy="108.6" r="8.2"/>
	<circle fill="#FFFFFF" cx="460.1" cy="159.3" r="8.2"/>
	<circle fill="#FFFFFF" cx="229.1" cy="256.6" r="8.2"/>
	<circle fill="#FFFFFF" cx="345.9" cy="345" r="8.2"/>
	<circle fill="#FFFFFF" cx="346.1" cy="424.4" r="8.2"/>
</g>
</svg>
