<?xml version="1.0" encoding="utf-8"?>
<!-- Generator: Adobe Illustrator 18.0.0, SVG Export Plug-In . SVG Version: 6.00 Build 0)  -->
<!DOCTYPE svg PUBLIC "-//W3C//DTD SVG 1.1//EN" "https://www.w3.org/Graphics/SVG/1.1/DTD/svg11.dtd">
<svg version="1.1" id="Layer_1" xmlns="https://www.w3.org/2000/svg" xmlns:xlink="https://www.w3.org/1999/xlink" x="0px" y="0px"
	 viewBox="0 0 500 500" enable-background="new 0 0 500 500" xml:space="preserve">
<g>
	<path fill="#FFC708" d="M500,250c0,138.1-111.9,250-250,250S0,388.1,0,250C0,111.9,111.9,0,250,0S500,111.9,500,250z"/>
	<g>
		<g>
			<path fill="#424143" d="M160.1,370.2v-16.6c0,7.5-18,13.6-40.3,13.6c-22.3,0-40.3-6.1-40.3-13.6v16.6c0,7.5,18,13.6,40.3,13.6
				C142,383.8,160.1,377.7,160.1,370.2z"/>
			<path fill="#424143" d="M160.1,341v-16.7c0,7.5-18,13.6-40.3,13.6c-22.3,0-40.3-6.1-40.3-13.6V341c0,7.5,18,13.6,40.3,13.6
				C142,354.6,160.1,348.5,160.1,341z"/>
			<path fill="#424143" d="M160.1,311.8v-16.6c0,7.5-18,13.6-40.3,13.6c-22.3,0-40.3-6.1-40.3-13.6v16.6c0,7.5,18,13.6,40.3,13.6
				C142,325.4,160.1,319.3,160.1,311.8z"/>
			<path fill="#424143" d="M119.8,252.3c-22.3,0-40.3,6.1-40.3,13.6v16.6c0,7.5,18,13.6,40.3,13.6c22.2,0,40.3-6.1,40.3-13.6V266
				C160.1,258.4,142,252.3,119.8,252.3z M119.8,255.1c22.9,0,37.5,6.4,37.5,10.9c0,4.4-14.6,10.8-37.5,10.8
				c-22.9,0-37.5-6.4-37.5-10.8C82.3,261.6,96.9,255.1,119.8,255.1z"/>
		</g>
		<g>
			<path fill="#424143" d="M246.9,340.1v-16.6c0,7.5-18,13.6-40.3,13.6c-22.2,0-40.3-6.1-40.3-13.6v16.6c0,7.5,18,13.6,40.3,13.6
				C228.8,353.8,246.9,347.6,246.9,340.1z"/>
			<path fill="#424143" d="M246.9,312v-16.6c0,7.5-18,13.6-40.3,13.6c-22.2,0-40.3-6.1-40.3-13.6V312c0,7.5,18,13.6,40.3,13.6
				C228.8,325.6,246.9,319.5,246.9,312z"/>
			<path fill="#424143" d="M246.9,283.8v-16.6c0,7.5-18,13.6-40.3,13.6c-22.2,0-40.3-6.1-40.3-13.6v16.6c0,7.5,18,13.6,40.3,13.6
				C228.8,297.4,246.9,291.3,246.9,283.8z"/>
			<path fill="#424143" d="M246.9,255.6V239c0,7.5-18,13.6-40.3,13.6c-22.2,0-40.3-6.1-40.3-13.6v16.6c0,7.5,18,13.6,40.3,13.6
				C228.8,269.2,246.9,263.1,246.9,255.6z"/>
			<path fill="#424143" d="M246.9,227.5v-16.6c0,7.5-18,13.6-40.3,13.6c-22.2,0-40.3-6.1-40.3-13.6v16.6c0,7.5,18,13.6,40.3,13.6
				C228.8,241.1,246.9,235,246.9,227.5z"/>
			<path fill="#424143" d="M246.9,183.1c-0.6-7.3-18.4-13.2-40.3-13.2c-21.8,0-39.6,5.9-40.2,13.2c0-0.1,0-0.3,0-0.4v16.6
				c0,7.5,18,13.6,40.3,13.6c22.2,0,40.3-6.1,40.3-13.6v-16.6C246.9,182.8,246.9,183,246.9,183.1z M206.6,172.7
				c22.9,0,37.5,6.4,37.5,10.8c0,4.4-14.6,10.9-37.5,10.9c-22.9,0-37.5-6.4-37.5-10.9C169.1,179.1,183.7,172.7,206.6,172.7z"/>
		</g>
		<g>
			<path fill="#424143" d="M420.5,279.9v-16.6c0,7.5-18,13.6-40.3,13.6c-22.2,0-40.3-6.1-40.3-13.6v16.6c0,7.5,18,13.6,40.3,13.6
				C402.5,293.5,420.5,287.5,420.5,279.9z"/>
			<path fill="#424143" d="M420.5,251.8v-16.6c0,7.5-18,13.6-40.3,13.6c-22.2,0-40.3-6.1-40.3-13.6v16.6c0,7.5,18,13.6,40.3,13.6
				C402.5,265.4,420.5,259.3,420.5,251.8z"/>
			<path fill="#424143" d="M420.5,223.6V207c0,7.5-18,13.6-40.3,13.6c-22.2,0-40.3-6.1-40.3-13.6v16.6c0,7.5,18,13.6,40.3,13.6
				C402.5,237.2,420.5,231.1,420.5,223.6z"/>
			<path fill="#424143" d="M420.5,195.5v-16.6c0,7.5-18,13.6-40.3,13.6c-22.2,0-40.3-6.1-40.3-13.6v16.6c0,7.5,18,13.6,40.3,13.6
				C402.5,209.1,420.5,203,420.5,195.5z"/>
			<path fill="#424143" d="M420.5,167.3v-16.6c0,7.5-18,13.6-40.3,13.6c-22.2,0-40.3-6.1-40.3-13.6v16.6c0,7.5,18,13.6,40.3,13.6
				C402.5,180.9,420.5,174.8,420.5,167.3z"/>
			<path fill="#424143" d="M420.5,122.9c-0.7-7.3-18.4-13.2-40.3-13.2c-21.8,0-39.6,5.9-40.2,13.2c0-0.1,0-0.3,0-0.4v16.6
				c0,7.5,18,13.6,40.3,13.6c22.3,0,40.3-6.1,40.3-13.6v-16.6C420.5,122.7,420.5,122.8,420.5,122.9z M380.2,112.5
				c22.9,0,37.5,6.4,37.5,10.9c0,4.4-14.6,10.8-37.5,10.8c-22.9,0-37.5-6.4-37.5-10.8C342.7,118.9,357.3,112.5,380.2,112.5z"/>
		</g>
		<g>
			<path fill="#424143" d="M333.7,310v-16.6c0,7.5-18.1,13.6-40.3,13.6c-22.3,0-40.3-6.1-40.3-13.6V310c0,7.5,18,13.6,40.3,13.6
				C315.6,323.6,333.7,317.5,333.7,310z"/>
			<path fill="#424143" d="M333.7,281.9v-16.6c0,7.5-18.1,13.6-40.3,13.6c-22.3,0-40.3-6.1-40.3-13.6v16.6c0,7.5,18,13.6,40.3,13.6
				C315.6,295.5,333.7,289.4,333.7,281.9z"/>
			<path fill="#424143" d="M333.7,253.7v-16.6c0,7.5-18.1,13.6-40.3,13.6c-22.3,0-40.3-6.1-40.3-13.6v16.6c0,7.5,18,13.6,40.3,13.6
				C315.6,267.3,333.7,261.2,333.7,253.7z"/>
			<path fill="#424143" d="M333.7,225.6v-16.6c0,7.5-18.1,13.6-40.3,13.6c-22.3,0-40.3-6.1-40.3-13.6v16.6c0,7.5,18,13.6,40.3,13.6
				C315.6,239.1,333.7,233.1,333.7,225.6z"/>
			<path fill="#424143" d="M333.7,197.4v-16.6c0,7.5-18.1,13.6-40.3,13.6c-22.3,0-40.3-6.1-40.3-13.6v16.6c0,7.5,18,13.6,40.3,13.6
				C315.6,211,333.7,204.9,333.7,197.4z"/>
			<path fill="#424143" d="M333.7,169.2v-16.6c0,7.5-18.1,13.6-40.3,13.6c-22.3,0-40.3-6.1-40.3-13.6v16.6c0,7.5,18,13.6,40.3,13.6
				C315.6,182.8,333.7,176.7,333.7,169.2z"/>
			<path fill="#424143" d="M333.7,141.1v-16.6c0,7.5-18.1,13.6-40.3,13.6c-22.3,0-40.3-6.1-40.3-13.6v16.6c0,7.5,18,13.6,40.3,13.6
				C315.6,154.7,333.7,148.6,333.7,141.1z"/>
			<path fill="#424143" d="M293.4,82.6c-22.3,0-40.3,6.1-40.3,13.6v16.6c0,7.5,18,13.6,40.3,13.6c22.2,0,40.3-6.1,40.3-13.6V96.3
				C333.7,88.7,315.6,82.6,293.4,82.6z M293.4,85.4c22.9,0,37.5,6.4,37.5,10.9c0,4.4-14.6,10.8-37.5,10.8
				c-22.9,0-37.5-6.4-37.5-10.8C255.9,91.9,270.5,85.4,293.4,85.4z"/>
		</g>
	</g>
</g>
</svg>
